<?xml version="1.0" encoding="utf-8" standalone="no"?>
<!DOCTYPE svg PUBLIC "-//W3C//DTD SVG 1.1//EN"
  "http://www.w3.org/Graphics/SVG/1.1/DTD/svg11.dtd">
<svg xmlns:xlink="http://www.w3.org/1999/xlink" width="1144.8pt" height="1121.701786pt" viewBox="0 0 1144.8 1121.701786" xmlns="http://www.w3.org/2000/svg" version="1.1">
 <metadata>
  <rdf:RDF xmlns:dc="http://purl.org/dc/elements/1.1/" xmlns:cc="http://creativecommons.org/ns#" xmlns:rdf="http://www.w3.org/1999/02/22-rdf-syntax-ns#">
   <cc:Work>
    <dc:type rdf:resource="http://purl.org/dc/dcmitype/StillImage"/>
    <dc:date>2026-05-12T21:26:57.598106</dc:date>
    <dc:format>image/svg+xml</dc:format>
    <dc:creator>
     <cc:Agent>
      <dc:title>Matplotlib v3.10.9, https://matplotlib.org/</dc:title>
     </cc:Agent>
    </dc:creator>
   </cc:Work>
  </rdf:RDF>
 </metadata>
 <defs>
  <style type="text/css">*{stroke-linejoin: round; stroke-linecap: butt}</style>
 </defs>
 <g id="figure_1">
  <g id="patch_1">
   <path d="M 0 1121.701786 
L 1144.8 1121.701786 
L 1144.8 0 
L 0 0 
z
" style="fill: #ffffff"/>
  </g>
  <g id="axes_1">
   <g id="text_1">
    <!-- A11 -->
    <g style="fill: #1a5276; opacity: 0.18" transform="translate(533.421563 539.99814) scale(0.36 -0.36)">
     <defs>
      <path id="DejaVuSans-Bold-41" d="M 3419 850 
L 1538 850 
L 1241 0 
L 31 0 
L 1759 4666 
L 3194 4666 
L 4922 0 
L 3713 0 
L 3419 850 
z
M 1838 1716 
L 3116 1716 
L 2478 3572 
L 1838 1716 
z
" transform="scale(0.015625)"/>
      <path id="DejaVuSans-Bold-31" d="M 750 831 
L 1813 831 
L 1813 3847 
L 722 3622 
L 722 4441 
L 1806 4666 
L 2950 4666 
L 2950 831 
L 4013 831 
L 4013 0 
L 750 0 
L 750 831 
z
" transform="scale(0.015625)"/>
     </defs>
     <use xlink:href="#DejaVuSans-Bold-41"/>
     <use xlink:href="#DejaVuSans-Bold-31" transform="translate(77.392578 0)"/>
     <use xlink:href="#DejaVuSans-Bold-31" transform="translate(146.972656 0)"/>
    </g>
   </g>
   <g id="LineCollection_1">
    <path d="M 105.292562 681.836797 
L 572.4 1021.210216 
" clip-path="url(#p436aafae9e)" style="fill: none; stroke: #c0392b; stroke-opacity: 0.9; stroke-width: 2.8"/>
    <path d="M 861.088273 132.71907 
L 283.711727 132.71907 
" clip-path="url(#p436aafae9e)" style="fill: none; stroke: #c0392b; stroke-opacity: 0.9; stroke-width: 2.8"/>
    <path d="M 283.711727 132.71907 
L 105.292562 681.836797 
" clip-path="url(#p436aafae9e)" style="fill: none; stroke: #c0392b; stroke-opacity: 0.9; stroke-width: 2.8"/>
    <path d="M 572.4 1021.210216 
L 1039.507438 681.836797 
" clip-path="url(#p436aafae9e)" style="fill: none; stroke: #c0392b; stroke-opacity: 0.9; stroke-width: 2.8"/>
    <path d="M 1039.507438 681.836797 
L 861.088273 132.71907 
" clip-path="url(#p436aafae9e)" style="fill: none; stroke: #c0392b; stroke-opacity: 0.9; stroke-width: 2.8"/>
   </g>
   <g id="PathCollection_1">
    <defs>
     <path id="m3139d330d7" d="M 0 11.61895 
C 3.081382 11.61895 6.036973 10.394704 8.215838 8.215838 
C 10.394704 6.036973 11.61895 3.081382 11.61895 0 
C 11.61895 -3.081382 10.394704 -6.036973 8.215838 -8.215838 
C 6.036973 -10.394704 3.081382 -11.61895 0 -11.61895 
C -3.081382 -11.61895 -6.036973 -10.394704 -8.215838 -8.215838 
C -10.394704 -6.036973 -11.61895 -3.081382 -11.61895 0 
C -11.61895 3.081382 -10.394704 6.036973 -8.215838 8.215838 
C -6.036973 10.394704 -3.081382 11.61895 0 11.61895 
z
" style="stroke: #000000; stroke-width: 0.9"/>
    </defs>
    <g clip-path="url(#p436aafae9e)">
     <use xlink:href="#m3139d330d7" x="572.4" y="1021.210216" style="fill: #1a5276; stroke: #000000; stroke-width: 0.9"/>
     <use xlink:href="#m3139d330d7" x="1039.507438" y="681.836797" style="fill: #1a5276; stroke: #000000; stroke-width: 0.9"/>
     <use xlink:href="#m3139d330d7" x="861.088273" y="132.71907" style="fill: #1a5276; stroke: #000000; stroke-width: 0.9"/>
     <use xlink:href="#m3139d330d7" x="283.711727" y="132.71907" style="fill: #1a5276; stroke: #000000; stroke-width: 0.9"/>
    </g>
   </g>
   <g id="PathCollection_2">
    <defs>
     <path id="m0beecdec10" d="M 0 14.317821 
C 3.797131 14.317821 7.439252 12.809205 10.124228 10.124228 
C 12.809205 7.439252 14.317821 3.797131 14.317821 0 
C 14.317821 -3.797131 12.809205 -7.439252 10.124228 -10.124228 
C 7.439252 -12.809205 3.797131 -14.317821 0 -14.317821 
C -3.797131 -14.317821 -7.439252 -12.809205 -10.124228 -10.124228 
C -12.809205 -7.439252 -14.317821 -3.797131 -14.317821 0 
C -14.317821 3.797131 -12.809205 7.439252 -10.124228 10.124228 
C -7.439252 12.809205 -3.797131 14.317821 0 14.317821 
z
" style="stroke: #000000; stroke-width: 1.4"/>
    </defs>
    <g clip-path="url(#p436aafae9e)">
     <use xlink:href="#m0beecdec10" x="105.292562" y="681.836797" style="fill: #c0392b; stroke: #000000; stroke-width: 1.4"/>
    </g>
   </g>
   <g id="text_2">
    <g id="patch_2">
     <path d="M 556.663125 940.876936 
L 588.136875 940.876936 
Q 590.886875 940.876936 590.886875 938.126936 
L 590.886875 927.480998 
Q 590.886875 924.730998 588.136875 924.730998 
L 556.663125 924.730998 
Q 553.913125 924.730998 553.913125 927.480998 
L 553.913125 938.126936 
Q 553.913125 940.876936 556.663125 940.876936 
z
" clip-path="url(#p436aafae9e)" style="fill: #ffffff; opacity: 0.92; stroke: #1a5276; stroke-linejoin: miter"/>
    </g>
    <g clip-path="url(#p436aafae9e)">
     <!-- A840 -->
     <g style="fill: #1c2833" transform="translate(556.663125 935.83928) scale(0.11 -0.11)">
      <defs>
       <path id="DejaVuSans-Bold-38" d="M 2228 2088 
Q 1891 2088 1709 1903 
Q 1528 1719 1528 1375 
Q 1528 1031 1709 848 
Q 1891 666 2228 666 
Q 2563 666 2741 848 
Q 2919 1031 2919 1375 
Q 2919 1722 2741 1905 
Q 2563 2088 2228 2088 
z
M 1350 2484 
Q 925 2613 709 2878 
Q 494 3144 494 3541 
Q 494 4131 934 4440 
Q 1375 4750 2228 4750 
Q 3075 4750 3515 4442 
Q 3956 4134 3956 3541 
Q 3956 3144 3739 2878 
Q 3522 2613 3097 2484 
Q 3572 2353 3814 2058 
Q 4056 1763 4056 1313 
Q 4056 619 3595 264 
Q 3134 -91 2228 -91 
Q 1319 -91 855 264 
Q 391 619 391 1313 
Q 391 1763 633 2058 
Q 875 2353 1350 2484 
z
M 1631 3419 
Q 1631 3141 1786 2991 
Q 1941 2841 2228 2841 
Q 2509 2841 2662 2991 
Q 2816 3141 2816 3419 
Q 2816 3697 2662 3845 
Q 2509 3994 2228 3994 
Q 1941 3994 1786 3844 
Q 1631 3694 1631 3419 
z
" transform="scale(0.015625)"/>
       <path id="DejaVuSans-Bold-34" d="M 2356 3675 
L 1038 1722 
L 2356 1722 
L 2356 3675 
z
M 2156 4666 
L 3494 4666 
L 3494 1722 
L 4159 1722 
L 4159 850 
L 3494 850 
L 3494 0 
L 2356 0 
L 2356 850 
L 288 850 
L 288 1881 
L 2156 4666 
z
" transform="scale(0.015625)"/>
       <path id="DejaVuSans-Bold-30" d="M 2944 2338 
Q 2944 3213 2780 3570 
Q 2616 3928 2228 3928 
Q 1841 3928 1675 3570 
Q 1509 3213 1509 2338 
Q 1509 1453 1675 1090 
Q 1841 728 2228 728 
Q 2613 728 2778 1090 
Q 2944 1453 2944 2338 
z
M 4147 2328 
Q 4147 1169 3647 539 
Q 3147 -91 2228 -91 
Q 1306 -91 806 539 
Q 306 1169 306 2328 
Q 306 3491 806 4120 
Q 1306 4750 2228 4750 
Q 3147 4750 3647 4120 
Q 4147 3491 4147 2328 
z
" transform="scale(0.015625)"/>
      </defs>
      <use xlink:href="#DejaVuSans-Bold-41"/>
      <use xlink:href="#DejaVuSans-Bold-38" transform="translate(77.392578 0)"/>
      <use xlink:href="#DejaVuSans-Bold-34" transform="translate(146.972656 0)"/>
      <use xlink:href="#DejaVuSans-Bold-30" transform="translate(216.552734 0)"/>
     </g>
    </g>
   </g>
   <g id="text_3">
    <g id="patch_3">
     <path d="M 939.691224 662.590732 
L 971.164974 662.590732 
Q 973.914974 662.590732 973.914974 659.840732 
L 973.914974 649.194795 
Q 973.914974 646.444795 971.164974 646.444795 
L 939.691224 646.444795 
Q 936.941224 646.444795 936.941224 649.194795 
L 936.941224 659.840732 
Q 936.941224 662.590732 939.691224 662.590732 
z
" clip-path="url(#p436aafae9e)" style="fill: #ffffff; opacity: 0.92; stroke: #1a5276; stroke-linejoin: miter"/>
    </g>
    <g clip-path="url(#p436aafae9e)">
     <!-- A841 -->
     <g style="fill: #1c2833" transform="translate(939.691224 657.553076) scale(0.11 -0.11)">
      <use xlink:href="#DejaVuSans-Bold-41"/>
      <use xlink:href="#DejaVuSans-Bold-38" transform="translate(77.392578 0)"/>
      <use xlink:href="#DejaVuSans-Bold-34" transform="translate(146.972656 0)"/>
      <use xlink:href="#DejaVuSans-Bold-31" transform="translate(216.552734 0)"/>
     </g>
    </g>
   </g>
   <g id="text_4">
    <g id="patch_4">
     <path d="M 793.387509 212.314197 
L 824.861259 212.314197 
Q 827.611259 212.314197 827.611259 209.564197 
L 827.611259 198.918259 
Q 827.611259 196.168259 824.861259 196.168259 
L 793.387509 196.168259 
Q 790.637509 196.168259 790.637509 198.918259 
L 790.637509 209.564197 
Q 790.637509 212.314197 793.387509 212.314197 
z
" clip-path="url(#p436aafae9e)" style="fill: #ffffff; opacity: 0.92; stroke: #1a5276; stroke-linejoin: miter"/>
    </g>
    <g clip-path="url(#p436aafae9e)">
     <!-- A842 -->
     <g style="fill: #1c2833" transform="translate(793.387509 207.27654) scale(0.11 -0.11)">
      <defs>
       <path id="DejaVuSans-Bold-32" d="M 1844 884 
L 3897 884 
L 3897 0 
L 506 0 
L 506 884 
L 2209 2388 
Q 2438 2594 2547 2791 
Q 2656 2988 2656 3200 
Q 2656 3528 2436 3728 
Q 2216 3928 1850 3928 
Q 1569 3928 1234 3808 
Q 900 3688 519 3450 
L 519 4475 
Q 925 4609 1322 4679 
Q 1719 4750 2100 4750 
Q 2938 4750 3402 4381 
Q 3866 4013 3866 3353 
Q 3866 2972 3669 2642 
Q 3472 2313 2841 1759 
L 1844 884 
z
" transform="scale(0.015625)"/>
      </defs>
      <use xlink:href="#DejaVuSans-Bold-41"/>
      <use xlink:href="#DejaVuSans-Bold-38" transform="translate(77.392578 0)"/>
      <use xlink:href="#DejaVuSans-Bold-34" transform="translate(146.972656 0)"/>
      <use xlink:href="#DejaVuSans-Bold-32" transform="translate(216.552734 0)"/>
     </g>
    </g>
   </g>
   <g id="text_5">
    <g id="patch_5">
     <path d="M 319.938741 212.314197 
L 351.412491 212.314197 
Q 354.162491 212.314197 354.162491 209.564197 
L 354.162491 198.918259 
Q 354.162491 196.168259 351.412491 196.168259 
L 319.938741 196.168259 
Q 317.188741 196.168259 317.188741 198.918259 
L 317.188741 209.564197 
Q 317.188741 212.314197 319.938741 212.314197 
z
" clip-path="url(#p436aafae9e)" style="fill: #ffffff; opacity: 0.92; stroke: #1a5276; stroke-linejoin: miter"/>
    </g>
    <g clip-path="url(#p436aafae9e)">
     <!-- A843 -->
     <g style="fill: #1c2833" transform="translate(319.938741 207.27654) scale(0.11 -0.11)">
      <defs>
       <path id="DejaVuSans-Bold-33" d="M 2981 2516 
Q 3453 2394 3698 2092 
Q 3944 1791 3944 1325 
Q 3944 631 3412 270 
Q 2881 -91 1863 -91 
Q 1503 -91 1142 -33 
Q 781 25 428 141 
L 428 1069 
Q 766 900 1098 814 
Q 1431 728 1753 728 
Q 2231 728 2486 893 
Q 2741 1059 2741 1369 
Q 2741 1688 2480 1852 
Q 2219 2016 1709 2016 
L 1228 2016 
L 1228 2791 
L 1734 2791 
Q 2188 2791 2409 2933 
Q 2631 3075 2631 3366 
Q 2631 3634 2415 3781 
Q 2200 3928 1806 3928 
Q 1516 3928 1219 3862 
Q 922 3797 628 3669 
L 628 4550 
Q 984 4650 1334 4700 
Q 1684 4750 2022 4750 
Q 2931 4750 3382 4451 
Q 3834 4153 3834 3553 
Q 3834 3144 3618 2883 
Q 3403 2622 2981 2516 
z
" transform="scale(0.015625)"/>
      </defs>
      <use xlink:href="#DejaVuSans-Bold-41"/>
      <use xlink:href="#DejaVuSans-Bold-38" transform="translate(77.392578 0)"/>
      <use xlink:href="#DejaVuSans-Bold-34" transform="translate(146.972656 0)"/>
      <use xlink:href="#DejaVuSans-Bold-33" transform="translate(216.552734 0)"/>
     </g>
    </g>
   </g>
   <g id="text_6">
    <g id="patch_6">
     <path d="M 175.065651 667.755732 
L 203.678151 667.755732 
Q 206.478151 667.755732 206.478151 664.955732 
L 206.478151 644.079795 
Q 206.478151 641.279795 203.678151 641.279795 
L 175.065651 641.279795 
Q 172.265651 641.279795 172.265651 644.079795 
L 172.265651 664.955732 
Q 172.265651 667.755732 175.065651 667.755732 
z
" clip-path="url(#p436aafae9e)" style="fill: #c0392b; opacity: 0.95; stroke: #000000; stroke-linejoin: miter"/>
    </g>
    <g clip-path="url(#p436aafae9e)">
     <!-- A891 -->
     <g style="fill: #ffffff" transform="translate(175.065651 651.678232) scale(0.1 -0.1)">
      <defs>
       <path id="DejaVuSans-Bold-39" d="M 641 103 
L 641 966 
Q 928 831 1190 764 
Q 1453 697 1709 697 
Q 2247 697 2547 995 
Q 2847 1294 2900 1881 
Q 2688 1725 2447 1647 
Q 2206 1569 1925 1569 
Q 1209 1569 770 1986 
Q 331 2403 331 3084 
Q 331 3838 820 4291 
Q 1309 4744 2131 4744 
Q 3044 4744 3544 4128 
Q 4044 3513 4044 2388 
Q 4044 1231 3459 570 
Q 2875 -91 1856 -91 
Q 1528 -91 1228 -42 
Q 928 6 641 103 
z
M 2125 2350 
Q 2441 2350 2600 2554 
Q 2759 2759 2759 3169 
Q 2759 3575 2600 3781 
Q 2441 3988 2125 3988 
Q 1809 3988 1650 3781 
Q 1491 3575 1491 3169 
Q 1491 2759 1650 2554 
Q 1809 2350 2125 2350 
z
" transform="scale(0.015625)"/>
      </defs>
      <use xlink:href="#DejaVuSans-Bold-41"/>
      <use xlink:href="#DejaVuSans-Bold-38" transform="translate(77.392578 0)"/>
      <use xlink:href="#DejaVuSans-Bold-39" transform="translate(146.972656 0)"/>
      <use xlink:href="#DejaVuSans-Bold-31" transform="translate(216.552734 0)"/>
     </g>
    </g>
    <g clip-path="url(#p436aafae9e)">
     <!-- ● T1 -->
     <g style="fill: #ffffff" transform="translate(176.378932 662.876045) scale(0.1 -0.1)">
      <defs>
       <path id="DejaVuSans-Bold-25cf" d="M 676 436 
Q 350 1003 350 1656 
Q 350 2309 676 2876 
Q 1003 3444 1570 3772 
Q 2138 4100 2792 4100 
Q 3447 4100 4014 3772 
Q 4581 3444 4907 2876 
Q 5234 2309 5234 1656 
Q 5234 1003 4907 436 
Q 4581 -131 4014 -459 
Q 3447 -788 2792 -788 
Q 2138 -788 1570 -459 
Q 1003 -131 676 436 
z
" transform="scale(0.015625)"/>
       <path id="DejaVuSans-Bold-20" transform="scale(0.015625)"/>
       <path id="DejaVuSans-Bold-54" d="M 31 4666 
L 4331 4666 
L 4331 3756 
L 2784 3756 
L 2784 0 
L 1581 0 
L 1581 3756 
L 31 3756 
L 31 4666 
z
" transform="scale(0.015625)"/>
      </defs>
      <use xlink:href="#DejaVuSans-Bold-25cf"/>
      <use xlink:href="#DejaVuSans-Bold-20" transform="translate(87.255859 0)"/>
      <use xlink:href="#DejaVuSans-Bold-54" transform="translate(122.070312 0)"/>
      <use xlink:href="#DejaVuSans-Bold-31" transform="translate(190.283203 0)"/>
     </g>
    </g>
   </g>
   <g id="text_7">
    <!-- Anillo A11 — 5 nodos backbone, 0 accesos | sedes ABAST: 90 · habitantes: 175,000 -->
    <g style="fill: #1c2833" transform="translate(198.49125 19.4275) scale(0.16 -0.16)">
     <defs>
      <path id="DejaVuSans-Bold-6e" d="M 4056 2131 
L 4056 0 
L 2931 0 
L 2931 347 
L 2931 1631 
Q 2931 2084 2911 2256 
Q 2891 2428 2841 2509 
Q 2775 2619 2662 2680 
Q 2550 2741 2406 2741 
Q 2056 2741 1856 2470 
Q 1656 2200 1656 1722 
L 1656 0 
L 538 0 
L 538 3500 
L 1656 3500 
L 1656 2988 
Q 1909 3294 2193 3439 
Q 2478 3584 2822 3584 
Q 3428 3584 3742 3212 
Q 4056 2841 4056 2131 
z
" transform="scale(0.015625)"/>
      <path id="DejaVuSans-Bold-69" d="M 538 3500 
L 1656 3500 
L 1656 0 
L 538 0 
L 538 3500 
z
M 538 4863 
L 1656 4863 
L 1656 3950 
L 538 3950 
L 538 4863 
z
" transform="scale(0.015625)"/>
      <path id="DejaVuSans-Bold-6c" d="M 538 4863 
L 1656 4863 
L 1656 0 
L 538 0 
L 538 4863 
z
" transform="scale(0.015625)"/>
      <path id="DejaVuSans-Bold-6f" d="M 2203 2784 
Q 1831 2784 1636 2517 
Q 1441 2250 1441 1747 
Q 1441 1244 1636 976 
Q 1831 709 2203 709 
Q 2569 709 2762 976 
Q 2956 1244 2956 1747 
Q 2956 2250 2762 2517 
Q 2569 2784 2203 2784 
z
M 2203 3584 
Q 3106 3584 3614 3096 
Q 4122 2609 4122 1747 
Q 4122 884 3614 396 
Q 3106 -91 2203 -91 
Q 1297 -91 786 396 
Q 275 884 275 1747 
Q 275 2609 786 3096 
Q 1297 3584 2203 3584 
z
" transform="scale(0.015625)"/>
      <path id="DejaVuSans-Bold-2014" d="M 344 2156 
L 6056 2156 
L 6056 1350 
L 344 1350 
L 344 2156 
z
" transform="scale(0.015625)"/>
      <path id="DejaVuSans-Bold-35" d="M 678 4666 
L 3669 4666 
L 3669 3781 
L 1638 3781 
L 1638 3059 
Q 1775 3097 1914 3117 
Q 2053 3138 2203 3138 
Q 3056 3138 3531 2711 
Q 4006 2284 4006 1522 
Q 4006 766 3489 337 
Q 2972 -91 2053 -91 
Q 1656 -91 1267 -14 
Q 878 63 494 219 
L 494 1166 
Q 875 947 1217 837 
Q 1559 728 1863 728 
Q 2300 728 2551 942 
Q 2803 1156 2803 1522 
Q 2803 1891 2551 2103 
Q 2300 2316 1863 2316 
Q 1603 2316 1309 2248 
Q 1016 2181 678 2041 
L 678 4666 
z
" transform="scale(0.015625)"/>
      <path id="DejaVuSans-Bold-64" d="M 2919 2988 
L 2919 4863 
L 4044 4863 
L 4044 0 
L 2919 0 
L 2919 506 
Q 2688 197 2409 53 
Q 2131 -91 1766 -91 
Q 1119 -91 703 423 
Q 288 938 288 1747 
Q 288 2556 703 3070 
Q 1119 3584 1766 3584 
Q 2128 3584 2408 3439 
Q 2688 3294 2919 2988 
z
M 2181 722 
Q 2541 722 2730 984 
Q 2919 1247 2919 1747 
Q 2919 2247 2730 2509 
Q 2541 2772 2181 2772 
Q 1825 2772 1636 2509 
Q 1447 2247 1447 1747 
Q 1447 1247 1636 984 
Q 1825 722 2181 722 
z
" transform="scale(0.015625)"/>
      <path id="DejaVuSans-Bold-73" d="M 3272 3391 
L 3272 2541 
Q 2913 2691 2578 2766 
Q 2244 2841 1947 2841 
Q 1628 2841 1473 2761 
Q 1319 2681 1319 2516 
Q 1319 2381 1436 2309 
Q 1553 2238 1856 2203 
L 2053 2175 
Q 2913 2066 3209 1816 
Q 3506 1566 3506 1031 
Q 3506 472 3093 190 
Q 2681 -91 1863 -91 
Q 1516 -91 1145 -36 
Q 775 19 384 128 
L 384 978 
Q 719 816 1070 734 
Q 1422 653 1784 653 
Q 2113 653 2278 743 
Q 2444 834 2444 1013 
Q 2444 1163 2330 1236 
Q 2216 1309 1875 1350 
L 1678 1375 
Q 931 1469 631 1722 
Q 331 1975 331 2491 
Q 331 3047 712 3315 
Q 1094 3584 1881 3584 
Q 2191 3584 2531 3537 
Q 2872 3491 3272 3391 
z
" transform="scale(0.015625)"/>
      <path id="DejaVuSans-Bold-62" d="M 2400 722 
Q 2759 722 2948 984 
Q 3138 1247 3138 1747 
Q 3138 2247 2948 2509 
Q 2759 2772 2400 2772 
Q 2041 2772 1848 2508 
Q 1656 2244 1656 1747 
Q 1656 1250 1848 986 
Q 2041 722 2400 722 
z
M 1656 2988 
Q 1888 3294 2169 3439 
Q 2450 3584 2816 3584 
Q 3463 3584 3878 3070 
Q 4294 2556 4294 1747 
Q 4294 938 3878 423 
Q 3463 -91 2816 -91 
Q 2450 -91 2169 54 
Q 1888 200 1656 506 
L 1656 0 
L 538 0 
L 538 4863 
L 1656 4863 
L 1656 2988 
z
" transform="scale(0.015625)"/>
      <path id="DejaVuSans-Bold-61" d="M 2106 1575 
Q 1756 1575 1579 1456 
Q 1403 1338 1403 1106 
Q 1403 894 1545 773 
Q 1688 653 1941 653 
Q 2256 653 2472 879 
Q 2688 1106 2688 1447 
L 2688 1575 
L 2106 1575 
z
M 3816 1997 
L 3816 0 
L 2688 0 
L 2688 519 
Q 2463 200 2181 54 
Q 1900 -91 1497 -91 
Q 953 -91 614 226 
Q 275 544 275 1050 
Q 275 1666 698 1953 
Q 1122 2241 2028 2241 
L 2688 2241 
L 2688 2328 
Q 2688 2594 2478 2717 
Q 2269 2841 1825 2841 
Q 1466 2841 1156 2769 
Q 847 2697 581 2553 
L 581 3406 
Q 941 3494 1303 3539 
Q 1666 3584 2028 3584 
Q 2975 3584 3395 3211 
Q 3816 2838 3816 1997 
z
" transform="scale(0.015625)"/>
      <path id="DejaVuSans-Bold-63" d="M 3366 3391 
L 3366 2478 
Q 3138 2634 2908 2709 
Q 2678 2784 2431 2784 
Q 1963 2784 1702 2511 
Q 1441 2238 1441 1747 
Q 1441 1256 1702 982 
Q 1963 709 2431 709 
Q 2694 709 2930 787 
Q 3166 866 3366 1019 
L 3366 103 
Q 3103 6 2833 -42 
Q 2563 -91 2291 -91 
Q 1344 -91 809 395 
Q 275 881 275 1747 
Q 275 2613 809 3098 
Q 1344 3584 2291 3584 
Q 2566 3584 2833 3536 
Q 3100 3488 3366 3391 
z
" transform="scale(0.015625)"/>
      <path id="DejaVuSans-Bold-6b" d="M 538 4863 
L 1656 4863 
L 1656 2216 
L 2944 3500 
L 4244 3500 
L 2534 1894 
L 4378 0 
L 3022 0 
L 1656 1459 
L 1656 0 
L 538 0 
L 538 4863 
z
" transform="scale(0.015625)"/>
      <path id="DejaVuSans-Bold-65" d="M 4031 1759 
L 4031 1441 
L 1416 1441 
Q 1456 1047 1700 850 
Q 1944 653 2381 653 
Q 2734 653 3104 758 
Q 3475 863 3866 1075 
L 3866 213 
Q 3469 63 3072 -14 
Q 2675 -91 2278 -91 
Q 1328 -91 801 392 
Q 275 875 275 1747 
Q 275 2603 792 3093 
Q 1309 3584 2216 3584 
Q 3041 3584 3536 3087 
Q 4031 2591 4031 1759 
z
M 2881 2131 
Q 2881 2450 2695 2645 
Q 2509 2841 2209 2841 
Q 1884 2841 1681 2658 
Q 1478 2475 1428 2131 
L 2881 2131 
z
" transform="scale(0.015625)"/>
      <path id="DejaVuSans-Bold-2c" d="M 653 1209 
L 1778 1209 
L 1778 256 
L 1006 -909 
L 341 -909 
L 653 256 
L 653 1209 
z
" transform="scale(0.015625)"/>
      <path id="DejaVuSans-Bold-7c" d="M 1522 4891 
L 1522 -1509 
L 813 -1509 
L 813 4891 
L 1522 4891 
z
" transform="scale(0.015625)"/>
      <path id="DejaVuSans-Bold-42" d="M 2456 2859 
Q 2741 2859 2887 2984 
Q 3034 3109 3034 3353 
Q 3034 3594 2887 3720 
Q 2741 3847 2456 3847 
L 1791 3847 
L 1791 2859 
L 2456 2859 
z
M 2497 819 
Q 2859 819 3042 972 
Q 3225 1125 3225 1434 
Q 3225 1738 3044 1889 
Q 2863 2041 2497 2041 
L 1791 2041 
L 1791 819 
L 2497 819 
z
M 3616 2497 
Q 4003 2384 4215 2081 
Q 4428 1778 4428 1338 
Q 4428 663 3972 331 
Q 3516 0 2584 0 
L 588 0 
L 588 4666 
L 2394 4666 
Q 3366 4666 3802 4372 
Q 4238 4078 4238 3431 
Q 4238 3091 4078 2852 
Q 3919 2613 3616 2497 
z
" transform="scale(0.015625)"/>
      <path id="DejaVuSans-Bold-53" d="M 3834 4519 
L 3834 3531 
Q 3450 3703 3084 3790 
Q 2719 3878 2394 3878 
Q 1963 3878 1756 3759 
Q 1550 3641 1550 3391 
Q 1550 3203 1689 3098 
Q 1828 2994 2194 2919 
L 2706 2816 
Q 3484 2659 3812 2340 
Q 4141 2022 4141 1434 
Q 4141 663 3683 286 
Q 3225 -91 2284 -91 
Q 1841 -91 1394 -6 
Q 947 78 500 244 
L 500 1259 
Q 947 1022 1364 901 
Q 1781 781 2169 781 
Q 2563 781 2772 912 
Q 2981 1044 2981 1288 
Q 2981 1506 2839 1625 
Q 2697 1744 2272 1838 
L 1806 1941 
Q 1106 2091 782 2419 
Q 459 2747 459 3303 
Q 459 4000 909 4375 
Q 1359 4750 2203 4750 
Q 2588 4750 2994 4692 
Q 3400 4634 3834 4519 
z
" transform="scale(0.015625)"/>
      <path id="DejaVuSans-Bold-3a" d="M 716 3500 
L 1844 3500 
L 1844 2291 
L 716 2291 
L 716 3500 
z
M 716 1209 
L 1844 1209 
L 1844 0 
L 716 0 
L 716 1209 
z
" transform="scale(0.015625)"/>
      <path id="DejaVuSans-Bold-b7" d="M 653 2828 
L 1778 2828 
L 1778 1619 
L 653 1619 
L 653 2828 
z
" transform="scale(0.015625)"/>
      <path id="DejaVuSans-Bold-68" d="M 4056 2131 
L 4056 0 
L 2931 0 
L 2931 347 
L 2931 1625 
Q 2931 2084 2911 2256 
Q 2891 2428 2841 2509 
Q 2775 2619 2662 2680 
Q 2550 2741 2406 2741 
Q 2056 2741 1856 2470 
Q 1656 2200 1656 1722 
L 1656 0 
L 538 0 
L 538 4863 
L 1656 4863 
L 1656 2988 
Q 1909 3294 2193 3439 
Q 2478 3584 2822 3584 
Q 3428 3584 3742 3212 
Q 4056 2841 4056 2131 
z
" transform="scale(0.015625)"/>
      <path id="DejaVuSans-Bold-74" d="M 1759 4494 
L 1759 3500 
L 2913 3500 
L 2913 2700 
L 1759 2700 
L 1759 1216 
Q 1759 972 1856 886 
Q 1953 800 2241 800 
L 2816 800 
L 2816 0 
L 1856 0 
Q 1194 0 917 276 
Q 641 553 641 1216 
L 641 2700 
L 84 2700 
L 84 3500 
L 641 3500 
L 641 4494 
L 1759 4494 
z
" transform="scale(0.015625)"/>
      <path id="DejaVuSans-Bold-37" d="M 428 4666 
L 3944 4666 
L 3944 3988 
L 2125 0 
L 953 0 
L 2675 3781 
L 428 3781 
L 428 4666 
z
" transform="scale(0.015625)"/>
     </defs>
     <use xlink:href="#DejaVuSans-Bold-41"/>
     <use xlink:href="#DejaVuSans-Bold-6e" transform="translate(77.392578 0)"/>
     <use xlink:href="#DejaVuSans-Bold-69" transform="translate(148.583984 0)"/>
     <use xlink:href="#DejaVuSans-Bold-6c" transform="translate(182.861328 0)"/>
     <use xlink:href="#DejaVuSans-Bold-6c" transform="translate(217.138672 0)"/>
     <use xlink:href="#DejaVuSans-Bold-6f" transform="translate(251.416016 0)"/>
     <use xlink:href="#DejaVuSans-Bold-20" transform="translate(320.117188 0)"/>
     <use xlink:href="#DejaVuSans-Bold-41" transform="translate(354.931641 0)"/>
     <use xlink:href="#DejaVuSans-Bold-31" transform="translate(432.324219 0)"/>
     <use xlink:href="#DejaVuSans-Bold-31" transform="translate(501.904297 0)"/>
     <use xlink:href="#DejaVuSans-Bold-20" transform="translate(571.484375 0)"/>
     <use xlink:href="#DejaVuSans-Bold-2014" transform="translate(606.298828 0)"/>
     <use xlink:href="#DejaVuSans-Bold-20" transform="translate(706.298828 0)"/>
     <use xlink:href="#DejaVuSans-Bold-35" transform="translate(741.113281 0)"/>
     <use xlink:href="#DejaVuSans-Bold-20" transform="translate(810.693359 0)"/>
     <use xlink:href="#DejaVuSans-Bold-6e" transform="translate(845.507812 0)"/>
     <use xlink:href="#DejaVuSans-Bold-6f" transform="translate(916.699219 0)"/>
     <use xlink:href="#DejaVuSans-Bold-64" transform="translate(985.400391 0)"/>
     <use xlink:href="#DejaVuSans-Bold-6f" transform="translate(1056.982422 0)"/>
     <use xlink:href="#DejaVuSans-Bold-73" transform="translate(1125.683594 0)"/>
     <use xlink:href="#DejaVuSans-Bold-20" transform="translate(1185.205078 0)"/>
     <use xlink:href="#DejaVuSans-Bold-62" transform="translate(1220.019531 0)"/>
     <use xlink:href="#DejaVuSans-Bold-61" transform="translate(1291.601562 0)"/>
     <use xlink:href="#DejaVuSans-Bold-63" transform="translate(1359.082031 0)"/>
     <use xlink:href="#DejaVuSans-Bold-6b" transform="translate(1418.359375 0)"/>
     <use xlink:href="#DejaVuSans-Bold-62" transform="translate(1484.863281 0)"/>
     <use xlink:href="#DejaVuSans-Bold-6f" transform="translate(1556.445312 0)"/>
     <use xlink:href="#DejaVuSans-Bold-6e" transform="translate(1625.146484 0)"/>
     <use xlink:href="#DejaVuSans-Bold-65" transform="translate(1696.337891 0)"/>
     <use xlink:href="#DejaVuSans-Bold-2c" transform="translate(1764.160156 0)"/>
     <use xlink:href="#DejaVuSans-Bold-20" transform="translate(1802.148438 0)"/>
     <use xlink:href="#DejaVuSans-Bold-30" transform="translate(1836.962891 0)"/>
     <use xlink:href="#DejaVuSans-Bold-20" transform="translate(1906.542969 0)"/>
     <use xlink:href="#DejaVuSans-Bold-61" transform="translate(1941.357422 0)"/>
     <use xlink:href="#DejaVuSans-Bold-63" transform="translate(2008.837891 0)"/>
     <use xlink:href="#DejaVuSans-Bold-63" transform="translate(2068.115234 0)"/>
     <use xlink:href="#DejaVuSans-Bold-65" transform="translate(2127.392578 0)"/>
     <use xlink:href="#DejaVuSans-Bold-73" transform="translate(2195.214844 0)"/>
     <use xlink:href="#DejaVuSans-Bold-6f" transform="translate(2254.736328 0)"/>
     <use xlink:href="#DejaVuSans-Bold-73" transform="translate(2323.4375 0)"/>
     <use xlink:href="#DejaVuSans-Bold-20" transform="translate(2382.958984 0)"/>
     <use xlink:href="#DejaVuSans-Bold-7c" transform="translate(2417.773438 0)"/>
     <use xlink:href="#DejaVuSans-Bold-20" transform="translate(2454.296875 0)"/>
     <use xlink:href="#DejaVuSans-Bold-73" transform="translate(2489.111328 0)"/>
     <use xlink:href="#DejaVuSans-Bold-65" transform="translate(2548.632812 0)"/>
     <use xlink:href="#DejaVuSans-Bold-64" transform="translate(2616.455078 0)"/>
     <use xlink:href="#DejaVuSans-Bold-65" transform="translate(2688.037109 0)"/>
     <use xlink:href="#DejaVuSans-Bold-73" transform="translate(2755.859375 0)"/>
     <use xlink:href="#DejaVuSans-Bold-20" transform="translate(2815.380859 0)"/>
     <use xlink:href="#DejaVuSans-Bold-41" transform="translate(2850.195312 0)"/>
     <use xlink:href="#DejaVuSans-Bold-42" transform="translate(2927.587891 0)"/>
     <use xlink:href="#DejaVuSans-Bold-41" transform="translate(3003.808594 0)"/>
     <use xlink:href="#DejaVuSans-Bold-53" transform="translate(3081.201172 0)"/>
     <use xlink:href="#DejaVuSans-Bold-54" transform="translate(3153.222656 0)"/>
     <use xlink:href="#DejaVuSans-Bold-3a" transform="translate(3215.935547 0)"/>
     <use xlink:href="#DejaVuSans-Bold-20" transform="translate(3255.925781 0)"/>
     <use xlink:href="#DejaVuSans-Bold-39" transform="translate(3290.740234 0)"/>
     <use xlink:href="#DejaVuSans-Bold-30" transform="translate(3360.320312 0)"/>
     <use xlink:href="#DejaVuSans-Bold-20" transform="translate(3429.900391 0)"/>
     <use xlink:href="#DejaVuSans-Bold-b7" transform="translate(3464.714844 0)"/>
     <use xlink:href="#DejaVuSans-Bold-20" transform="translate(3502.703125 0)"/>
     <use xlink:href="#DejaVuSans-Bold-68" transform="translate(3537.517578 0)"/>
     <use xlink:href="#DejaVuSans-Bold-61" transform="translate(3608.708984 0)"/>
     <use xlink:href="#DejaVuSans-Bold-62" transform="translate(3676.189453 0)"/>
     <use xlink:href="#DejaVuSans-Bold-69" transform="translate(3747.771484 0)"/>
     <use xlink:href="#DejaVuSans-Bold-74" transform="translate(3782.048828 0)"/>
     <use xlink:href="#DejaVuSans-Bold-61" transform="translate(3829.851562 0)"/>
     <use xlink:href="#DejaVuSans-Bold-6e" transform="translate(3897.332031 0)"/>
     <use xlink:href="#DejaVuSans-Bold-74" transform="translate(3968.523438 0)"/>
     <use xlink:href="#DejaVuSans-Bold-65" transform="translate(4016.326172 0)"/>
     <use xlink:href="#DejaVuSans-Bold-73" transform="translate(4084.148438 0)"/>
     <use xlink:href="#DejaVuSans-Bold-3a" transform="translate(4143.669922 0)"/>
     <use xlink:href="#DejaVuSans-Bold-20" transform="translate(4183.660156 0)"/>
     <use xlink:href="#DejaVuSans-Bold-31" transform="translate(4218.474609 0)"/>
     <use xlink:href="#DejaVuSans-Bold-37" transform="translate(4288.054688 0)"/>
     <use xlink:href="#DejaVuSans-Bold-35" transform="translate(4357.634766 0)"/>
     <use xlink:href="#DejaVuSans-Bold-2c" transform="translate(4427.214844 0)"/>
     <use xlink:href="#DejaVuSans-Bold-30" transform="translate(4465.203125 0)"/>
     <use xlink:href="#DejaVuSans-Bold-30" transform="translate(4534.783203 0)"/>
     <use xlink:href="#DejaVuSans-Bold-30" transform="translate(4604.363281 0)"/>
    </g>
   </g>
  </g>
 </g>
 <defs>
  <clipPath id="p436aafae9e">
   <rect x="7.2" y="39.4275" width="1130.4" height="1075.074286"/>
  </clipPath>
 </defs>
</svg>
