<?xml version="1.0" encoding="utf-8" standalone="no"?>
<!DOCTYPE svg PUBLIC "-//W3C//DTD SVG 1.1//EN"
  "http://www.w3.org/Graphics/SVG/1.1/DTD/svg11.dtd">
<svg xmlns:xlink="http://www.w3.org/1999/xlink" width="1121.72843pt" height="1145.882259pt" viewBox="0 0 1121.72843 1145.882259" xmlns="http://www.w3.org/2000/svg" version="1.1">
 <metadata>
  <rdf:RDF xmlns:dc="http://purl.org/dc/elements/1.1/" xmlns:cc="http://creativecommons.org/ns#" xmlns:rdf="http://www.w3.org/1999/02/22-rdf-syntax-ns#">
   <cc:Work>
    <dc:type rdf:resource="http://purl.org/dc/dcmitype/StillImage"/>
    <dc:date>2026-05-07T11:27:51.785350</dc:date>
    <dc:format>image/svg+xml</dc:format>
    <dc:creator>
     <cc:Agent>
      <dc:title>Matplotlib v3.10.9, https://matplotlib.org/</dc:title>
     </cc:Agent>
    </dc:creator>
   </cc:Work>
  </rdf:RDF>
 </metadata>
 <defs>
  <style type="text/css">*{stroke-linejoin: round; stroke-linecap: butt}</style>
 </defs>
 <g id="figure_1">
  <g id="patch_1">
   <path d="M 0 1145.882259 
L 1121.72843 1145.882259 
L 1121.72843 0 
L 0 0 
z
" style="fill: #ffffff"/>
  </g>
  <g id="axes_1">
   <g id="text_1">
    <!-- A2 -->
    <g style="fill: #1a5276; opacity: 0.18" transform="translate(534.40984 592.29167) scale(0.36 -0.36)">
     <defs>
      <path id="DejaVuSans-Bold-41" d="M 3419 850 
L 1538 850 
L 1241 0 
L 31 0 
L 1759 4666 
L 3194 4666 
L 4922 0 
L 3713 0 
L 3419 850 
z
M 1838 1716 
L 3116 1716 
L 2478 3572 
L 1838 1716 
z
" transform="scale(0.015625)"/>
      <path id="DejaVuSans-Bold-32" d="M 1844 884 
L 3897 884 
L 3897 0 
L 506 0 
L 506 884 
L 2209 2388 
Q 2438 2594 2547 2791 
Q 2656 2988 2656 3200 
Q 2656 3528 2436 3728 
Q 2216 3928 1850 3928 
Q 1569 3928 1234 3808 
Q 900 3688 519 3450 
L 519 4475 
Q 925 4609 1322 4679 
Q 1719 4750 2100 4750 
Q 2938 4750 3402 4381 
Q 3866 4013 3866 3353 
Q 3866 2972 3669 2642 
Q 3472 2313 2841 1759 
L 1844 884 
z
" transform="scale(0.015625)"/>
     </defs>
     <use xlink:href="#DejaVuSans-Bold-41"/>
     <use xlink:href="#DejaVuSans-Bold-32" transform="translate(77.392578 0)"/>
    </g>
   </g>
   <g id="LineCollection_1">
    <path d="M 1018.437946 637.91743 
L 991.845424 418.908307 
" clip-path="url(#pf74e6bf48b)" style="fill: none; stroke: #c0392b; stroke-opacity: 0.9; stroke-width: 2.8"/>
    <path d="M 671.173052 134.817376 
L 450.555378 134.817376 
" clip-path="url(#pf74e6bf48b)" style="fill: none; stroke: #c0392b; stroke-opacity: 0.9; stroke-width: 2.8"/>
    <path d="M 346.657289 990.495118 
L 560.864215 1043.292383 
" clip-path="url(#pf74e6bf48b)" style="fill: none; stroke: #c0392b; stroke-opacity: 0.9; stroke-width: 2.8"/>
    <path d="M 991.845424 418.908307 
L 866.520301 237.343521 
" clip-path="url(#pf74e6bf48b)" style="fill: none; stroke: #c0392b; stroke-opacity: 0.9; stroke-width: 2.8"/>
    <path d="M 940.205841 844.198539 
L 1018.437946 637.91743 
" clip-path="url(#pf74e6bf48b)" style="fill: none; stroke: #c0392b; stroke-opacity: 0.9; stroke-width: 2.8"/>
    <path d="M 255.208129 237.343521 
L 129.883006 418.908307 
" clip-path="url(#pf74e6bf48b)" style="fill: none; stroke: #c0392b; stroke-opacity: 0.9; stroke-width: 2.8"/>
    <path d="M 450.555378 134.817376 
L 255.208129 237.343521 
" clip-path="url(#pf74e6bf48b)" style="fill: none; stroke: #c0392b; stroke-opacity: 0.9; stroke-width: 2.8"/>
    <path d="M 560.864215 1043.292383 
L 775.07114 990.495118 
" clip-path="url(#pf74e6bf48b)" style="fill: none; stroke: #c0392b; stroke-opacity: 0.9; stroke-width: 2.8"/>
    <path d="M 775.07114 990.495118 
L 940.205841 844.198539 
" clip-path="url(#pf74e6bf48b)" style="fill: none; stroke: #c0392b; stroke-opacity: 0.9; stroke-width: 2.8"/>
    <path d="M 129.883006 418.908307 
L 103.290484 637.91743 
" clip-path="url(#pf74e6bf48b)" style="fill: none; stroke: #c0392b; stroke-opacity: 0.9; stroke-width: 2.8"/>
    <path d="M 103.290484 637.91743 
L 181.522589 844.198539 
" clip-path="url(#pf74e6bf48b)" style="fill: none; stroke: #c0392b; stroke-opacity: 0.9; stroke-width: 2.8"/>
    <path d="M 181.522589 844.198539 
L 346.657289 990.495118 
" clip-path="url(#pf74e6bf48b)" style="fill: none; stroke: #c0392b; stroke-opacity: 0.9; stroke-width: 2.8"/>
    <path d="M 866.520301 237.343521 
L 671.173052 134.817376 
" clip-path="url(#pf74e6bf48b)" style="fill: none; stroke: #c0392b; stroke-opacity: 0.9; stroke-width: 2.8"/>
   </g>
   <g id="text_2">
    <!-- 782 municipios de acceso -->
    <g style="fill: #1a5276; opacity: 0.55" transform="translate(476.588668 578.66653) scale(0.13 -0.13)">
     <defs>
      <path id="DejaVuSans-37" d="M 525 4666 
L 3525 4666 
L 3525 4397 
L 1831 0 
L 1172 0 
L 2766 4134 
L 525 4134 
L 525 4666 
z
" transform="scale(0.015625)"/>
      <path id="DejaVuSans-38" d="M 2034 2216 
Q 1584 2216 1326 1975 
Q 1069 1734 1069 1313 
Q 1069 891 1326 650 
Q 1584 409 2034 409 
Q 2484 409 2743 651 
Q 3003 894 3003 1313 
Q 3003 1734 2745 1975 
Q 2488 2216 2034 2216 
z
M 1403 2484 
Q 997 2584 770 2862 
Q 544 3141 544 3541 
Q 544 4100 942 4425 
Q 1341 4750 2034 4750 
Q 2731 4750 3128 4425 
Q 3525 4100 3525 3541 
Q 3525 3141 3298 2862 
Q 3072 2584 2669 2484 
Q 3125 2378 3379 2068 
Q 3634 1759 3634 1313 
Q 3634 634 3220 271 
Q 2806 -91 2034 -91 
Q 1263 -91 848 271 
Q 434 634 434 1313 
Q 434 1759 690 2068 
Q 947 2378 1403 2484 
z
M 1172 3481 
Q 1172 3119 1398 2916 
Q 1625 2713 2034 2713 
Q 2441 2713 2670 2916 
Q 2900 3119 2900 3481 
Q 2900 3844 2670 4047 
Q 2441 4250 2034 4250 
Q 1625 4250 1398 4047 
Q 1172 3844 1172 3481 
z
" transform="scale(0.015625)"/>
      <path id="DejaVuSans-32" d="M 1228 531 
L 3431 531 
L 3431 0 
L 469 0 
L 469 531 
Q 828 903 1448 1529 
Q 2069 2156 2228 2338 
Q 2531 2678 2651 2914 
Q 2772 3150 2772 3378 
Q 2772 3750 2511 3984 
Q 2250 4219 1831 4219 
Q 1534 4219 1204 4116 
Q 875 4013 500 3803 
L 500 4441 
Q 881 4594 1212 4672 
Q 1544 4750 1819 4750 
Q 2544 4750 2975 4387 
Q 3406 4025 3406 3419 
Q 3406 3131 3298 2873 
Q 3191 2616 2906 2266 
Q 2828 2175 2409 1742 
Q 1991 1309 1228 531 
z
" transform="scale(0.015625)"/>
      <path id="DejaVuSans-20" transform="scale(0.015625)"/>
      <path id="DejaVuSans-6d" d="M 3328 2828 
Q 3544 3216 3844 3400 
Q 4144 3584 4550 3584 
Q 5097 3584 5394 3201 
Q 5691 2819 5691 2113 
L 5691 0 
L 5113 0 
L 5113 2094 
Q 5113 2597 4934 2840 
Q 4756 3084 4391 3084 
Q 3944 3084 3684 2787 
Q 3425 2491 3425 1978 
L 3425 0 
L 2847 0 
L 2847 2094 
Q 2847 2600 2669 2842 
Q 2491 3084 2119 3084 
Q 1678 3084 1418 2786 
Q 1159 2488 1159 1978 
L 1159 0 
L 581 0 
L 581 3500 
L 1159 3500 
L 1159 2956 
Q 1356 3278 1631 3431 
Q 1906 3584 2284 3584 
Q 2666 3584 2933 3390 
Q 3200 3197 3328 2828 
z
" transform="scale(0.015625)"/>
      <path id="DejaVuSans-75" d="M 544 1381 
L 544 3500 
L 1119 3500 
L 1119 1403 
Q 1119 906 1312 657 
Q 1506 409 1894 409 
Q 2359 409 2629 706 
Q 2900 1003 2900 1516 
L 2900 3500 
L 3475 3500 
L 3475 0 
L 2900 0 
L 2900 538 
Q 2691 219 2414 64 
Q 2138 -91 1772 -91 
Q 1169 -91 856 284 
Q 544 659 544 1381 
z
M 1991 3584 
L 1991 3584 
z
" transform="scale(0.015625)"/>
      <path id="DejaVuSans-6e" d="M 3513 2113 
L 3513 0 
L 2938 0 
L 2938 2094 
Q 2938 2591 2744 2837 
Q 2550 3084 2163 3084 
Q 1697 3084 1428 2787 
Q 1159 2491 1159 1978 
L 1159 0 
L 581 0 
L 581 3500 
L 1159 3500 
L 1159 2956 
Q 1366 3272 1645 3428 
Q 1925 3584 2291 3584 
Q 2894 3584 3203 3211 
Q 3513 2838 3513 2113 
z
" transform="scale(0.015625)"/>
      <path id="DejaVuSans-69" d="M 603 3500 
L 1178 3500 
L 1178 0 
L 603 0 
L 603 3500 
z
M 603 4863 
L 1178 4863 
L 1178 4134 
L 603 4134 
L 603 4863 
z
" transform="scale(0.015625)"/>
      <path id="DejaVuSans-63" d="M 3122 3366 
L 3122 2828 
Q 2878 2963 2633 3030 
Q 2388 3097 2138 3097 
Q 1578 3097 1268 2742 
Q 959 2388 959 1747 
Q 959 1106 1268 751 
Q 1578 397 2138 397 
Q 2388 397 2633 464 
Q 2878 531 3122 666 
L 3122 134 
Q 2881 22 2623 -34 
Q 2366 -91 2075 -91 
Q 1284 -91 818 406 
Q 353 903 353 1747 
Q 353 2603 823 3093 
Q 1294 3584 2113 3584 
Q 2378 3584 2631 3529 
Q 2884 3475 3122 3366 
z
" transform="scale(0.015625)"/>
      <path id="DejaVuSans-70" d="M 1159 525 
L 1159 -1331 
L 581 -1331 
L 581 3500 
L 1159 3500 
L 1159 2969 
Q 1341 3281 1617 3432 
Q 1894 3584 2278 3584 
Q 2916 3584 3314 3078 
Q 3713 2572 3713 1747 
Q 3713 922 3314 415 
Q 2916 -91 2278 -91 
Q 1894 -91 1617 61 
Q 1341 213 1159 525 
z
M 3116 1747 
Q 3116 2381 2855 2742 
Q 2594 3103 2138 3103 
Q 1681 3103 1420 2742 
Q 1159 2381 1159 1747 
Q 1159 1113 1420 752 
Q 1681 391 2138 391 
Q 2594 391 2855 752 
Q 3116 1113 3116 1747 
z
" transform="scale(0.015625)"/>
      <path id="DejaVuSans-6f" d="M 1959 3097 
Q 1497 3097 1228 2736 
Q 959 2375 959 1747 
Q 959 1119 1226 758 
Q 1494 397 1959 397 
Q 2419 397 2687 759 
Q 2956 1122 2956 1747 
Q 2956 2369 2687 2733 
Q 2419 3097 1959 3097 
z
M 1959 3584 
Q 2709 3584 3137 3096 
Q 3566 2609 3566 1747 
Q 3566 888 3137 398 
Q 2709 -91 1959 -91 
Q 1206 -91 779 398 
Q 353 888 353 1747 
Q 353 2609 779 3096 
Q 1206 3584 1959 3584 
z
" transform="scale(0.015625)"/>
      <path id="DejaVuSans-73" d="M 2834 3397 
L 2834 2853 
Q 2591 2978 2328 3040 
Q 2066 3103 1784 3103 
Q 1356 3103 1142 2972 
Q 928 2841 928 2578 
Q 928 2378 1081 2264 
Q 1234 2150 1697 2047 
L 1894 2003 
Q 2506 1872 2764 1633 
Q 3022 1394 3022 966 
Q 3022 478 2636 193 
Q 2250 -91 1575 -91 
Q 1294 -91 989 -36 
Q 684 19 347 128 
L 347 722 
Q 666 556 975 473 
Q 1284 391 1588 391 
Q 1994 391 2212 530 
Q 2431 669 2431 922 
Q 2431 1156 2273 1281 
Q 2116 1406 1581 1522 
L 1381 1569 
Q 847 1681 609 1914 
Q 372 2147 372 2553 
Q 372 3047 722 3315 
Q 1072 3584 1716 3584 
Q 2034 3584 2315 3537 
Q 2597 3491 2834 3397 
z
" transform="scale(0.015625)"/>
      <path id="DejaVuSans-64" d="M 2906 2969 
L 2906 4863 
L 3481 4863 
L 3481 0 
L 2906 0 
L 2906 525 
Q 2725 213 2448 61 
Q 2172 -91 1784 -91 
Q 1150 -91 751 415 
Q 353 922 353 1747 
Q 353 2572 751 3078 
Q 1150 3584 1784 3584 
Q 2172 3584 2448 3432 
Q 2725 3281 2906 2969 
z
M 947 1747 
Q 947 1113 1208 752 
Q 1469 391 1925 391 
Q 2381 391 2643 752 
Q 2906 1113 2906 1747 
Q 2906 2381 2643 2742 
Q 2381 3103 1925 3103 
Q 1469 3103 1208 2742 
Q 947 2381 947 1747 
z
" transform="scale(0.015625)"/>
      <path id="DejaVuSans-65" d="M 3597 1894 
L 3597 1613 
L 953 1613 
Q 991 1019 1311 708 
Q 1631 397 2203 397 
Q 2534 397 2845 478 
Q 3156 559 3463 722 
L 3463 178 
Q 3153 47 2828 -22 
Q 2503 -91 2169 -91 
Q 1331 -91 842 396 
Q 353 884 353 1716 
Q 353 2575 817 3079 
Q 1281 3584 2069 3584 
Q 2775 3584 3186 3129 
Q 3597 2675 3597 1894 
z
M 3022 2063 
Q 3016 2534 2758 2815 
Q 2500 3097 2075 3097 
Q 1594 3097 1305 2825 
Q 1016 2553 972 2059 
L 3022 2063 
z
" transform="scale(0.015625)"/>
      <path id="DejaVuSans-61" d="M 2194 1759 
Q 1497 1759 1228 1600 
Q 959 1441 959 1056 
Q 959 750 1161 570 
Q 1363 391 1709 391 
Q 2188 391 2477 730 
Q 2766 1069 2766 1631 
L 2766 1759 
L 2194 1759 
z
M 3341 1997 
L 3341 0 
L 2766 0 
L 2766 531 
Q 2569 213 2275 61 
Q 1981 -91 1556 -91 
Q 1019 -91 701 211 
Q 384 513 384 1019 
Q 384 1609 779 1909 
Q 1175 2209 1959 2209 
L 2766 2209 
L 2766 2266 
Q 2766 2663 2505 2880 
Q 2244 3097 1772 3097 
Q 1472 3097 1187 3025 
Q 903 2953 641 2809 
L 641 3341 
Q 956 3463 1253 3523 
Q 1550 3584 1831 3584 
Q 2591 3584 2966 3190 
Q 3341 2797 3341 1997 
z
" transform="scale(0.015625)"/>
     </defs>
     <use xlink:href="#DejaVuSans-37"/>
     <use xlink:href="#DejaVuSans-38" transform="translate(63.623047 0)"/>
     <use xlink:href="#DejaVuSans-32" transform="translate(127.246094 0)"/>
     <use xlink:href="#DejaVuSans-20" transform="translate(190.869141 0)"/>
     <use xlink:href="#DejaVuSans-6d" transform="translate(222.65625 0)"/>
     <use xlink:href="#DejaVuSans-75" transform="translate(320.068359 0)"/>
     <use xlink:href="#DejaVuSans-6e" transform="translate(383.447266 0)"/>
     <use xlink:href="#DejaVuSans-69" transform="translate(446.826172 0)"/>
     <use xlink:href="#DejaVuSans-63" transform="translate(474.609375 0)"/>
     <use xlink:href="#DejaVuSans-69" transform="translate(529.589844 0)"/>
     <use xlink:href="#DejaVuSans-70" transform="translate(557.373047 0)"/>
     <use xlink:href="#DejaVuSans-69" transform="translate(620.849609 0)"/>
     <use xlink:href="#DejaVuSans-6f" transform="translate(648.632812 0)"/>
     <use xlink:href="#DejaVuSans-73" transform="translate(709.814453 0)"/>
     <use xlink:href="#DejaVuSans-20" transform="translate(761.914062 0)"/>
     <use xlink:href="#DejaVuSans-64" transform="translate(793.701172 0)"/>
     <use xlink:href="#DejaVuSans-65" transform="translate(857.177734 0)"/>
     <use xlink:href="#DejaVuSans-20" transform="translate(918.701172 0)"/>
     <use xlink:href="#DejaVuSans-61" transform="translate(950.488281 0)"/>
     <use xlink:href="#DejaVuSans-63" transform="translate(1011.767578 0)"/>
     <use xlink:href="#DejaVuSans-63" transform="translate(1066.748047 0)"/>
     <use xlink:href="#DejaVuSans-65" transform="translate(1121.728516 0)"/>
     <use xlink:href="#DejaVuSans-73" transform="translate(1183.251953 0)"/>
     <use xlink:href="#DejaVuSans-6f" transform="translate(1235.351562 0)"/>
    </g>
    <!-- (no representados) -->
    <g style="fill: #1a5276; opacity: 0.55" transform="translate(498.926324 593.223686) scale(0.13 -0.13)">
     <defs>
      <path id="DejaVuSans-28" d="M 1984 4856 
Q 1566 4138 1362 3434 
Q 1159 2731 1159 2009 
Q 1159 1288 1364 580 
Q 1569 -128 1984 -844 
L 1484 -844 
Q 1016 -109 783 600 
Q 550 1309 550 2009 
Q 550 2706 781 3412 
Q 1013 4119 1484 4856 
L 1984 4856 
z
" transform="scale(0.015625)"/>
      <path id="DejaVuSans-72" d="M 2631 2963 
Q 2534 3019 2420 3045 
Q 2306 3072 2169 3072 
Q 1681 3072 1420 2755 
Q 1159 2438 1159 1844 
L 1159 0 
L 581 0 
L 581 3500 
L 1159 3500 
L 1159 2956 
Q 1341 3275 1631 3429 
Q 1922 3584 2338 3584 
Q 2397 3584 2469 3576 
Q 2541 3569 2628 3553 
L 2631 2963 
z
" transform="scale(0.015625)"/>
      <path id="DejaVuSans-74" d="M 1172 4494 
L 1172 3500 
L 2356 3500 
L 2356 3053 
L 1172 3053 
L 1172 1153 
Q 1172 725 1289 603 
Q 1406 481 1766 481 
L 2356 481 
L 2356 0 
L 1766 0 
Q 1100 0 847 248 
Q 594 497 594 1153 
L 594 3053 
L 172 3053 
L 172 3500 
L 594 3500 
L 594 4494 
L 1172 4494 
z
" transform="scale(0.015625)"/>
      <path id="DejaVuSans-29" d="M 513 4856 
L 1013 4856 
Q 1481 4119 1714 3412 
Q 1947 2706 1947 2009 
Q 1947 1309 1714 600 
Q 1481 -109 1013 -844 
L 513 -844 
Q 928 -128 1133 580 
Q 1338 1288 1338 2009 
Q 1338 2731 1133 3434 
Q 928 4138 513 4856 
z
" transform="scale(0.015625)"/>
     </defs>
     <use xlink:href="#DejaVuSans-28"/>
     <use xlink:href="#DejaVuSans-6e" transform="translate(39.013672 0)"/>
     <use xlink:href="#DejaVuSans-6f" transform="translate(102.392578 0)"/>
     <use xlink:href="#DejaVuSans-20" transform="translate(163.574219 0)"/>
     <use xlink:href="#DejaVuSans-72" transform="translate(195.361328 0)"/>
     <use xlink:href="#DejaVuSans-65" transform="translate(234.224609 0)"/>
     <use xlink:href="#DejaVuSans-70" transform="translate(295.748047 0)"/>
     <use xlink:href="#DejaVuSans-72" transform="translate(359.224609 0)"/>
     <use xlink:href="#DejaVuSans-65" transform="translate(398.087891 0)"/>
     <use xlink:href="#DejaVuSans-73" transform="translate(459.611328 0)"/>
     <use xlink:href="#DejaVuSans-65" transform="translate(511.710938 0)"/>
     <use xlink:href="#DejaVuSans-6e" transform="translate(573.234375 0)"/>
     <use xlink:href="#DejaVuSans-74" transform="translate(636.613281 0)"/>
     <use xlink:href="#DejaVuSans-61" transform="translate(675.822266 0)"/>
     <use xlink:href="#DejaVuSans-64" transform="translate(737.101562 0)"/>
     <use xlink:href="#DejaVuSans-6f" transform="translate(800.578125 0)"/>
     <use xlink:href="#DejaVuSans-73" transform="translate(861.759766 0)"/>
     <use xlink:href="#DejaVuSans-29" transform="translate(913.859375 0)"/>
    </g>
   </g>
   <g id="PathCollection_1">
    <defs>
     <path id="m00884a8c98" d="M 0 11.61895 
C 3.081382 11.61895 6.036973 10.394704 8.215838 8.215838 
C 10.394704 6.036973 11.61895 3.081382 11.61895 0 
C 11.61895 -3.081382 10.394704 -6.036973 8.215838 -8.215838 
C 6.036973 -10.394704 3.081382 -11.61895 0 -11.61895 
C -3.081382 -11.61895 -6.036973 -10.394704 -8.215838 -8.215838 
C -10.394704 -6.036973 -11.61895 -3.081382 -11.61895 0 
C -11.61895 3.081382 -10.394704 6.036973 -8.215838 8.215838 
C -6.036973 10.394704 -3.081382 11.61895 0 11.61895 
z
" style="stroke: #000000; stroke-width: 0.9"/>
    </defs>
    <g clip-path="url(#pf74e6bf48b)">
     <use xlink:href="#m00884a8c98" x="560.864215" y="1043.292383" style="fill: #1a5276; stroke: #000000; stroke-width: 0.9"/>
     <use xlink:href="#m00884a8c98" x="775.07114" y="990.495118" style="fill: #1a5276; stroke: #000000; stroke-width: 0.9"/>
     <use xlink:href="#m00884a8c98" x="940.205841" y="844.198539" style="fill: #1a5276; stroke: #000000; stroke-width: 0.9"/>
     <use xlink:href="#m00884a8c98" x="1018.437946" y="637.91743" style="fill: #1a5276; stroke: #000000; stroke-width: 0.9"/>
     <use xlink:href="#m00884a8c98" x="991.845424" y="418.908307" style="fill: #1a5276; stroke: #000000; stroke-width: 0.9"/>
     <use xlink:href="#m00884a8c98" x="866.520301" y="237.343521" style="fill: #1a5276; stroke: #000000; stroke-width: 0.9"/>
     <use xlink:href="#m00884a8c98" x="671.173052" y="134.817376" style="fill: #1a5276; stroke: #000000; stroke-width: 0.9"/>
     <use xlink:href="#m00884a8c98" x="450.555378" y="134.817376" style="fill: #1a5276; stroke: #000000; stroke-width: 0.9"/>
     <use xlink:href="#m00884a8c98" x="255.208129" y="237.343521" style="fill: #1a5276; stroke: #000000; stroke-width: 0.9"/>
     <use xlink:href="#m00884a8c98" x="129.883006" y="418.908307" style="fill: #1a5276; stroke: #000000; stroke-width: 0.9"/>
     <use xlink:href="#m00884a8c98" x="103.290484" y="637.91743" style="fill: #1a5276; stroke: #000000; stroke-width: 0.9"/>
     <use xlink:href="#m00884a8c98" x="181.522589" y="844.198539" style="fill: #1a5276; stroke: #000000; stroke-width: 0.9"/>
    </g>
   </g>
   <g id="PathCollection_2">
    <defs>
     <path id="m08bf875f41" d="M 0 16.583124 
C 4.397896 16.583124 8.616257 14.835821 11.726039 11.726039 
C 14.835821 8.616257 16.583124 4.397896 16.583124 0 
C 16.583124 -4.397896 14.835821 -8.616257 11.726039 -11.726039 
C 8.616257 -14.835821 4.397896 -16.583124 0 -16.583124 
C -4.397896 -16.583124 -8.616257 -14.835821 -11.726039 -11.726039 
C -14.835821 -8.616257 -16.583124 -4.397896 -16.583124 0 
C -16.583124 4.397896 -14.835821 8.616257 -11.726039 11.726039 
C -8.616257 14.835821 -4.397896 16.583124 0 16.583124 
z
" style="stroke: #000000; stroke-width: 1.4"/>
    </defs>
    <g clip-path="url(#pf74e6bf48b)">
     <use xlink:href="#m08bf875f41" x="346.657289" y="990.495118" style="fill: #d35400; stroke: #000000; stroke-width: 1.4"/>
    </g>
   </g>
   <g id="text_3">
    <g id="patch_2">
     <path d="M 545.12734 1051.365352 
L 576.60109 1051.365352 
Q 579.35109 1051.365352 579.35109 1048.615352 
L 579.35109 1037.969414 
Q 579.35109 1035.219414 576.60109 1035.219414 
L 545.12734 1035.219414 
Q 542.37734 1035.219414 542.37734 1037.969414 
L 542.37734 1048.615352 
Q 542.37734 1051.365352 545.12734 1051.365352 
z
" clip-path="url(#pf74e6bf48b)" style="fill: #1a5276; opacity: 0.92; stroke: #1a5276; stroke-linejoin: miter"/>
    </g>
    <g clip-path="url(#pf74e6bf48b)">
     <!-- A800 -->
     <g style="fill: #ffffff" transform="translate(545.12734 1046.327695) scale(0.11 -0.11)">
      <defs>
       <path id="DejaVuSans-Bold-38" d="M 2228 2088 
Q 1891 2088 1709 1903 
Q 1528 1719 1528 1375 
Q 1528 1031 1709 848 
Q 1891 666 2228 666 
Q 2563 666 2741 848 
Q 2919 1031 2919 1375 
Q 2919 1722 2741 1905 
Q 2563 2088 2228 2088 
z
M 1350 2484 
Q 925 2613 709 2878 
Q 494 3144 494 3541 
Q 494 4131 934 4440 
Q 1375 4750 2228 4750 
Q 3075 4750 3515 4442 
Q 3956 4134 3956 3541 
Q 3956 3144 3739 2878 
Q 3522 2613 3097 2484 
Q 3572 2353 3814 2058 
Q 4056 1763 4056 1313 
Q 4056 619 3595 264 
Q 3134 -91 2228 -91 
Q 1319 -91 855 264 
Q 391 619 391 1313 
Q 391 1763 633 2058 
Q 875 2353 1350 2484 
z
M 1631 3419 
Q 1631 3141 1786 2991 
Q 1941 2841 2228 2841 
Q 2509 2841 2662 2991 
Q 2816 3141 2816 3419 
Q 2816 3697 2662 3845 
Q 2509 3994 2228 3994 
Q 1941 3994 1786 3844 
Q 1631 3694 1631 3419 
z
" transform="scale(0.015625)"/>
       <path id="DejaVuSans-Bold-30" d="M 2944 2338 
Q 2944 3213 2780 3570 
Q 2616 3928 2228 3928 
Q 1841 3928 1675 3570 
Q 1509 3213 1509 2338 
Q 1509 1453 1675 1090 
Q 1841 728 2228 728 
Q 2613 728 2778 1090 
Q 2944 1453 2944 2338 
z
M 4147 2328 
Q 4147 1169 3647 539 
Q 3147 -91 2228 -91 
Q 1306 -91 806 539 
Q 306 1169 306 2328 
Q 306 3491 806 4120 
Q 1306 4750 2228 4750 
Q 3147 4750 3647 4120 
Q 4147 3491 4147 2328 
z
" transform="scale(0.015625)"/>
      </defs>
      <use xlink:href="#DejaVuSans-Bold-41"/>
      <use xlink:href="#DejaVuSans-Bold-38" transform="translate(77.392578 0)"/>
      <use xlink:href="#DejaVuSans-Bold-30" transform="translate(146.972656 0)"/>
      <use xlink:href="#DejaVuSans-Bold-30" transform="translate(216.552734 0)"/>
     </g>
    </g>
   </g>
   <g id="text_4">
    <g id="patch_3">
     <path d="M 759.334265 998.568086 
L 790.808015 998.568086 
Q 793.558015 998.568086 793.558015 995.818086 
L 793.558015 985.172149 
Q 793.558015 982.422149 790.808015 982.422149 
L 759.334265 982.422149 
Q 756.584265 982.422149 756.584265 985.172149 
L 756.584265 995.818086 
Q 756.584265 998.568086 759.334265 998.568086 
z
" clip-path="url(#pf74e6bf48b)" style="fill: #1a5276; opacity: 0.92; stroke: #1a5276; stroke-linejoin: miter"/>
    </g>
    <g clip-path="url(#pf74e6bf48b)">
     <!-- A801 -->
     <g style="fill: #ffffff" transform="translate(759.334265 993.53043) scale(0.11 -0.11)">
      <defs>
       <path id="DejaVuSans-Bold-31" d="M 750 831 
L 1813 831 
L 1813 3847 
L 722 3622 
L 722 4441 
L 1806 4666 
L 2950 4666 
L 2950 831 
L 4013 831 
L 4013 0 
L 750 0 
L 750 831 
z
" transform="scale(0.015625)"/>
      </defs>
      <use xlink:href="#DejaVuSans-Bold-41"/>
      <use xlink:href="#DejaVuSans-Bold-38" transform="translate(77.392578 0)"/>
      <use xlink:href="#DejaVuSans-Bold-30" transform="translate(146.972656 0)"/>
      <use xlink:href="#DejaVuSans-Bold-31" transform="translate(216.552734 0)"/>
     </g>
    </g>
   </g>
   <g id="text_5">
    <g id="patch_4">
     <path d="M 924.468966 852.271508 
L 955.942716 852.271508 
Q 958.692716 852.271508 958.692716 849.521508 
L 958.692716 838.87557 
Q 958.692716 836.12557 955.942716 836.12557 
L 924.468966 836.12557 
Q 921.718966 836.12557 921.718966 838.87557 
L 921.718966 849.521508 
Q 921.718966 852.271508 924.468966 852.271508 
z
" clip-path="url(#pf74e6bf48b)" style="fill: #1a5276; opacity: 0.92; stroke: #1a5276; stroke-linejoin: miter"/>
    </g>
    <g clip-path="url(#pf74e6bf48b)">
     <!-- A802 -->
     <g style="fill: #ffffff" transform="translate(924.468966 847.233852) scale(0.11 -0.11)">
      <use xlink:href="#DejaVuSans-Bold-41"/>
      <use xlink:href="#DejaVuSans-Bold-38" transform="translate(77.392578 0)"/>
      <use xlink:href="#DejaVuSans-Bold-30" transform="translate(146.972656 0)"/>
      <use xlink:href="#DejaVuSans-Bold-32" transform="translate(216.552734 0)"/>
     </g>
    </g>
   </g>
   <g id="text_6">
    <g id="patch_5">
     <path d="M 1002.701071 645.990399 
L 1034.174821 645.990399 
Q 1036.924821 645.990399 1036.924821 643.240399 
L 1036.924821 632.594462 
Q 1036.924821 629.844462 1034.174821 629.844462 
L 1002.701071 629.844462 
Q 999.951071 629.844462 999.951071 632.594462 
L 999.951071 643.240399 
Q 999.951071 645.990399 1002.701071 645.990399 
z
" clip-path="url(#pf74e6bf48b)" style="fill: #1a5276; opacity: 0.92; stroke: #1a5276; stroke-linejoin: miter"/>
    </g>
    <g clip-path="url(#pf74e6bf48b)">
     <!-- A803 -->
     <g style="fill: #ffffff" transform="translate(1002.701071 640.952743) scale(0.11 -0.11)">
      <defs>
       <path id="DejaVuSans-Bold-33" d="M 2981 2516 
Q 3453 2394 3698 2092 
Q 3944 1791 3944 1325 
Q 3944 631 3412 270 
Q 2881 -91 1863 -91 
Q 1503 -91 1142 -33 
Q 781 25 428 141 
L 428 1069 
Q 766 900 1098 814 
Q 1431 728 1753 728 
Q 2231 728 2486 893 
Q 2741 1059 2741 1369 
Q 2741 1688 2480 1852 
Q 2219 2016 1709 2016 
L 1228 2016 
L 1228 2791 
L 1734 2791 
Q 2188 2791 2409 2933 
Q 2631 3075 2631 3366 
Q 2631 3634 2415 3781 
Q 2200 3928 1806 3928 
Q 1516 3928 1219 3862 
Q 922 3797 628 3669 
L 628 4550 
Q 984 4650 1334 4700 
Q 1684 4750 2022 4750 
Q 2931 4750 3382 4451 
Q 3834 4153 3834 3553 
Q 3834 3144 3618 2883 
Q 3403 2622 2981 2516 
z
" transform="scale(0.015625)"/>
      </defs>
      <use xlink:href="#DejaVuSans-Bold-41"/>
      <use xlink:href="#DejaVuSans-Bold-38" transform="translate(77.392578 0)"/>
      <use xlink:href="#DejaVuSans-Bold-30" transform="translate(146.972656 0)"/>
      <use xlink:href="#DejaVuSans-Bold-33" transform="translate(216.552734 0)"/>
     </g>
    </g>
   </g>
   <g id="text_7">
    <g id="patch_6">
     <path d="M 976.108549 426.981276 
L 1007.582299 426.981276 
Q 1010.332299 426.981276 1010.332299 424.231276 
L 1010.332299 413.585339 
Q 1010.332299 410.835339 1007.582299 410.835339 
L 976.108549 410.835339 
Q 973.358549 410.835339 973.358549 413.585339 
L 973.358549 424.231276 
Q 973.358549 426.981276 976.108549 426.981276 
z
" clip-path="url(#pf74e6bf48b)" style="fill: #1a5276; opacity: 0.92; stroke: #1a5276; stroke-linejoin: miter"/>
    </g>
    <g clip-path="url(#pf74e6bf48b)">
     <!-- A804 -->
     <g style="fill: #ffffff" transform="translate(976.108549 421.94362) scale(0.11 -0.11)">
      <defs>
       <path id="DejaVuSans-Bold-34" d="M 2356 3675 
L 1038 1722 
L 2356 1722 
L 2356 3675 
z
M 2156 4666 
L 3494 4666 
L 3494 1722 
L 4159 1722 
L 4159 850 
L 3494 850 
L 3494 0 
L 2356 0 
L 2356 850 
L 288 850 
L 288 1881 
L 2156 4666 
z
" transform="scale(0.015625)"/>
      </defs>
      <use xlink:href="#DejaVuSans-Bold-41"/>
      <use xlink:href="#DejaVuSans-Bold-38" transform="translate(77.392578 0)"/>
      <use xlink:href="#DejaVuSans-Bold-30" transform="translate(146.972656 0)"/>
      <use xlink:href="#DejaVuSans-Bold-34" transform="translate(216.552734 0)"/>
     </g>
    </g>
   </g>
   <g id="text_8">
    <g id="patch_7">
     <path d="M 850.783426 245.41649 
L 882.257176 245.41649 
Q 885.007176 245.41649 885.007176 242.66649 
L 885.007176 232.020552 
Q 885.007176 229.270552 882.257176 229.270552 
L 850.783426 229.270552 
Q 848.033426 229.270552 848.033426 232.020552 
L 848.033426 242.66649 
Q 848.033426 245.41649 850.783426 245.41649 
z
" clip-path="url(#pf74e6bf48b)" style="fill: #1a5276; opacity: 0.92; stroke: #1a5276; stroke-linejoin: miter"/>
    </g>
    <g clip-path="url(#pf74e6bf48b)">
     <!-- A805 -->
     <g style="fill: #ffffff" transform="translate(850.783426 240.378834) scale(0.11 -0.11)">
      <defs>
       <path id="DejaVuSans-Bold-35" d="M 678 4666 
L 3669 4666 
L 3669 3781 
L 1638 3781 
L 1638 3059 
Q 1775 3097 1914 3117 
Q 2053 3138 2203 3138 
Q 3056 3138 3531 2711 
Q 4006 2284 4006 1522 
Q 4006 766 3489 337 
Q 2972 -91 2053 -91 
Q 1656 -91 1267 -14 
Q 878 63 494 219 
L 494 1166 
Q 875 947 1217 837 
Q 1559 728 1863 728 
Q 2300 728 2551 942 
Q 2803 1156 2803 1522 
Q 2803 1891 2551 2103 
Q 2300 2316 1863 2316 
Q 1603 2316 1309 2248 
Q 1016 2181 678 2041 
L 678 4666 
z
" transform="scale(0.015625)"/>
      </defs>
      <use xlink:href="#DejaVuSans-Bold-41"/>
      <use xlink:href="#DejaVuSans-Bold-38" transform="translate(77.392578 0)"/>
      <use xlink:href="#DejaVuSans-Bold-30" transform="translate(146.972656 0)"/>
      <use xlink:href="#DejaVuSans-Bold-35" transform="translate(216.552734 0)"/>
     </g>
    </g>
   </g>
   <g id="text_9">
    <g id="patch_8">
     <path d="M 655.436177 142.890344 
L 686.909927 142.890344 
Q 689.659927 142.890344 689.659927 140.140344 
L 689.659927 129.494407 
Q 689.659927 126.744407 686.909927 126.744407 
L 655.436177 126.744407 
Q 652.686177 126.744407 652.686177 129.494407 
L 652.686177 140.140344 
Q 652.686177 142.890344 655.436177 142.890344 
z
" clip-path="url(#pf74e6bf48b)" style="fill: #1a5276; opacity: 0.92; stroke: #1a5276; stroke-linejoin: miter"/>
    </g>
    <g clip-path="url(#pf74e6bf48b)">
     <!-- A806 -->
     <g style="fill: #ffffff" transform="translate(655.436177 137.852688) scale(0.11 -0.11)">
      <defs>
       <path id="DejaVuSans-Bold-36" d="M 2316 2303 
Q 2000 2303 1842 2098 
Q 1684 1894 1684 1484 
Q 1684 1075 1842 870 
Q 2000 666 2316 666 
Q 2634 666 2792 870 
Q 2950 1075 2950 1484 
Q 2950 1894 2792 2098 
Q 2634 2303 2316 2303 
z
M 3803 4544 
L 3803 3681 
Q 3506 3822 3243 3889 
Q 2981 3956 2731 3956 
Q 2194 3956 1894 3657 
Q 1594 3359 1544 2772 
Q 1750 2925 1990 3001 
Q 2231 3078 2516 3078 
Q 3231 3078 3670 2659 
Q 4109 2241 4109 1563 
Q 4109 813 3618 361 
Q 3128 -91 2303 -91 
Q 1394 -91 895 523 
Q 397 1138 397 2266 
Q 397 3422 980 4083 
Q 1563 4744 2578 4744 
Q 2900 4744 3203 4694 
Q 3506 4644 3803 4544 
z
" transform="scale(0.015625)"/>
      </defs>
      <use xlink:href="#DejaVuSans-Bold-41"/>
      <use xlink:href="#DejaVuSans-Bold-38" transform="translate(77.392578 0)"/>
      <use xlink:href="#DejaVuSans-Bold-30" transform="translate(146.972656 0)"/>
      <use xlink:href="#DejaVuSans-Bold-36" transform="translate(216.552734 0)"/>
     </g>
    </g>
   </g>
   <g id="text_10">
    <g id="patch_9">
     <path d="M 434.818503 142.890344 
L 466.292253 142.890344 
Q 469.042253 142.890344 469.042253 140.140344 
L 469.042253 129.494407 
Q 469.042253 126.744407 466.292253 126.744407 
L 434.818503 126.744407 
Q 432.068503 126.744407 432.068503 129.494407 
L 432.068503 140.140344 
Q 432.068503 142.890344 434.818503 142.890344 
z
" clip-path="url(#pf74e6bf48b)" style="fill: #1a5276; opacity: 0.92; stroke: #1a5276; stroke-linejoin: miter"/>
    </g>
    <g clip-path="url(#pf74e6bf48b)">
     <!-- A807 -->
     <g style="fill: #ffffff" transform="translate(434.818503 137.852688) scale(0.11 -0.11)">
      <defs>
       <path id="DejaVuSans-Bold-37" d="M 428 4666 
L 3944 4666 
L 3944 3988 
L 2125 0 
L 953 0 
L 2675 3781 
L 428 3781 
L 428 4666 
z
" transform="scale(0.015625)"/>
      </defs>
      <use xlink:href="#DejaVuSans-Bold-41"/>
      <use xlink:href="#DejaVuSans-Bold-38" transform="translate(77.392578 0)"/>
      <use xlink:href="#DejaVuSans-Bold-30" transform="translate(146.972656 0)"/>
      <use xlink:href="#DejaVuSans-Bold-37" transform="translate(216.552734 0)"/>
     </g>
    </g>
   </g>
   <g id="text_11">
    <g id="patch_10">
     <path d="M 239.471254 245.41649 
L 270.945004 245.41649 
Q 273.695004 245.41649 273.695004 242.66649 
L 273.695004 232.020552 
Q 273.695004 229.270552 270.945004 229.270552 
L 239.471254 229.270552 
Q 236.721254 229.270552 236.721254 232.020552 
L 236.721254 242.66649 
Q 236.721254 245.41649 239.471254 245.41649 
z
" clip-path="url(#pf74e6bf48b)" style="fill: #1a5276; opacity: 0.92; stroke: #1a5276; stroke-linejoin: miter"/>
    </g>
    <g clip-path="url(#pf74e6bf48b)">
     <!-- A876 -->
     <g style="fill: #ffffff" transform="translate(239.471254 240.378834) scale(0.11 -0.11)">
      <use xlink:href="#DejaVuSans-Bold-41"/>
      <use xlink:href="#DejaVuSans-Bold-38" transform="translate(77.392578 0)"/>
      <use xlink:href="#DejaVuSans-Bold-37" transform="translate(146.972656 0)"/>
      <use xlink:href="#DejaVuSans-Bold-36" transform="translate(216.552734 0)"/>
     </g>
    </g>
   </g>
   <g id="text_12">
    <g id="patch_11">
     <path d="M 114.146131 426.981276 
L 145.619881 426.981276 
Q 148.369881 426.981276 148.369881 424.231276 
L 148.369881 413.585339 
Q 148.369881 410.835339 145.619881 410.835339 
L 114.146131 410.835339 
Q 111.396131 410.835339 111.396131 413.585339 
L 111.396131 424.231276 
Q 111.396131 426.981276 114.146131 426.981276 
z
" clip-path="url(#pf74e6bf48b)" style="fill: #1a5276; opacity: 0.92; stroke: #1a5276; stroke-linejoin: miter"/>
    </g>
    <g clip-path="url(#pf74e6bf48b)">
     <!-- A877 -->
     <g style="fill: #ffffff" transform="translate(114.146131 421.94362) scale(0.11 -0.11)">
      <use xlink:href="#DejaVuSans-Bold-41"/>
      <use xlink:href="#DejaVuSans-Bold-38" transform="translate(77.392578 0)"/>
      <use xlink:href="#DejaVuSans-Bold-37" transform="translate(146.972656 0)"/>
      <use xlink:href="#DejaVuSans-Bold-37" transform="translate(216.552734 0)"/>
     </g>
    </g>
   </g>
   <g id="text_13">
    <g id="patch_12">
     <path d="M 87.553609 645.990399 
L 119.027359 645.990399 
Q 121.777359 645.990399 121.777359 643.240399 
L 121.777359 632.594462 
Q 121.777359 629.844462 119.027359 629.844462 
L 87.553609 629.844462 
Q 84.803609 629.844462 84.803609 632.594462 
L 84.803609 643.240399 
Q 84.803609 645.990399 87.553609 645.990399 
z
" clip-path="url(#pf74e6bf48b)" style="fill: #1a5276; opacity: 0.92; stroke: #1a5276; stroke-linejoin: miter"/>
    </g>
    <g clip-path="url(#pf74e6bf48b)">
     <!-- A878 -->
     <g style="fill: #ffffff" transform="translate(87.553609 640.952743) scale(0.11 -0.11)">
      <use xlink:href="#DejaVuSans-Bold-41"/>
      <use xlink:href="#DejaVuSans-Bold-38" transform="translate(77.392578 0)"/>
      <use xlink:href="#DejaVuSans-Bold-37" transform="translate(146.972656 0)"/>
      <use xlink:href="#DejaVuSans-Bold-38" transform="translate(216.552734 0)"/>
     </g>
    </g>
   </g>
   <g id="text_14">
    <g id="patch_13">
     <path d="M 165.785714 852.271508 
L 197.259464 852.271508 
Q 200.009464 852.271508 200.009464 849.521508 
L 200.009464 838.87557 
Q 200.009464 836.12557 197.259464 836.12557 
L 165.785714 836.12557 
Q 163.035714 836.12557 163.035714 838.87557 
L 163.035714 849.521508 
Q 163.035714 852.271508 165.785714 852.271508 
z
" clip-path="url(#pf74e6bf48b)" style="fill: #1a5276; opacity: 0.92; stroke: #1a5276; stroke-linejoin: miter"/>
    </g>
    <g clip-path="url(#pf74e6bf48b)">
     <!-- A879 -->
     <g style="fill: #ffffff" transform="translate(165.785714 847.233852) scale(0.11 -0.11)">
      <defs>
       <path id="DejaVuSans-Bold-39" d="M 641 103 
L 641 966 
Q 928 831 1190 764 
Q 1453 697 1709 697 
Q 2247 697 2547 995 
Q 2847 1294 2900 1881 
Q 2688 1725 2447 1647 
Q 2206 1569 1925 1569 
Q 1209 1569 770 1986 
Q 331 2403 331 3084 
Q 331 3838 820 4291 
Q 1309 4744 2131 4744 
Q 3044 4744 3544 4128 
Q 4044 3513 4044 2388 
Q 4044 1231 3459 570 
Q 2875 -91 1856 -91 
Q 1528 -91 1228 -42 
Q 928 6 641 103 
z
M 2125 2350 
Q 2441 2350 2600 2554 
Q 2759 2759 2759 3169 
Q 2759 3575 2600 3781 
Q 2441 3988 2125 3988 
Q 1809 3988 1650 3781 
Q 1491 3575 1491 3169 
Q 1491 2759 1650 2554 
Q 1809 2350 2125 2350 
z
" transform="scale(0.015625)"/>
      </defs>
      <use xlink:href="#DejaVuSans-Bold-41"/>
      <use xlink:href="#DejaVuSans-Bold-38" transform="translate(77.392578 0)"/>
      <use xlink:href="#DejaVuSans-Bold-37" transform="translate(146.972656 0)"/>
      <use xlink:href="#DejaVuSans-Bold-39" transform="translate(216.552734 0)"/>
     </g>
    </g>
   </g>
   <g id="text_15">
    <g id="patch_14">
     <path d="M 309.199711 1004.726883 
L 384.114867 1004.726883 
Q 386.864867 1004.726883 386.864867 1001.976883 
L 386.864867 979.013352 
Q 386.864867 976.263352 384.114867 976.263352 
L 309.199711 976.263352 
Q 306.449711 976.263352 306.449711 979.013352 
L 306.449711 1001.976883 
Q 306.449711 1004.726883 309.199711 1004.726883 
z
" clip-path="url(#pf74e6bf48b)" style="fill: #1a5276; opacity: 0.92; stroke: #1a5276; stroke-linejoin: miter"/>
    </g>
    <g clip-path="url(#pf74e6bf48b)">
     <!-- A900 -->
     <g style="fill: #ffffff" transform="translate(330.920414 987.371633) scale(0.11 -0.11)">
      <use xlink:href="#DejaVuSans-Bold-41"/>
      <use xlink:href="#DejaVuSans-Bold-39" transform="translate(77.392578 0)"/>
      <use xlink:href="#DejaVuSans-Bold-30" transform="translate(146.972656 0)"/>
      <use xlink:href="#DejaVuSans-Bold-30" transform="translate(216.552734 0)"/>
     </g>
    </g>
    <g clip-path="url(#pf74e6bf48b)">
     <!-- ● T1, T2, T3 -->
     <g style="fill: #ffffff" transform="translate(309.199711 999.689227) scale(0.11 -0.11)">
      <defs>
       <path id="DejaVuSans-Bold-25cf" d="M 676 436 
Q 350 1003 350 1656 
Q 350 2309 676 2876 
Q 1003 3444 1570 3772 
Q 2138 4100 2792 4100 
Q 3447 4100 4014 3772 
Q 4581 3444 4907 2876 
Q 5234 2309 5234 1656 
Q 5234 1003 4907 436 
Q 4581 -131 4014 -459 
Q 3447 -788 2792 -788 
Q 2138 -788 1570 -459 
Q 1003 -131 676 436 
z
" transform="scale(0.015625)"/>
       <path id="DejaVuSans-Bold-20" transform="scale(0.015625)"/>
       <path id="DejaVuSans-Bold-54" d="M 31 4666 
L 4331 4666 
L 4331 3756 
L 2784 3756 
L 2784 0 
L 1581 0 
L 1581 3756 
L 31 3756 
L 31 4666 
z
" transform="scale(0.015625)"/>
       <path id="DejaVuSans-Bold-2c" d="M 653 1209 
L 1778 1209 
L 1778 256 
L 1006 -909 
L 341 -909 
L 653 256 
L 653 1209 
z
" transform="scale(0.015625)"/>
      </defs>
      <use xlink:href="#DejaVuSans-Bold-25cf"/>
      <use xlink:href="#DejaVuSans-Bold-20" transform="translate(87.255859 0)"/>
      <use xlink:href="#DejaVuSans-Bold-54" transform="translate(122.070312 0)"/>
      <use xlink:href="#DejaVuSans-Bold-31" transform="translate(190.283203 0)"/>
      <use xlink:href="#DejaVuSans-Bold-2c" transform="translate(259.863281 0)"/>
      <use xlink:href="#DejaVuSans-Bold-20" transform="translate(297.851562 0)"/>
      <use xlink:href="#DejaVuSans-Bold-54" transform="translate(332.666016 0)"/>
      <use xlink:href="#DejaVuSans-Bold-32" transform="translate(400.878906 0)"/>
      <use xlink:href="#DejaVuSans-Bold-2c" transform="translate(470.458984 0)"/>
      <use xlink:href="#DejaVuSans-Bold-20" transform="translate(508.447266 0)"/>
      <use xlink:href="#DejaVuSans-Bold-54" transform="translate(543.261719 0)"/>
      <use xlink:href="#DejaVuSans-Bold-33" transform="translate(611.474609 0)"/>
     </g>
    </g>
   </g>
   <g id="text_16">
    <!-- Anillo A2 — 13 nodos backbone, 782 accesos | sedes ABAST: 2,989 · habitantes: 3,920,900 -->
    <g style="fill: #1c2833" transform="translate(153.046715 19.4275) scale(0.16 -0.16)">
     <defs>
      <path id="DejaVuSans-Bold-6e" d="M 4056 2131 
L 4056 0 
L 2931 0 
L 2931 347 
L 2931 1631 
Q 2931 2084 2911 2256 
Q 2891 2428 2841 2509 
Q 2775 2619 2662 2680 
Q 2550 2741 2406 2741 
Q 2056 2741 1856 2470 
Q 1656 2200 1656 1722 
L 1656 0 
L 538 0 
L 538 3500 
L 1656 3500 
L 1656 2988 
Q 1909 3294 2193 3439 
Q 2478 3584 2822 3584 
Q 3428 3584 3742 3212 
Q 4056 2841 4056 2131 
z
" transform="scale(0.015625)"/>
      <path id="DejaVuSans-Bold-69" d="M 538 3500 
L 1656 3500 
L 1656 0 
L 538 0 
L 538 3500 
z
M 538 4863 
L 1656 4863 
L 1656 3950 
L 538 3950 
L 538 4863 
z
" transform="scale(0.015625)"/>
      <path id="DejaVuSans-Bold-6c" d="M 538 4863 
L 1656 4863 
L 1656 0 
L 538 0 
L 538 4863 
z
" transform="scale(0.015625)"/>
      <path id="DejaVuSans-Bold-6f" d="M 2203 2784 
Q 1831 2784 1636 2517 
Q 1441 2250 1441 1747 
Q 1441 1244 1636 976 
Q 1831 709 2203 709 
Q 2569 709 2762 976 
Q 2956 1244 2956 1747 
Q 2956 2250 2762 2517 
Q 2569 2784 2203 2784 
z
M 2203 3584 
Q 3106 3584 3614 3096 
Q 4122 2609 4122 1747 
Q 4122 884 3614 396 
Q 3106 -91 2203 -91 
Q 1297 -91 786 396 
Q 275 884 275 1747 
Q 275 2609 786 3096 
Q 1297 3584 2203 3584 
z
" transform="scale(0.015625)"/>
      <path id="DejaVuSans-Bold-2014" d="M 344 2156 
L 6056 2156 
L 6056 1350 
L 344 1350 
L 344 2156 
z
" transform="scale(0.015625)"/>
      <path id="DejaVuSans-Bold-64" d="M 2919 2988 
L 2919 4863 
L 4044 4863 
L 4044 0 
L 2919 0 
L 2919 506 
Q 2688 197 2409 53 
Q 2131 -91 1766 -91 
Q 1119 -91 703 423 
Q 288 938 288 1747 
Q 288 2556 703 3070 
Q 1119 3584 1766 3584 
Q 2128 3584 2408 3439 
Q 2688 3294 2919 2988 
z
M 2181 722 
Q 2541 722 2730 984 
Q 2919 1247 2919 1747 
Q 2919 2247 2730 2509 
Q 2541 2772 2181 2772 
Q 1825 2772 1636 2509 
Q 1447 2247 1447 1747 
Q 1447 1247 1636 984 
Q 1825 722 2181 722 
z
" transform="scale(0.015625)"/>
      <path id="DejaVuSans-Bold-73" d="M 3272 3391 
L 3272 2541 
Q 2913 2691 2578 2766 
Q 2244 2841 1947 2841 
Q 1628 2841 1473 2761 
Q 1319 2681 1319 2516 
Q 1319 2381 1436 2309 
Q 1553 2238 1856 2203 
L 2053 2175 
Q 2913 2066 3209 1816 
Q 3506 1566 3506 1031 
Q 3506 472 3093 190 
Q 2681 -91 1863 -91 
Q 1516 -91 1145 -36 
Q 775 19 384 128 
L 384 978 
Q 719 816 1070 734 
Q 1422 653 1784 653 
Q 2113 653 2278 743 
Q 2444 834 2444 1013 
Q 2444 1163 2330 1236 
Q 2216 1309 1875 1350 
L 1678 1375 
Q 931 1469 631 1722 
Q 331 1975 331 2491 
Q 331 3047 712 3315 
Q 1094 3584 1881 3584 
Q 2191 3584 2531 3537 
Q 2872 3491 3272 3391 
z
" transform="scale(0.015625)"/>
      <path id="DejaVuSans-Bold-62" d="M 2400 722 
Q 2759 722 2948 984 
Q 3138 1247 3138 1747 
Q 3138 2247 2948 2509 
Q 2759 2772 2400 2772 
Q 2041 2772 1848 2508 
Q 1656 2244 1656 1747 
Q 1656 1250 1848 986 
Q 2041 722 2400 722 
z
M 1656 2988 
Q 1888 3294 2169 3439 
Q 2450 3584 2816 3584 
Q 3463 3584 3878 3070 
Q 4294 2556 4294 1747 
Q 4294 938 3878 423 
Q 3463 -91 2816 -91 
Q 2450 -91 2169 54 
Q 1888 200 1656 506 
L 1656 0 
L 538 0 
L 538 4863 
L 1656 4863 
L 1656 2988 
z
" transform="scale(0.015625)"/>
      <path id="DejaVuSans-Bold-61" d="M 2106 1575 
Q 1756 1575 1579 1456 
Q 1403 1338 1403 1106 
Q 1403 894 1545 773 
Q 1688 653 1941 653 
Q 2256 653 2472 879 
Q 2688 1106 2688 1447 
L 2688 1575 
L 2106 1575 
z
M 3816 1997 
L 3816 0 
L 2688 0 
L 2688 519 
Q 2463 200 2181 54 
Q 1900 -91 1497 -91 
Q 953 -91 614 226 
Q 275 544 275 1050 
Q 275 1666 698 1953 
Q 1122 2241 2028 2241 
L 2688 2241 
L 2688 2328 
Q 2688 2594 2478 2717 
Q 2269 2841 1825 2841 
Q 1466 2841 1156 2769 
Q 847 2697 581 2553 
L 581 3406 
Q 941 3494 1303 3539 
Q 1666 3584 2028 3584 
Q 2975 3584 3395 3211 
Q 3816 2838 3816 1997 
z
" transform="scale(0.015625)"/>
      <path id="DejaVuSans-Bold-63" d="M 3366 3391 
L 3366 2478 
Q 3138 2634 2908 2709 
Q 2678 2784 2431 2784 
Q 1963 2784 1702 2511 
Q 1441 2238 1441 1747 
Q 1441 1256 1702 982 
Q 1963 709 2431 709 
Q 2694 709 2930 787 
Q 3166 866 3366 1019 
L 3366 103 
Q 3103 6 2833 -42 
Q 2563 -91 2291 -91 
Q 1344 -91 809 395 
Q 275 881 275 1747 
Q 275 2613 809 3098 
Q 1344 3584 2291 3584 
Q 2566 3584 2833 3536 
Q 3100 3488 3366 3391 
z
" transform="scale(0.015625)"/>
      <path id="DejaVuSans-Bold-6b" d="M 538 4863 
L 1656 4863 
L 1656 2216 
L 2944 3500 
L 4244 3500 
L 2534 1894 
L 4378 0 
L 3022 0 
L 1656 1459 
L 1656 0 
L 538 0 
L 538 4863 
z
" transform="scale(0.015625)"/>
      <path id="DejaVuSans-Bold-65" d="M 4031 1759 
L 4031 1441 
L 1416 1441 
Q 1456 1047 1700 850 
Q 1944 653 2381 653 
Q 2734 653 3104 758 
Q 3475 863 3866 1075 
L 3866 213 
Q 3469 63 3072 -14 
Q 2675 -91 2278 -91 
Q 1328 -91 801 392 
Q 275 875 275 1747 
Q 275 2603 792 3093 
Q 1309 3584 2216 3584 
Q 3041 3584 3536 3087 
Q 4031 2591 4031 1759 
z
M 2881 2131 
Q 2881 2450 2695 2645 
Q 2509 2841 2209 2841 
Q 1884 2841 1681 2658 
Q 1478 2475 1428 2131 
L 2881 2131 
z
" transform="scale(0.015625)"/>
      <path id="DejaVuSans-Bold-7c" d="M 1522 4891 
L 1522 -1509 
L 813 -1509 
L 813 4891 
L 1522 4891 
z
" transform="scale(0.015625)"/>
      <path id="DejaVuSans-Bold-42" d="M 2456 2859 
Q 2741 2859 2887 2984 
Q 3034 3109 3034 3353 
Q 3034 3594 2887 3720 
Q 2741 3847 2456 3847 
L 1791 3847 
L 1791 2859 
L 2456 2859 
z
M 2497 819 
Q 2859 819 3042 972 
Q 3225 1125 3225 1434 
Q 3225 1738 3044 1889 
Q 2863 2041 2497 2041 
L 1791 2041 
L 1791 819 
L 2497 819 
z
M 3616 2497 
Q 4003 2384 4215 2081 
Q 4428 1778 4428 1338 
Q 4428 663 3972 331 
Q 3516 0 2584 0 
L 588 0 
L 588 4666 
L 2394 4666 
Q 3366 4666 3802 4372 
Q 4238 4078 4238 3431 
Q 4238 3091 4078 2852 
Q 3919 2613 3616 2497 
z
" transform="scale(0.015625)"/>
      <path id="DejaVuSans-Bold-53" d="M 3834 4519 
L 3834 3531 
Q 3450 3703 3084 3790 
Q 2719 3878 2394 3878 
Q 1963 3878 1756 3759 
Q 1550 3641 1550 3391 
Q 1550 3203 1689 3098 
Q 1828 2994 2194 2919 
L 2706 2816 
Q 3484 2659 3812 2340 
Q 4141 2022 4141 1434 
Q 4141 663 3683 286 
Q 3225 -91 2284 -91 
Q 1841 -91 1394 -6 
Q 947 78 500 244 
L 500 1259 
Q 947 1022 1364 901 
Q 1781 781 2169 781 
Q 2563 781 2772 912 
Q 2981 1044 2981 1288 
Q 2981 1506 2839 1625 
Q 2697 1744 2272 1838 
L 1806 1941 
Q 1106 2091 782 2419 
Q 459 2747 459 3303 
Q 459 4000 909 4375 
Q 1359 4750 2203 4750 
Q 2588 4750 2994 4692 
Q 3400 4634 3834 4519 
z
" transform="scale(0.015625)"/>
      <path id="DejaVuSans-Bold-3a" d="M 716 3500 
L 1844 3500 
L 1844 2291 
L 716 2291 
L 716 3500 
z
M 716 1209 
L 1844 1209 
L 1844 0 
L 716 0 
L 716 1209 
z
" transform="scale(0.015625)"/>
      <path id="DejaVuSans-Bold-b7" d="M 653 2828 
L 1778 2828 
L 1778 1619 
L 653 1619 
L 653 2828 
z
" transform="scale(0.015625)"/>
      <path id="DejaVuSans-Bold-68" d="M 4056 2131 
L 4056 0 
L 2931 0 
L 2931 347 
L 2931 1625 
Q 2931 2084 2911 2256 
Q 2891 2428 2841 2509 
Q 2775 2619 2662 2680 
Q 2550 2741 2406 2741 
Q 2056 2741 1856 2470 
Q 1656 2200 1656 1722 
L 1656 0 
L 538 0 
L 538 4863 
L 1656 4863 
L 1656 2988 
Q 1909 3294 2193 3439 
Q 2478 3584 2822 3584 
Q 3428 3584 3742 3212 
Q 4056 2841 4056 2131 
z
" transform="scale(0.015625)"/>
      <path id="DejaVuSans-Bold-74" d="M 1759 4494 
L 1759 3500 
L 2913 3500 
L 2913 2700 
L 1759 2700 
L 1759 1216 
Q 1759 972 1856 886 
Q 1953 800 2241 800 
L 2816 800 
L 2816 0 
L 1856 0 
Q 1194 0 917 276 
Q 641 553 641 1216 
L 641 2700 
L 84 2700 
L 84 3500 
L 641 3500 
L 641 4494 
L 1759 4494 
z
" transform="scale(0.015625)"/>
     </defs>
     <use xlink:href="#DejaVuSans-Bold-41"/>
     <use xlink:href="#DejaVuSans-Bold-6e" transform="translate(77.392578 0)"/>
     <use xlink:href="#DejaVuSans-Bold-69" transform="translate(148.583984 0)"/>
     <use xlink:href="#DejaVuSans-Bold-6c" transform="translate(182.861328 0)"/>
     <use xlink:href="#DejaVuSans-Bold-6c" transform="translate(217.138672 0)"/>
     <use xlink:href="#DejaVuSans-Bold-6f" transform="translate(251.416016 0)"/>
     <use xlink:href="#DejaVuSans-Bold-20" transform="translate(320.117188 0)"/>
     <use xlink:href="#DejaVuSans-Bold-41" transform="translate(354.931641 0)"/>
     <use xlink:href="#DejaVuSans-Bold-32" transform="translate(432.324219 0)"/>
     <use xlink:href="#DejaVuSans-Bold-20" transform="translate(501.904297 0)"/>
     <use xlink:href="#DejaVuSans-Bold-2014" transform="translate(536.71875 0)"/>
     <use xlink:href="#DejaVuSans-Bold-20" transform="translate(636.71875 0)"/>
     <use xlink:href="#DejaVuSans-Bold-31" transform="translate(671.533203 0)"/>
     <use xlink:href="#DejaVuSans-Bold-33" transform="translate(741.113281 0)"/>
     <use xlink:href="#DejaVuSans-Bold-20" transform="translate(810.693359 0)"/>
     <use xlink:href="#DejaVuSans-Bold-6e" transform="translate(845.507812 0)"/>
     <use xlink:href="#DejaVuSans-Bold-6f" transform="translate(916.699219 0)"/>
     <use xlink:href="#DejaVuSans-Bold-64" transform="translate(985.400391 0)"/>
     <use xlink:href="#DejaVuSans-Bold-6f" transform="translate(1056.982422 0)"/>
     <use xlink:href="#DejaVuSans-Bold-73" transform="translate(1125.683594 0)"/>
     <use xlink:href="#DejaVuSans-Bold-20" transform="translate(1185.205078 0)"/>
     <use xlink:href="#DejaVuSans-Bold-62" transform="translate(1220.019531 0)"/>
     <use xlink:href="#DejaVuSans-Bold-61" transform="translate(1291.601562 0)"/>
     <use xlink:href="#DejaVuSans-Bold-63" transform="translate(1359.082031 0)"/>
     <use xlink:href="#DejaVuSans-Bold-6b" transform="translate(1418.359375 0)"/>
     <use xlink:href="#DejaVuSans-Bold-62" transform="translate(1484.863281 0)"/>
     <use xlink:href="#DejaVuSans-Bold-6f" transform="translate(1556.445312 0)"/>
     <use xlink:href="#DejaVuSans-Bold-6e" transform="translate(1625.146484 0)"/>
     <use xlink:href="#DejaVuSans-Bold-65" transform="translate(1696.337891 0)"/>
     <use xlink:href="#DejaVuSans-Bold-2c" transform="translate(1764.160156 0)"/>
     <use xlink:href="#DejaVuSans-Bold-20" transform="translate(1802.148438 0)"/>
     <use xlink:href="#DejaVuSans-Bold-37" transform="translate(1836.962891 0)"/>
     <use xlink:href="#DejaVuSans-Bold-38" transform="translate(1906.542969 0)"/>
     <use xlink:href="#DejaVuSans-Bold-32" transform="translate(1976.123047 0)"/>
     <use xlink:href="#DejaVuSans-Bold-20" transform="translate(2045.703125 0)"/>
     <use xlink:href="#DejaVuSans-Bold-61" transform="translate(2080.517578 0)"/>
     <use xlink:href="#DejaVuSans-Bold-63" transform="translate(2147.998047 0)"/>
     <use xlink:href="#DejaVuSans-Bold-63" transform="translate(2207.275391 0)"/>
     <use xlink:href="#DejaVuSans-Bold-65" transform="translate(2266.552734 0)"/>
     <use xlink:href="#DejaVuSans-Bold-73" transform="translate(2334.375 0)"/>
     <use xlink:href="#DejaVuSans-Bold-6f" transform="translate(2393.896484 0)"/>
     <use xlink:href="#DejaVuSans-Bold-73" transform="translate(2462.597656 0)"/>
     <use xlink:href="#DejaVuSans-Bold-20" transform="translate(2522.119141 0)"/>
     <use xlink:href="#DejaVuSans-Bold-7c" transform="translate(2556.933594 0)"/>
     <use xlink:href="#DejaVuSans-Bold-20" transform="translate(2593.457031 0)"/>
     <use xlink:href="#DejaVuSans-Bold-73" transform="translate(2628.271484 0)"/>
     <use xlink:href="#DejaVuSans-Bold-65" transform="translate(2687.792969 0)"/>
     <use xlink:href="#DejaVuSans-Bold-64" transform="translate(2755.615234 0)"/>
     <use xlink:href="#DejaVuSans-Bold-65" transform="translate(2827.197266 0)"/>
     <use xlink:href="#DejaVuSans-Bold-73" transform="translate(2895.019531 0)"/>
     <use xlink:href="#DejaVuSans-Bold-20" transform="translate(2954.541016 0)"/>
     <use xlink:href="#DejaVuSans-Bold-41" transform="translate(2989.355469 0)"/>
     <use xlink:href="#DejaVuSans-Bold-42" transform="translate(3066.748047 0)"/>
     <use xlink:href="#DejaVuSans-Bold-41" transform="translate(3142.96875 0)"/>
     <use xlink:href="#DejaVuSans-Bold-53" transform="translate(3220.361328 0)"/>
     <use xlink:href="#DejaVuSans-Bold-54" transform="translate(3292.382812 0)"/>
     <use xlink:href="#DejaVuSans-Bold-3a" transform="translate(3355.095703 0)"/>
     <use xlink:href="#DejaVuSans-Bold-20" transform="translate(3395.085938 0)"/>
     <use xlink:href="#DejaVuSans-Bold-32" transform="translate(3429.900391 0)"/>
     <use xlink:href="#DejaVuSans-Bold-2c" transform="translate(3499.480469 0)"/>
     <use xlink:href="#DejaVuSans-Bold-39" transform="translate(3537.46875 0)"/>
     <use xlink:href="#DejaVuSans-Bold-38" transform="translate(3607.048828 0)"/>
     <use xlink:href="#DejaVuSans-Bold-39" transform="translate(3676.628906 0)"/>
     <use xlink:href="#DejaVuSans-Bold-20" transform="translate(3746.208984 0)"/>
     <use xlink:href="#DejaVuSans-Bold-b7" transform="translate(3781.023438 0)"/>
     <use xlink:href="#DejaVuSans-Bold-20" transform="translate(3819.011719 0)"/>
     <use xlink:href="#DejaVuSans-Bold-68" transform="translate(3853.826172 0)"/>
     <use xlink:href="#DejaVuSans-Bold-61" transform="translate(3925.017578 0)"/>
     <use xlink:href="#DejaVuSans-Bold-62" transform="translate(3992.498047 0)"/>
     <use xlink:href="#DejaVuSans-Bold-69" transform="translate(4064.080078 0)"/>
     <use xlink:href="#DejaVuSans-Bold-74" transform="translate(4098.357422 0)"/>
     <use xlink:href="#DejaVuSans-Bold-61" transform="translate(4146.160156 0)"/>
     <use xlink:href="#DejaVuSans-Bold-6e" transform="translate(4213.640625 0)"/>
     <use xlink:href="#DejaVuSans-Bold-74" transform="translate(4284.832031 0)"/>
     <use xlink:href="#DejaVuSans-Bold-65" transform="translate(4332.634766 0)"/>
     <use xlink:href="#DejaVuSans-Bold-73" transform="translate(4400.457031 0)"/>
     <use xlink:href="#DejaVuSans-Bold-3a" transform="translate(4459.978516 0)"/>
     <use xlink:href="#DejaVuSans-Bold-20" transform="translate(4499.96875 0)"/>
     <use xlink:href="#DejaVuSans-Bold-33" transform="translate(4534.783203 0)"/>
     <use xlink:href="#DejaVuSans-Bold-2c" transform="translate(4604.363281 0)"/>
     <use xlink:href="#DejaVuSans-Bold-39" transform="translate(4642.351562 0)"/>
     <use xlink:href="#DejaVuSans-Bold-32" transform="translate(4711.931641 0)"/>
     <use xlink:href="#DejaVuSans-Bold-30" transform="translate(4781.511719 0)"/>
     <use xlink:href="#DejaVuSans-Bold-2c" transform="translate(4851.091797 0)"/>
     <use xlink:href="#DejaVuSans-Bold-39" transform="translate(4889.080078 0)"/>
     <use xlink:href="#DejaVuSans-Bold-30" transform="translate(4958.660156 0)"/>
     <use xlink:href="#DejaVuSans-Bold-30" transform="translate(5028.240234 0)"/>
    </g>
   </g>
  </g>
 </g>
 <defs>
  <clipPath id="pf74e6bf48b">
   <rect x="7.2" y="39.4275" width="1107.32843" height="1099.254759"/>
  </clipPath>
 </defs>
</svg>
