<?xml version="1.0" encoding="utf-8" standalone="no"?>
<!DOCTYPE svg PUBLIC "-//W3C//DTD SVG 1.1//EN"
  "http://www.w3.org/Graphics/SVG/1.1/DTD/svg11.dtd">
<svg xmlns:xlink="http://www.w3.org/1999/xlink" width="1146.263393pt" height="1001.777271pt" viewBox="0 0 1146.263393 1001.777271" xmlns="http://www.w3.org/2000/svg" version="1.1">
 <metadata>
  <rdf:RDF xmlns:dc="http://purl.org/dc/elements/1.1/" xmlns:cc="http://creativecommons.org/ns#" xmlns:rdf="http://www.w3.org/1999/02/22-rdf-syntax-ns#">
   <cc:Work>
    <dc:type rdf:resource="http://purl.org/dc/dcmitype/StillImage"/>
    <dc:date>2026-05-07T09:33:43.929659</dc:date>
    <dc:format>image/svg+xml</dc:format>
    <dc:creator>
     <cc:Agent>
      <dc:title>Matplotlib v3.10.9, https://matplotlib.org/</dc:title>
     </cc:Agent>
    </dc:creator>
   </cc:Work>
  </rdf:RDF>
 </metadata>
 <defs>
  <style type="text/css">*{stroke-linejoin: round; stroke-linecap: butt}</style>
 </defs>
 <g id="figure_1">
  <g id="patch_1">
   <path d="M 0 1001.777271 
L 1146.263393 1001.777271 
L 1146.263393 0 
L 0 0 
z
" style="fill: #ffffff"/>
  </g>
  <g id="axes_1">
   <g id="LineCollection_1">
    <path d="M 221.739222 722.988069 
L 269.535236 690.082919 
" clip-path="url(#p791613fe99)" style="fill: none; stroke: #5d6d7e; stroke-width: 1.4"/>
    <path d="M 172.233158 378.665828 
L 118.362151 400.232526 
" clip-path="url(#p791613fe99)" style="fill: none; stroke: #5d6d7e; stroke-width: 1.4"/>
    <path d="M 102.841821 508.178793 
L 148.454632 544.049105 
" clip-path="url(#p791613fe99)" style="fill: none; stroke: #5d6d7e; stroke-width: 1.4"/>
    <path d="M 535.664963 898.205848 
L 566.96676 862.081649 
" clip-path="url(#p791613fe99)" style="fill: none; stroke: #5d6d7e; stroke-width: 1.4"/>
    <path d="M 577.053452 780.378414 
L 590.423948 822.204968 
" clip-path="url(#p791613fe99)" style="fill: none; stroke: #5d6d7e; stroke-width: 1.4"/>
    <path d="M 757.864778 722.988069 
L 815.629671 717.47219 
" clip-path="url(#p791613fe99)" style="fill: none; stroke: #5d6d7e; stroke-width: 1.4"/>
    <path d="M 183.54542 353.895429 
L 233.332179 383.702919 
" clip-path="url(#p791613fe99)" style="fill: none; stroke: #5d6d7e; stroke-width: 1.4"/>
    <path d="M 733.152276 730.479042 
L 700.659809 700.941432 
" clip-path="url(#p791613fe99)" style="fill: none; stroke: #5d6d7e; stroke-width: 1.4"/>
    <path d="M 260.892529 581.369622 
L 208.497826 556.429635 
" clip-path="url(#p791613fe99)" style="fill: none; stroke: #5d6d7e; stroke-width: 1.4"/>
    <path d="M 718.711471 581.369622 
L 694.605916 634.153427 
" clip-path="url(#p791613fe99)" style="fill: none; stroke: #5d6d7e; stroke-width: 1.4"/>
    <path d="M 235.983127 216.64 
L 185.275703 244.852853 
" clip-path="url(#p791613fe99)" style="fill: none; stroke: #5d6d7e; stroke-width: 1.4"/>
    <path d="M 746.271821 383.702919 
L 796.05858 353.895429 
" clip-path="url(#p791613fe99)" style="fill: none; stroke: #5d6d7e; stroke-width: 1.4"/>
    <path d="M 665.824521 861.076665 
L 489.802 508.726391 
" clip-path="url(#p791613fe99)" style="fill: none; stroke: #5d6d7e; stroke-width: 1.4"/>
    <path d="M 394.798267 288.156956 
L 450.475386 271.808678 
" clip-path="url(#p791613fe99)" style="fill: none; stroke: #5d6d7e; stroke-width: 1.4"/>
    <path d="M 888.646628 451.381191 
L 861.241849 400.232526 
" clip-path="url(#p791613fe99)" style="fill: none; stroke: #5d6d7e; stroke-width: 1.4"/>
    <path d="M 376.278983 122.102499 
L 329.551044 156.507551 
" clip-path="url(#p791613fe99)" style="fill: none; stroke: #5d6d7e; stroke-width: 1.4"/>
    <path d="M 590.423948 822.204968 
L 622.916415 851.742578 
" clip-path="url(#p791613fe99)" style="fill: none; stroke: #5d6d7e; stroke-width: 1.4"/>
    <path d="M 637.965351 264.8919 
L 663.733492 212.899489 
" clip-path="url(#p791613fe99)" style="fill: none; stroke: #5d6d7e; stroke-width: 1.4"/>
    <path d="M 148.454632 544.049105 
L 206.453065 542.208008 
" clip-path="url(#p791613fe99)" style="fill: none; stroke: #5d6d7e; stroke-width: 1.4"/>
    <path d="M 860.933297 618.271087 
L 827.273959 571.003162 
" clip-path="url(#p791613fe99)" style="fill: none; stroke: #5d6d7e; stroke-width: 1.4"/>
    <path d="M 650.973039 330.680101 
L 688.973066 374.53447 
" clip-path="url(#p791613fe99)" style="fill: none; stroke: #5d6d7e; stroke-width: 1.4"/>
    <path d="M 688.973066 374.53447 
L 746.271821 383.702919 
" clip-path="url(#p791613fe99)" style="fill: none; stroke: #5d6d7e; stroke-width: 1.4"/>
    <path d="M 118.362151 400.232526 
L 90.957372 451.381191 
" clip-path="url(#p791613fe99)" style="fill: none; stroke: #5d6d7e; stroke-width: 1.4"/>
    <path d="M 513.701583 745.44718 
L 465.902417 745.44718 
" clip-path="url(#p791613fe99)" style="fill: none; stroke: #5d6d7e; stroke-width: 1.4"/>
    <path d="M 489.802 911.672429 
L 535.664963 898.205848 
" clip-path="url(#p791613fe99)" style="fill: none; stroke: #5d6d7e; stroke-width: 1.4"/>
    <path d="M 694.605916 634.153427 
L 710.068764 690.082919 
" clip-path="url(#p791613fe99)" style="fill: none; stroke: #5d6d7e; stroke-width: 1.4"/>
    <path d="M 496.985936 223.496609 
L 529.128614 271.808678 
" clip-path="url(#p791613fe99)" style="fill: none; stroke: #5d6d7e; stroke-width: 1.4"/>
    <path d="M 412.63724 862.081649 
L 443.939037 898.205848 
" clip-path="url(#p791613fe99)" style="fill: none; stroke: #5d6d7e; stroke-width: 1.4"/>
    <path d="M 118.670703 618.271087 
L 123.269392 676.116224 
" clip-path="url(#p791613fe99)" style="fill: none; stroke: #5d6d7e; stroke-width: 1.4"/>
    <path d="M 269.535236 690.082919 
L 284.998084 634.153427 
" clip-path="url(#p791613fe99)" style="fill: none; stroke: #5d6d7e; stroke-width: 1.4"/>
    <path d="M 584.805733 288.156956 
L 637.965351 264.8919 
" clip-path="url(#p791613fe99)" style="fill: none; stroke: #5d6d7e; stroke-width: 1.4"/>
    <path d="M 443.939037 898.205848 
L 489.802 508.726391 
" clip-path="url(#p791613fe99)" style="fill: none; stroke: #5d6d7e; stroke-width: 1.4"/>
    <path d="M 257.957203 446.079962 
L 227.363549 396.772395 
" clip-path="url(#p791613fe99)" style="fill: none; stroke: #5d6d7e; stroke-width: 1.4"/>
    <path d="M 807.370842 378.665828 
L 752.240451 396.772395 
" clip-path="url(#p791613fe99)" style="fill: none; stroke: #5d6d7e; stroke-width: 1.4"/>
    <path d="M 743.620873 216.64 
L 686.641862 227.621805 
" clip-path="url(#p791613fe99)" style="fill: none; stroke: #5d6d7e; stroke-width: 1.4"/>
    <path d="M 164.566436 299.059255 
L 183.54542 353.895429 
" clip-path="url(#p791613fe99)" style="fill: none; stroke: #5d6d7e; stroke-width: 1.4"/>
    <path d="M 553.912799 771.28936 
L 513.701583 745.44718 
" clip-path="url(#p791613fe99)" style="fill: none; stroke: #5d6d7e; stroke-width: 1.4"/>
    <path d="M 861.241849 400.232526 
L 807.370842 378.665828 
" clip-path="url(#p791613fe99)" style="fill: none; stroke: #5d6d7e; stroke-width: 1.4"/>
    <path d="M 482.618064 223.496609 
L 476.186384 165.826501 
" clip-path="url(#p791613fe99)" style="fill: none; stroke: #5d6d7e; stroke-width: 1.4"/>
    <path d="M 573.76929 814.76901 
L 553.912799 771.28936 
" clip-path="url(#p791613fe99)" style="fill: none; stroke: #5d6d7e; stroke-width: 1.4"/>
    <path d="M 876.762179 508.178793 
L 888.646628 451.381191 
" clip-path="url(#p791613fe99)" style="fill: none; stroke: #5d6d7e; stroke-width: 1.4"/>
    <path d="M 90.957372 451.381191 
L 102.841821 508.178793 
" clip-path="url(#p791613fe99)" style="fill: none; stroke: #5d6d7e; stroke-width: 1.4"/>
    <path d="M 771.106174 556.429635 
L 718.711471 581.369622 
" clip-path="url(#p791613fe99)" style="fill: none; stroke: #5d6d7e; stroke-width: 1.4"/>
    <path d="M 249.699007 503.516971 
L 257.957203 446.079962 
" clip-path="url(#p791613fe99)" style="fill: none; stroke: #5d6d7e; stroke-width: 1.4"/>
    <path d="M 329.551044 156.507551 
L 315.870508 212.899489 
" clip-path="url(#p791613fe99)" style="fill: none; stroke: #5d6d7e; stroke-width: 1.4"/>
    <path d="M 686.641862 227.621805 
L 650.052374 272.659758 
" clip-path="url(#p791613fe99)" style="fill: none; stroke: #5d6d7e; stroke-width: 1.4"/>
    <path d="M 206.453065 542.208008 
L 249.699007 503.516971 
" clip-path="url(#p791613fe99)" style="fill: none; stroke: #5d6d7e; stroke-width: 1.4"/>
    <path d="M 856.334608 676.116224 
L 860.933297 618.271087 
" clip-path="url(#p791613fe99)" style="fill: none; stroke: #5d6d7e; stroke-width: 1.4"/>
    <path d="M 465.902417 745.44718 
L 425.691201 771.28936 
" clip-path="url(#p791613fe99)" style="fill: none; stroke: #5d6d7e; stroke-width: 1.4"/>
    <path d="M 545.414199 125.78284 
L 503.417616 165.826501 
" clip-path="url(#p791613fe99)" style="fill: none; stroke: #5d6d7e; stroke-width: 1.4"/>
    <path d="M 603.325017 122.102499 
L 545.414199 125.78284 
" clip-path="url(#p791613fe99)" style="fill: none; stroke: #5d6d7e; stroke-width: 1.4"/>
    <path d="M 831.149368 544.049105 
L 876.762179 508.178793 
" clip-path="url(#p791613fe99)" style="fill: none; stroke: #5d6d7e; stroke-width: 1.4"/>
    <path d="M 650.052374 272.659758 
L 650.973039 330.680101 
" clip-path="url(#p791613fe99)" style="fill: none; stroke: #5d6d7e; stroke-width: 1.4"/>
    <path d="M 185.275703 244.852853 
L 164.566436 299.059255 
" clip-path="url(#p791613fe99)" style="fill: none; stroke: #5d6d7e; stroke-width: 1.4"/>
    <path d="M 371.514806 842.013014 
L 396.866608 745.564757 
" clip-path="url(#p791613fe99)" style="fill: none; stroke: #5d6d7e; stroke-width: 1.4"/>
    <path d="M 227.363549 396.772395 
L 172.233158 378.665828 
" clip-path="url(#p791613fe99)" style="fill: none; stroke: #5d6d7e; stroke-width: 1.4"/>
    <path d="M 405.83471 814.76901 
L 412.63724 862.081649 
" clip-path="url(#p791613fe99)" style="fill: none; stroke: #5d6d7e; stroke-width: 1.4"/>
    <path d="M 271.952925 847.706169 
L 371.514806 842.013014 
" clip-path="url(#p791613fe99)" style="fill: none; stroke: #5d6d7e; stroke-width: 1.4"/>
    <path d="M 737.188685 815.213702 
L 746.522772 772.305596 
" clip-path="url(#p791613fe99)" style="fill: none; stroke: #5d6d7e; stroke-width: 1.4"/>
    <path d="M 163.974329 717.47219 
L 221.739222 722.988069 
" clip-path="url(#p791613fe99)" style="fill: none; stroke: #5d6d7e; stroke-width: 1.4"/>
    <path d="M 729.904993 503.516971 
L 773.150935 542.208008 
" clip-path="url(#p791613fe99)" style="fill: none; stroke: #5d6d7e; stroke-width: 1.4"/>
    <path d="M 329.551626 272.659758 
L 292.962138 227.621805 
" clip-path="url(#p791613fe99)" style="fill: none; stroke: #5d6d7e; stroke-width: 1.4"/>
    <path d="M 328.630961 330.680101 
L 329.551626 272.659758 
" clip-path="url(#p791613fe99)" style="fill: none; stroke: #5d6d7e; stroke-width: 1.4"/>
    <path d="M 476.186384 165.826501 
L 434.189801 125.78284 
" clip-path="url(#p791613fe99)" style="fill: none; stroke: #5d6d7e; stroke-width: 1.4"/>
    <path d="M 710.068764 690.082919 
L 757.864778 722.988069 
" clip-path="url(#p791613fe99)" style="fill: none; stroke: #5d6d7e; stroke-width: 1.4"/>
    <path d="M 615.925149 704.977841 
L 586.387539 737.470308 
" clip-path="url(#p791613fe99)" style="fill: none; stroke: #5d6d7e; stroke-width: 1.4"/>
    <path d="M 233.332179 383.702919 
L 290.630934 374.53447 
" clip-path="url(#p791613fe99)" style="fill: none; stroke: #5d6d7e; stroke-width: 1.4"/>
    <path d="M 657.751703 691.607345 
L 615.925149 704.977841 
" clip-path="url(#p791613fe99)" style="fill: none; stroke: #5d6d7e; stroke-width: 1.4"/>
    <path d="M 152.330041 571.003162 
L 118.670703 618.271087 
" clip-path="url(#p791613fe99)" style="fill: none; stroke: #5d6d7e; stroke-width: 1.4"/>
    <path d="M 208.497826 556.429635 
L 152.330041 571.003162 
" clip-path="url(#p791613fe99)" style="fill: none; stroke: #5d6d7e; stroke-width: 1.4"/>
    <path d="M 312.973002 691.64961 
L 235.7721 754.776474 
" clip-path="url(#p791613fe99)" style="fill: none; stroke: #5d6d7e; stroke-width: 1.4"/>
    <path d="M 663.733492 212.899489 
L 650.052956 156.507551 
" clip-path="url(#p791613fe99)" style="fill: none; stroke: #5d6d7e; stroke-width: 1.4"/>
    <path d="M 721.646797 446.079962 
L 729.904993 503.516971 
" clip-path="url(#p791613fe99)" style="fill: none; stroke: #5d6d7e; stroke-width: 1.4"/>
    <path d="M 503.417616 165.826501 
L 496.985936 223.496609 
" clip-path="url(#p791613fe99)" style="fill: none; stroke: #5d6d7e; stroke-width: 1.4"/>
    <path d="M 566.96676 862.081649 
L 573.76929 814.76901 
" clip-path="url(#p791613fe99)" style="fill: none; stroke: #5d6d7e; stroke-width: 1.4"/>
    <path d="M 235.7721 754.776474 
L 271.952925 847.706169 
" clip-path="url(#p791613fe99)" style="fill: none; stroke: #5d6d7e; stroke-width: 1.4"/>
    <path d="M 700.659809 700.941432 
L 657.751703 691.607345 
" clip-path="url(#p791613fe99)" style="fill: none; stroke: #5d6d7e; stroke-width: 1.4"/>
    <path d="M 650.052956 156.507551 
L 603.325017 122.102499 
" clip-path="url(#p791613fe99)" style="fill: none; stroke: #5d6d7e; stroke-width: 1.4"/>
    <path d="M 450.475386 271.808678 
L 482.618064 223.496609 
" clip-path="url(#p791613fe99)" style="fill: none; stroke: #5d6d7e; stroke-width: 1.4"/>
    <path d="M 586.387539 737.470308 
L 577.053452 780.378414 
" clip-path="url(#p791613fe99)" style="fill: none; stroke: #5d6d7e; stroke-width: 1.4"/>
    <path d="M 396.866608 745.564757 
L 312.973002 691.64961 
" clip-path="url(#p791613fe99)" style="fill: none; stroke: #5d6d7e; stroke-width: 1.4"/>
    <path d="M 746.522772 772.305596 
L 733.152276 730.479042 
" clip-path="url(#p791613fe99)" style="fill: none; stroke: #5d6d7e; stroke-width: 1.4"/>
    <path d="M 827.273959 571.003162 
L 771.106174 556.429635 
" clip-path="url(#p791613fe99)" style="fill: none; stroke: #5d6d7e; stroke-width: 1.4"/>
    <path d="M 529.128614 271.808678 
L 584.805733 288.156956 
" clip-path="url(#p791613fe99)" style="fill: none; stroke: #5d6d7e; stroke-width: 1.4"/>
    <path d="M 773.150935 542.208008 
L 831.149368 544.049105 
" clip-path="url(#p791613fe99)" style="fill: none; stroke: #5d6d7e; stroke-width: 1.4"/>
    <path d="M 815.629671 717.47219 
L 856.334608 676.116224 
" clip-path="url(#p791613fe99)" style="fill: none; stroke: #5d6d7e; stroke-width: 1.4"/>
    <path d="M 434.189801 125.78284 
L 376.278983 122.102499 
" clip-path="url(#p791613fe99)" style="fill: none; stroke: #5d6d7e; stroke-width: 1.4"/>
    <path d="M 123.269392 676.116224 
L 163.974329 717.47219 
" clip-path="url(#p791613fe99)" style="fill: none; stroke: #5d6d7e; stroke-width: 1.4"/>
    <path d="M 284.998084 634.153427 
L 260.892529 581.369622 
" clip-path="url(#p791613fe99)" style="fill: none; stroke: #5d6d7e; stroke-width: 1.4"/>
    <path d="M 796.05858 353.895429 
L 815.037564 299.059255 
" clip-path="url(#p791613fe99)" style="fill: none; stroke: #5d6d7e; stroke-width: 1.4"/>
    <path d="M 315.870508 212.899489 
L 341.638649 264.8919 
" clip-path="url(#p791613fe99)" style="fill: none; stroke: #5d6d7e; stroke-width: 1.4"/>
    <path d="M 425.691201 771.28936 
L 405.83471 814.76901 
" clip-path="url(#p791613fe99)" style="fill: none; stroke: #5d6d7e; stroke-width: 1.4"/>
    <path d="M 794.328297 244.852853 
L 743.620873 216.64 
" clip-path="url(#p791613fe99)" style="fill: none; stroke: #5d6d7e; stroke-width: 1.4"/>
    <path d="M 290.630934 374.53447 
L 328.630961 330.680101 
" clip-path="url(#p791613fe99)" style="fill: none; stroke: #5d6d7e; stroke-width: 1.4"/>
    <path d="M 292.962138 227.621805 
L 235.983127 216.64 
" clip-path="url(#p791613fe99)" style="fill: none; stroke: #5d6d7e; stroke-width: 1.4"/>
    <path d="M 341.638649 264.8919 
L 394.798267 288.156956 
" clip-path="url(#p791613fe99)" style="fill: none; stroke: #5d6d7e; stroke-width: 1.4"/>
    <path d="M 815.037564 299.059255 
L 794.328297 244.852853 
" clip-path="url(#p791613fe99)" style="fill: none; stroke: #5d6d7e; stroke-width: 1.4"/>
    <path d="M 752.240451 396.772395 
L 721.646797 446.079962 
" clip-path="url(#p791613fe99)" style="fill: none; stroke: #5d6d7e; stroke-width: 1.4"/>
    <path d="M 622.916415 851.742578 
L 665.824521 861.076665 
" clip-path="url(#p791613fe99)" style="fill: none; stroke: #5d6d7e; stroke-width: 1.4"/>
    <path d="M 489.802 508.726391 
L 489.802 911.672429 
" clip-path="url(#p791613fe99)" style="fill: none; stroke: #5d6d7e; stroke-width: 1.4"/>
    <path d="M 489.802 508.726391 
L 707.651075 847.706169 
" clip-path="url(#p791613fe99)" style="fill: none; stroke: #5d6d7e; stroke-width: 1.4"/>
    <path d="M 707.651075 847.706169 
L 737.188685 815.213702 
" clip-path="url(#p791613fe99)" style="fill: none; stroke: #5d6d7e; stroke-width: 1.4"/>
   </g>
   <g id="LineCollection_2">
    <path d="M 235.983127 216.64 
L 876.762179 508.178793 
" clip-path="url(#p791613fe99)" style="fill: none; stroke: #c0392b; stroke-width: 2.6"/>
    <path d="M 118.362151 400.232526 
L 235.983127 216.64 
" clip-path="url(#p791613fe99)" style="fill: none; stroke: #c0392b; stroke-width: 2.6"/>
    <path d="M 118.670703 618.271087 
L 815.629671 717.47219 
" clip-path="url(#p791613fe99)" style="fill: none; stroke: #c0392b; stroke-width: 2.6"/>
    <path d="M 876.762179 508.178793 
L 489.802 508.726391 
" clip-path="url(#p791613fe99)" style="fill: none; stroke: #c0392b; stroke-width: 2.6"/>
    <path d="M 235.7721 754.776474 
L 118.670703 618.271087 
" clip-path="url(#p791613fe99)" style="fill: none; stroke: #c0392b; stroke-width: 2.6"/>
    <path d="M 650.052956 156.507551 
L 815.037564 299.059255 
" clip-path="url(#p791613fe99)" style="fill: none; stroke: #c0392b; stroke-width: 2.6"/>
    <path d="M 815.629671 717.47219 
L 489.802 508.726391 
" clip-path="url(#p791613fe99)" style="fill: none; stroke: #c0392b; stroke-width: 2.6"/>
    <path d="M 434.189801 125.78284 
L 650.052956 156.507551 
" clip-path="url(#p791613fe99)" style="fill: none; stroke: #c0392b; stroke-width: 2.6"/>
    <path d="M 815.037564 299.059255 
L 489.802 508.726391 
" clip-path="url(#p791613fe99)" style="fill: none; stroke: #c0392b; stroke-width: 2.6"/>
    <path d="M 489.802 508.726391 
L 235.7721 754.776474 
" clip-path="url(#p791613fe99)" style="fill: none; stroke: #c0392b; stroke-width: 2.6"/>
    <path d="M 489.802 508.726391 
L 118.362151 400.232526 
" clip-path="url(#p791613fe99)" style="fill: none; stroke: #c0392b; stroke-width: 2.6"/>
    <path d="M 489.802 508.726391 
L 434.189801 125.78284 
" clip-path="url(#p791613fe99)" style="fill: none; stroke: #c0392b; stroke-width: 2.6"/>
   </g>
   <g id="PathCollection_1">
    <defs>
     <path id="m5d78bc0ad3" d="M 0 7.071068 
C 1.875269 7.071068 3.673985 6.326016 5 5 
C 6.326016 3.673985 7.071068 1.875269 7.071068 0 
C 7.071068 -1.875269 6.326016 -3.673985 5 -5 
C 3.673985 -6.326016 1.875269 -7.071068 0 -7.071068 
C -1.875269 -7.071068 -3.673985 -6.326016 -5 -5 
C -6.326016 -3.673985 -7.071068 -1.875269 -7.071068 0 
C -7.071068 1.875269 -6.326016 3.673985 -5 5 
C -3.673985 6.326016 -1.875269 7.071068 0 7.071068 
z
" style="stroke: #000000; stroke-width: 0.4"/>
    </defs>
    <g clip-path="url(#p791613fe99)">
     <use xlink:href="#m5d78bc0ad3" x="221.739222" y="722.988069" style="fill: #1a5276; stroke: #000000; stroke-width: 0.4"/>
     <use xlink:href="#m5d78bc0ad3" x="172.233158" y="378.665828" style="fill: #1a5276; stroke: #000000; stroke-width: 0.4"/>
     <use xlink:href="#m5d78bc0ad3" x="102.841821" y="508.178793" style="fill: #1a5276; stroke: #000000; stroke-width: 0.4"/>
     <use xlink:href="#m5d78bc0ad3" x="535.664963" y="898.205848" style="fill: #1a5276; stroke: #000000; stroke-width: 0.4"/>
     <use xlink:href="#m5d78bc0ad3" x="577.053452" y="780.378414" style="fill: #1a5276; stroke: #000000; stroke-width: 0.4"/>
     <use xlink:href="#m5d78bc0ad3" x="757.864778" y="722.988069" style="fill: #1a5276; stroke: #000000; stroke-width: 0.4"/>
     <use xlink:href="#m5d78bc0ad3" x="183.54542" y="353.895429" style="fill: #1a5276; stroke: #000000; stroke-width: 0.4"/>
     <use xlink:href="#m5d78bc0ad3" x="733.152276" y="730.479042" style="fill: #1a5276; stroke: #000000; stroke-width: 0.4"/>
     <use xlink:href="#m5d78bc0ad3" x="260.892529" y="581.369622" style="fill: #1a5276; stroke: #000000; stroke-width: 0.4"/>
     <use xlink:href="#m5d78bc0ad3" x="718.711471" y="581.369622" style="fill: #1a5276; stroke: #000000; stroke-width: 0.4"/>
     <use xlink:href="#m5d78bc0ad3" x="746.271821" y="383.702919" style="fill: #1a5276; stroke: #000000; stroke-width: 0.4"/>
     <use xlink:href="#m5d78bc0ad3" x="665.824521" y="861.076665" style="fill: #1a5276; stroke: #000000; stroke-width: 0.4"/>
     <use xlink:href="#m5d78bc0ad3" x="394.798267" y="288.156956" style="fill: #1a5276; stroke: #000000; stroke-width: 0.4"/>
     <use xlink:href="#m5d78bc0ad3" x="888.646628" y="451.381191" style="fill: #1a5276; stroke: #000000; stroke-width: 0.4"/>
     <use xlink:href="#m5d78bc0ad3" x="376.278983" y="122.102499" style="fill: #1a5276; stroke: #000000; stroke-width: 0.4"/>
     <use xlink:href="#m5d78bc0ad3" x="590.423948" y="822.204968" style="fill: #1a5276; stroke: #000000; stroke-width: 0.4"/>
     <use xlink:href="#m5d78bc0ad3" x="637.965351" y="264.8919" style="fill: #1a5276; stroke: #000000; stroke-width: 0.4"/>
     <use xlink:href="#m5d78bc0ad3" x="148.454632" y="544.049105" style="fill: #1a5276; stroke: #000000; stroke-width: 0.4"/>
     <use xlink:href="#m5d78bc0ad3" x="860.933297" y="618.271087" style="fill: #1a5276; stroke: #000000; stroke-width: 0.4"/>
     <use xlink:href="#m5d78bc0ad3" x="650.973039" y="330.680101" style="fill: #1a5276; stroke: #000000; stroke-width: 0.4"/>
     <use xlink:href="#m5d78bc0ad3" x="688.973066" y="374.53447" style="fill: #1a5276; stroke: #000000; stroke-width: 0.4"/>
     <use xlink:href="#m5d78bc0ad3" x="513.701583" y="745.44718" style="fill: #1a5276; stroke: #000000; stroke-width: 0.4"/>
     <use xlink:href="#m5d78bc0ad3" x="489.802" y="911.672429" style="fill: #1a5276; stroke: #000000; stroke-width: 0.4"/>
     <use xlink:href="#m5d78bc0ad3" x="694.605916" y="634.153427" style="fill: #1a5276; stroke: #000000; stroke-width: 0.4"/>
     <use xlink:href="#m5d78bc0ad3" x="496.985936" y="223.496609" style="fill: #1a5276; stroke: #000000; stroke-width: 0.4"/>
     <use xlink:href="#m5d78bc0ad3" x="412.63724" y="862.081649" style="fill: #1a5276; stroke: #000000; stroke-width: 0.4"/>
     <use xlink:href="#m5d78bc0ad3" x="269.535236" y="690.082919" style="fill: #1a5276; stroke: #000000; stroke-width: 0.4"/>
     <use xlink:href="#m5d78bc0ad3" x="584.805733" y="288.156956" style="fill: #1a5276; stroke: #000000; stroke-width: 0.4"/>
     <use xlink:href="#m5d78bc0ad3" x="443.939037" y="898.205848" style="fill: #1a5276; stroke: #000000; stroke-width: 0.4"/>
     <use xlink:href="#m5d78bc0ad3" x="257.957203" y="446.079962" style="fill: #1a5276; stroke: #000000; stroke-width: 0.4"/>
     <use xlink:href="#m5d78bc0ad3" x="807.370842" y="378.665828" style="fill: #1a5276; stroke: #000000; stroke-width: 0.4"/>
     <use xlink:href="#m5d78bc0ad3" x="743.620873" y="216.64" style="fill: #1a5276; stroke: #000000; stroke-width: 0.4"/>
     <use xlink:href="#m5d78bc0ad3" x="164.566436" y="299.059255" style="fill: #1a5276; stroke: #000000; stroke-width: 0.4"/>
     <use xlink:href="#m5d78bc0ad3" x="553.912799" y="771.28936" style="fill: #1a5276; stroke: #000000; stroke-width: 0.4"/>
     <use xlink:href="#m5d78bc0ad3" x="861.241849" y="400.232526" style="fill: #1a5276; stroke: #000000; stroke-width: 0.4"/>
     <use xlink:href="#m5d78bc0ad3" x="482.618064" y="223.496609" style="fill: #1a5276; stroke: #000000; stroke-width: 0.4"/>
     <use xlink:href="#m5d78bc0ad3" x="573.76929" y="814.76901" style="fill: #1a5276; stroke: #000000; stroke-width: 0.4"/>
     <use xlink:href="#m5d78bc0ad3" x="90.957372" y="451.381191" style="fill: #1a5276; stroke: #000000; stroke-width: 0.4"/>
     <use xlink:href="#m5d78bc0ad3" x="771.106174" y="556.429635" style="fill: #1a5276; stroke: #000000; stroke-width: 0.4"/>
     <use xlink:href="#m5d78bc0ad3" x="249.699007" y="503.516971" style="fill: #1a5276; stroke: #000000; stroke-width: 0.4"/>
     <use xlink:href="#m5d78bc0ad3" x="329.551044" y="156.507551" style="fill: #1a5276; stroke: #000000; stroke-width: 0.4"/>
     <use xlink:href="#m5d78bc0ad3" x="686.641862" y="227.621805" style="fill: #1a5276; stroke: #000000; stroke-width: 0.4"/>
     <use xlink:href="#m5d78bc0ad3" x="206.453065" y="542.208008" style="fill: #1a5276; stroke: #000000; stroke-width: 0.4"/>
     <use xlink:href="#m5d78bc0ad3" x="856.334608" y="676.116224" style="fill: #1a5276; stroke: #000000; stroke-width: 0.4"/>
     <use xlink:href="#m5d78bc0ad3" x="465.902417" y="745.44718" style="fill: #1a5276; stroke: #000000; stroke-width: 0.4"/>
     <use xlink:href="#m5d78bc0ad3" x="545.414199" y="125.78284" style="fill: #1a5276; stroke: #000000; stroke-width: 0.4"/>
     <use xlink:href="#m5d78bc0ad3" x="603.325017" y="122.102499" style="fill: #1a5276; stroke: #000000; stroke-width: 0.4"/>
     <use xlink:href="#m5d78bc0ad3" x="831.149368" y="544.049105" style="fill: #1a5276; stroke: #000000; stroke-width: 0.4"/>
     <use xlink:href="#m5d78bc0ad3" x="650.052374" y="272.659758" style="fill: #1a5276; stroke: #000000; stroke-width: 0.4"/>
     <use xlink:href="#m5d78bc0ad3" x="185.275703" y="244.852853" style="fill: #1a5276; stroke: #000000; stroke-width: 0.4"/>
     <use xlink:href="#m5d78bc0ad3" x="371.514806" y="842.013014" style="fill: #1a5276; stroke: #000000; stroke-width: 0.4"/>
     <use xlink:href="#m5d78bc0ad3" x="227.363549" y="396.772395" style="fill: #1a5276; stroke: #000000; stroke-width: 0.4"/>
     <use xlink:href="#m5d78bc0ad3" x="405.83471" y="814.76901" style="fill: #1a5276; stroke: #000000; stroke-width: 0.4"/>
     <use xlink:href="#m5d78bc0ad3" x="271.952925" y="847.706169" style="fill: #1a5276; stroke: #000000; stroke-width: 0.4"/>
     <use xlink:href="#m5d78bc0ad3" x="737.188685" y="815.213702" style="fill: #1a5276; stroke: #000000; stroke-width: 0.4"/>
     <use xlink:href="#m5d78bc0ad3" x="163.974329" y="717.47219" style="fill: #1a5276; stroke: #000000; stroke-width: 0.4"/>
     <use xlink:href="#m5d78bc0ad3" x="729.904993" y="503.516971" style="fill: #1a5276; stroke: #000000; stroke-width: 0.4"/>
     <use xlink:href="#m5d78bc0ad3" x="329.551626" y="272.659758" style="fill: #1a5276; stroke: #000000; stroke-width: 0.4"/>
     <use xlink:href="#m5d78bc0ad3" x="328.630961" y="330.680101" style="fill: #1a5276; stroke: #000000; stroke-width: 0.4"/>
     <use xlink:href="#m5d78bc0ad3" x="476.186384" y="165.826501" style="fill: #1a5276; stroke: #000000; stroke-width: 0.4"/>
     <use xlink:href="#m5d78bc0ad3" x="710.068764" y="690.082919" style="fill: #1a5276; stroke: #000000; stroke-width: 0.4"/>
     <use xlink:href="#m5d78bc0ad3" x="615.925149" y="704.977841" style="fill: #1a5276; stroke: #000000; stroke-width: 0.4"/>
     <use xlink:href="#m5d78bc0ad3" x="233.332179" y="383.702919" style="fill: #1a5276; stroke: #000000; stroke-width: 0.4"/>
     <use xlink:href="#m5d78bc0ad3" x="657.751703" y="691.607345" style="fill: #1a5276; stroke: #000000; stroke-width: 0.4"/>
     <use xlink:href="#m5d78bc0ad3" x="152.330041" y="571.003162" style="fill: #1a5276; stroke: #000000; stroke-width: 0.4"/>
     <use xlink:href="#m5d78bc0ad3" x="208.497826" y="556.429635" style="fill: #1a5276; stroke: #000000; stroke-width: 0.4"/>
     <use xlink:href="#m5d78bc0ad3" x="312.973002" y="691.64961" style="fill: #1a5276; stroke: #000000; stroke-width: 0.4"/>
     <use xlink:href="#m5d78bc0ad3" x="663.733492" y="212.899489" style="fill: #1a5276; stroke: #000000; stroke-width: 0.4"/>
     <use xlink:href="#m5d78bc0ad3" x="721.646797" y="446.079962" style="fill: #1a5276; stroke: #000000; stroke-width: 0.4"/>
     <use xlink:href="#m5d78bc0ad3" x="503.417616" y="165.826501" style="fill: #1a5276; stroke: #000000; stroke-width: 0.4"/>
     <use xlink:href="#m5d78bc0ad3" x="566.96676" y="862.081649" style="fill: #1a5276; stroke: #000000; stroke-width: 0.4"/>
     <use xlink:href="#m5d78bc0ad3" x="700.659809" y="700.941432" style="fill: #1a5276; stroke: #000000; stroke-width: 0.4"/>
     <use xlink:href="#m5d78bc0ad3" x="450.475386" y="271.808678" style="fill: #1a5276; stroke: #000000; stroke-width: 0.4"/>
     <use xlink:href="#m5d78bc0ad3" x="586.387539" y="737.470308" style="fill: #1a5276; stroke: #000000; stroke-width: 0.4"/>
     <use xlink:href="#m5d78bc0ad3" x="396.866608" y="745.564757" style="fill: #1a5276; stroke: #000000; stroke-width: 0.4"/>
     <use xlink:href="#m5d78bc0ad3" x="746.522772" y="772.305596" style="fill: #1a5276; stroke: #000000; stroke-width: 0.4"/>
     <use xlink:href="#m5d78bc0ad3" x="827.273959" y="571.003162" style="fill: #1a5276; stroke: #000000; stroke-width: 0.4"/>
     <use xlink:href="#m5d78bc0ad3" x="529.128614" y="271.808678" style="fill: #1a5276; stroke: #000000; stroke-width: 0.4"/>
     <use xlink:href="#m5d78bc0ad3" x="773.150935" y="542.208008" style="fill: #1a5276; stroke: #000000; stroke-width: 0.4"/>
     <use xlink:href="#m5d78bc0ad3" x="123.269392" y="676.116224" style="fill: #1a5276; stroke: #000000; stroke-width: 0.4"/>
     <use xlink:href="#m5d78bc0ad3" x="284.998084" y="634.153427" style="fill: #1a5276; stroke: #000000; stroke-width: 0.4"/>
     <use xlink:href="#m5d78bc0ad3" x="796.05858" y="353.895429" style="fill: #1a5276; stroke: #000000; stroke-width: 0.4"/>
     <use xlink:href="#m5d78bc0ad3" x="315.870508" y="212.899489" style="fill: #1a5276; stroke: #000000; stroke-width: 0.4"/>
     <use xlink:href="#m5d78bc0ad3" x="425.691201" y="771.28936" style="fill: #1a5276; stroke: #000000; stroke-width: 0.4"/>
     <use xlink:href="#m5d78bc0ad3" x="794.328297" y="244.852853" style="fill: #1a5276; stroke: #000000; stroke-width: 0.4"/>
     <use xlink:href="#m5d78bc0ad3" x="290.630934" y="374.53447" style="fill: #1a5276; stroke: #000000; stroke-width: 0.4"/>
     <use xlink:href="#m5d78bc0ad3" x="292.962138" y="227.621805" style="fill: #1a5276; stroke: #000000; stroke-width: 0.4"/>
     <use xlink:href="#m5d78bc0ad3" x="341.638649" y="264.8919" style="fill: #1a5276; stroke: #000000; stroke-width: 0.4"/>
     <use xlink:href="#m5d78bc0ad3" x="752.240451" y="396.772395" style="fill: #1a5276; stroke: #000000; stroke-width: 0.4"/>
     <use xlink:href="#m5d78bc0ad3" x="622.916415" y="851.742578" style="fill: #1a5276; stroke: #000000; stroke-width: 0.4"/>
     <use xlink:href="#m5d78bc0ad3" x="707.651075" y="847.706169" style="fill: #1a5276; stroke: #000000; stroke-width: 0.4"/>
    </g>
   </g>
   <g id="PathCollection_2">
    <defs>
     <path id="maaccc180ee" d="M 0 11.401754 
C 3.023781 11.401754 5.924122 10.200393 8.062258 8.062258 
C 10.200393 5.924122 11.401754 3.023781 11.401754 0 
C 11.401754 -3.023781 10.200393 -5.924122 8.062258 -8.062258 
C 5.924122 -10.200393 3.023781 -11.401754 0 -11.401754 
C -3.023781 -11.401754 -5.924122 -10.200393 -8.062258 -8.062258 
C -10.200393 -5.924122 -11.401754 -3.023781 -11.401754 0 
C -11.401754 3.023781 -10.200393 5.924122 -8.062258 8.062258 
C -5.924122 10.200393 -3.023781 11.401754 0 11.401754 
z
" style="stroke: #000000; stroke-width: 0.6"/>
    </defs>
    <g clip-path="url(#p791613fe99)">
     <use xlink:href="#maaccc180ee" x="235.983127" y="216.64" style="fill: #c0392b; stroke: #000000; stroke-width: 0.6"/>
     <use xlink:href="#maaccc180ee" x="118.362151" y="400.232526" style="fill: #c0392b; stroke: #000000; stroke-width: 0.6"/>
     <use xlink:href="#maaccc180ee" x="118.670703" y="618.271087" style="fill: #c0392b; stroke: #000000; stroke-width: 0.6"/>
     <use xlink:href="#maaccc180ee" x="876.762179" y="508.178793" style="fill: #c0392b; stroke: #000000; stroke-width: 0.6"/>
     <use xlink:href="#maaccc180ee" x="235.7721" y="754.776474" style="fill: #c0392b; stroke: #000000; stroke-width: 0.6"/>
     <use xlink:href="#maaccc180ee" x="650.052956" y="156.507551" style="fill: #c0392b; stroke: #000000; stroke-width: 0.6"/>
     <use xlink:href="#maaccc180ee" x="815.629671" y="717.47219" style="fill: #c0392b; stroke: #000000; stroke-width: 0.6"/>
     <use xlink:href="#maaccc180ee" x="434.189801" y="125.78284" style="fill: #c0392b; stroke: #000000; stroke-width: 0.6"/>
     <use xlink:href="#maaccc180ee" x="815.037564" y="299.059255" style="fill: #c0392b; stroke: #000000; stroke-width: 0.6"/>
    </g>
   </g>
   <g id="PathCollection_3">
    <defs>
     <path id="m2aff624fc7" d="M 0 16.583124 
C 4.397896 16.583124 8.616257 14.835821 11.726039 11.726039 
C 14.835821 8.616257 16.583124 4.397896 16.583124 0 
C 16.583124 -4.397896 14.835821 -8.616257 11.726039 -11.726039 
C 8.616257 -14.835821 4.397896 -16.583124 0 -16.583124 
C -4.397896 -16.583124 -8.616257 -14.835821 -11.726039 -11.726039 
C -14.835821 -8.616257 -16.583124 -4.397896 -16.583124 0 
C -16.583124 4.397896 -14.835821 8.616257 -11.726039 11.726039 
C -8.616257 14.835821 -4.397896 16.583124 0 16.583124 
z
" style="stroke: #000000; stroke-width: 1.2"/>
    </defs>
    <g clip-path="url(#p791613fe99)">
     <use xlink:href="#m2aff624fc7" x="489.802" y="508.726391" style="fill: #d35400; stroke: #000000; stroke-width: 1.2"/>
    </g>
   </g>
   <g id="text_1">
    <g clip-path="url(#p791613fe99)">
     <!-- A894 -->
     <g style="fill: #1c2833" transform="translate(223.107502 214.084422) scale(0.09 -0.09)">
      <defs>
       <path id="DejaVuSans-Bold-41" d="M 3419 850 
L 1538 850 
L 1241 0 
L 31 0 
L 1759 4666 
L 3194 4666 
L 4922 0 
L 3713 0 
L 3419 850 
z
M 1838 1716 
L 3116 1716 
L 2478 3572 
L 1838 1716 
z
" transform="scale(0.015625)"/>
       <path id="DejaVuSans-Bold-38" d="M 2228 2088 
Q 1891 2088 1709 1903 
Q 1528 1719 1528 1375 
Q 1528 1031 1709 848 
Q 1891 666 2228 666 
Q 2563 666 2741 848 
Q 2919 1031 2919 1375 
Q 2919 1722 2741 1905 
Q 2563 2088 2228 2088 
z
M 1350 2484 
Q 925 2613 709 2878 
Q 494 3144 494 3541 
Q 494 4131 934 4440 
Q 1375 4750 2228 4750 
Q 3075 4750 3515 4442 
Q 3956 4134 3956 3541 
Q 3956 3144 3739 2878 
Q 3522 2613 3097 2484 
Q 3572 2353 3814 2058 
Q 4056 1763 4056 1313 
Q 4056 619 3595 264 
Q 3134 -91 2228 -91 
Q 1319 -91 855 264 
Q 391 619 391 1313 
Q 391 1763 633 2058 
Q 875 2353 1350 2484 
z
M 1631 3419 
Q 1631 3141 1786 2991 
Q 1941 2841 2228 2841 
Q 2509 2841 2662 2991 
Q 2816 3141 2816 3419 
Q 2816 3697 2662 3845 
Q 2509 3994 2228 3994 
Q 1941 3994 1786 3844 
Q 1631 3694 1631 3419 
z
" transform="scale(0.015625)"/>
       <path id="DejaVuSans-Bold-39" d="M 641 103 
L 641 966 
Q 928 831 1190 764 
Q 1453 697 1709 697 
Q 2247 697 2547 995 
Q 2847 1294 2900 1881 
Q 2688 1725 2447 1647 
Q 2206 1569 1925 1569 
Q 1209 1569 770 1986 
Q 331 2403 331 3084 
Q 331 3838 820 4291 
Q 1309 4744 2131 4744 
Q 3044 4744 3544 4128 
Q 4044 3513 4044 2388 
Q 4044 1231 3459 570 
Q 2875 -91 1856 -91 
Q 1528 -91 1228 -42 
Q 928 6 641 103 
z
M 2125 2350 
Q 2441 2350 2600 2554 
Q 2759 2759 2759 3169 
Q 2759 3575 2600 3781 
Q 2441 3988 2125 3988 
Q 1809 3988 1650 3781 
Q 1491 3575 1491 3169 
Q 1491 2759 1650 2554 
Q 1809 2350 2125 2350 
z
" transform="scale(0.015625)"/>
       <path id="DejaVuSans-Bold-34" d="M 2356 3675 
L 1038 1722 
L 2356 1722 
L 2356 3675 
z
M 2156 4666 
L 3494 4666 
L 3494 1722 
L 4159 1722 
L 4159 850 
L 3494 850 
L 3494 0 
L 2356 0 
L 2356 850 
L 288 850 
L 288 1881 
L 2156 4666 
z
" transform="scale(0.015625)"/>
      </defs>
      <use xlink:href="#DejaVuSans-Bold-41"/>
      <use xlink:href="#DejaVuSans-Bold-38" transform="translate(77.392578 0)"/>
      <use xlink:href="#DejaVuSans-Bold-39" transform="translate(146.972656 0)"/>
      <use xlink:href="#DejaVuSans-Bold-34" transform="translate(216.552734 0)"/>
     </g>
    </g>
    <g clip-path="url(#p791613fe99)">
     <!-- (30 sedes) -->
     <g style="fill: #1c2833" transform="translate(209.359299 224.162453) scale(0.09 -0.09)">
      <defs>
       <path id="DejaVuSans-Bold-28" d="M 2413 -844 
L 1484 -844 
Q 1006 -72 778 623 
Q 550 1319 550 2003 
Q 550 2688 779 3389 
Q 1009 4091 1484 4856 
L 2413 4856 
Q 2013 4116 1813 3408 
Q 1613 2700 1613 2009 
Q 1613 1319 1811 609 
Q 2009 -100 2413 -844 
z
" transform="scale(0.015625)"/>
       <path id="DejaVuSans-Bold-33" d="M 2981 2516 
Q 3453 2394 3698 2092 
Q 3944 1791 3944 1325 
Q 3944 631 3412 270 
Q 2881 -91 1863 -91 
Q 1503 -91 1142 -33 
Q 781 25 428 141 
L 428 1069 
Q 766 900 1098 814 
Q 1431 728 1753 728 
Q 2231 728 2486 893 
Q 2741 1059 2741 1369 
Q 2741 1688 2480 1852 
Q 2219 2016 1709 2016 
L 1228 2016 
L 1228 2791 
L 1734 2791 
Q 2188 2791 2409 2933 
Q 2631 3075 2631 3366 
Q 2631 3634 2415 3781 
Q 2200 3928 1806 3928 
Q 1516 3928 1219 3862 
Q 922 3797 628 3669 
L 628 4550 
Q 984 4650 1334 4700 
Q 1684 4750 2022 4750 
Q 2931 4750 3382 4451 
Q 3834 4153 3834 3553 
Q 3834 3144 3618 2883 
Q 3403 2622 2981 2516 
z
" transform="scale(0.015625)"/>
       <path id="DejaVuSans-Bold-30" d="M 2944 2338 
Q 2944 3213 2780 3570 
Q 2616 3928 2228 3928 
Q 1841 3928 1675 3570 
Q 1509 3213 1509 2338 
Q 1509 1453 1675 1090 
Q 1841 728 2228 728 
Q 2613 728 2778 1090 
Q 2944 1453 2944 2338 
z
M 4147 2328 
Q 4147 1169 3647 539 
Q 3147 -91 2228 -91 
Q 1306 -91 806 539 
Q 306 1169 306 2328 
Q 306 3491 806 4120 
Q 1306 4750 2228 4750 
Q 3147 4750 3647 4120 
Q 4147 3491 4147 2328 
z
" transform="scale(0.015625)"/>
       <path id="DejaVuSans-Bold-20" transform="scale(0.015625)"/>
       <path id="DejaVuSans-Bold-73" d="M 3272 3391 
L 3272 2541 
Q 2913 2691 2578 2766 
Q 2244 2841 1947 2841 
Q 1628 2841 1473 2761 
Q 1319 2681 1319 2516 
Q 1319 2381 1436 2309 
Q 1553 2238 1856 2203 
L 2053 2175 
Q 2913 2066 3209 1816 
Q 3506 1566 3506 1031 
Q 3506 472 3093 190 
Q 2681 -91 1863 -91 
Q 1516 -91 1145 -36 
Q 775 19 384 128 
L 384 978 
Q 719 816 1070 734 
Q 1422 653 1784 653 
Q 2113 653 2278 743 
Q 2444 834 2444 1013 
Q 2444 1163 2330 1236 
Q 2216 1309 1875 1350 
L 1678 1375 
Q 931 1469 631 1722 
Q 331 1975 331 2491 
Q 331 3047 712 3315 
Q 1094 3584 1881 3584 
Q 2191 3584 2531 3537 
Q 2872 3491 3272 3391 
z
" transform="scale(0.015625)"/>
       <path id="DejaVuSans-Bold-65" d="M 4031 1759 
L 4031 1441 
L 1416 1441 
Q 1456 1047 1700 850 
Q 1944 653 2381 653 
Q 2734 653 3104 758 
Q 3475 863 3866 1075 
L 3866 213 
Q 3469 63 3072 -14 
Q 2675 -91 2278 -91 
Q 1328 -91 801 392 
Q 275 875 275 1747 
Q 275 2603 792 3093 
Q 1309 3584 2216 3584 
Q 3041 3584 3536 3087 
Q 4031 2591 4031 1759 
z
M 2881 2131 
Q 2881 2450 2695 2645 
Q 2509 2841 2209 2841 
Q 1884 2841 1681 2658 
Q 1478 2475 1428 2131 
L 2881 2131 
z
" transform="scale(0.015625)"/>
       <path id="DejaVuSans-Bold-64" d="M 2919 2988 
L 2919 4863 
L 4044 4863 
L 4044 0 
L 2919 0 
L 2919 506 
Q 2688 197 2409 53 
Q 2131 -91 1766 -91 
Q 1119 -91 703 423 
Q 288 938 288 1747 
Q 288 2556 703 3070 
Q 1119 3584 1766 3584 
Q 2128 3584 2408 3439 
Q 2688 3294 2919 2988 
z
M 2181 722 
Q 2541 722 2730 984 
Q 2919 1247 2919 1747 
Q 2919 2247 2730 2509 
Q 2541 2772 2181 2772 
Q 1825 2772 1636 2509 
Q 1447 2247 1447 1747 
Q 1447 1247 1636 984 
Q 1825 722 2181 722 
z
" transform="scale(0.015625)"/>
       <path id="DejaVuSans-Bold-29" d="M 513 -844 
Q 913 -100 1113 609 
Q 1313 1319 1313 2009 
Q 1313 2700 1113 3408 
Q 913 4116 513 4856 
L 1441 4856 
Q 1916 4091 2145 3389 
Q 2375 2688 2375 2003 
Q 2375 1319 2147 623 
Q 1919 -72 1441 -844 
L 513 -844 
z
" transform="scale(0.015625)"/>
      </defs>
      <use xlink:href="#DejaVuSans-Bold-28"/>
      <use xlink:href="#DejaVuSans-Bold-33" transform="translate(45.703125 0)"/>
      <use xlink:href="#DejaVuSans-Bold-30" transform="translate(115.283203 0)"/>
      <use xlink:href="#DejaVuSans-Bold-20" transform="translate(184.863281 0)"/>
      <use xlink:href="#DejaVuSans-Bold-73" transform="translate(219.677734 0)"/>
      <use xlink:href="#DejaVuSans-Bold-65" transform="translate(279.199219 0)"/>
      <use xlink:href="#DejaVuSans-Bold-64" transform="translate(347.021484 0)"/>
      <use xlink:href="#DejaVuSans-Bold-65" transform="translate(418.603516 0)"/>
      <use xlink:href="#DejaVuSans-Bold-73" transform="translate(486.425781 0)"/>
      <use xlink:href="#DejaVuSans-Bold-29" transform="translate(545.947266 0)"/>
     </g>
    </g>
   </g>
   <g id="text_2">
    <g clip-path="url(#p791613fe99)">
     <!-- A893 -->
     <g style="fill: #1c2833" transform="translate(105.486526 397.676948) scale(0.09 -0.09)">
      <use xlink:href="#DejaVuSans-Bold-41"/>
      <use xlink:href="#DejaVuSans-Bold-38" transform="translate(77.392578 0)"/>
      <use xlink:href="#DejaVuSans-Bold-39" transform="translate(146.972656 0)"/>
      <use xlink:href="#DejaVuSans-Bold-33" transform="translate(216.552734 0)"/>
     </g>
    </g>
    <g clip-path="url(#p791613fe99)">
     <!-- (30 sedes) -->
     <g style="fill: #1c2833" transform="translate(91.738323 407.754979) scale(0.09 -0.09)">
      <use xlink:href="#DejaVuSans-Bold-28"/>
      <use xlink:href="#DejaVuSans-Bold-33" transform="translate(45.703125 0)"/>
      <use xlink:href="#DejaVuSans-Bold-30" transform="translate(115.283203 0)"/>
      <use xlink:href="#DejaVuSans-Bold-20" transform="translate(184.863281 0)"/>
      <use xlink:href="#DejaVuSans-Bold-73" transform="translate(219.677734 0)"/>
      <use xlink:href="#DejaVuSans-Bold-65" transform="translate(279.199219 0)"/>
      <use xlink:href="#DejaVuSans-Bold-64" transform="translate(347.021484 0)"/>
      <use xlink:href="#DejaVuSans-Bold-65" transform="translate(418.603516 0)"/>
      <use xlink:href="#DejaVuSans-Bold-73" transform="translate(486.425781 0)"/>
      <use xlink:href="#DejaVuSans-Bold-29" transform="translate(545.947266 0)"/>
     </g>
    </g>
   </g>
   <g id="text_3">
    <g clip-path="url(#p791613fe99)">
     <!-- A892 -->
     <g style="fill: #1c2833" transform="translate(105.795078 615.715509) scale(0.09 -0.09)">
      <defs>
       <path id="DejaVuSans-Bold-32" d="M 1844 884 
L 3897 884 
L 3897 0 
L 506 0 
L 506 884 
L 2209 2388 
Q 2438 2594 2547 2791 
Q 2656 2988 2656 3200 
Q 2656 3528 2436 3728 
Q 2216 3928 1850 3928 
Q 1569 3928 1234 3808 
Q 900 3688 519 3450 
L 519 4475 
Q 925 4609 1322 4679 
Q 1719 4750 2100 4750 
Q 2938 4750 3402 4381 
Q 3866 4013 3866 3353 
Q 3866 2972 3669 2642 
Q 3472 2313 2841 1759 
L 1844 884 
z
" transform="scale(0.015625)"/>
      </defs>
      <use xlink:href="#DejaVuSans-Bold-41"/>
      <use xlink:href="#DejaVuSans-Bold-38" transform="translate(77.392578 0)"/>
      <use xlink:href="#DejaVuSans-Bold-39" transform="translate(146.972656 0)"/>
      <use xlink:href="#DejaVuSans-Bold-32" transform="translate(216.552734 0)"/>
     </g>
    </g>
    <g clip-path="url(#p791613fe99)">
     <!-- (30 sedes) -->
     <g style="fill: #1c2833" transform="translate(92.046875 625.79354) scale(0.09 -0.09)">
      <use xlink:href="#DejaVuSans-Bold-28"/>
      <use xlink:href="#DejaVuSans-Bold-33" transform="translate(45.703125 0)"/>
      <use xlink:href="#DejaVuSans-Bold-30" transform="translate(115.283203 0)"/>
      <use xlink:href="#DejaVuSans-Bold-20" transform="translate(184.863281 0)"/>
      <use xlink:href="#DejaVuSans-Bold-73" transform="translate(219.677734 0)"/>
      <use xlink:href="#DejaVuSans-Bold-65" transform="translate(279.199219 0)"/>
      <use xlink:href="#DejaVuSans-Bold-64" transform="translate(347.021484 0)"/>
      <use xlink:href="#DejaVuSans-Bold-65" transform="translate(418.603516 0)"/>
      <use xlink:href="#DejaVuSans-Bold-73" transform="translate(486.425781 0)"/>
      <use xlink:href="#DejaVuSans-Bold-29" transform="translate(545.947266 0)"/>
     </g>
    </g>
   </g>
   <g id="text_4">
    <g clip-path="url(#p791613fe99)">
     <!-- A898 -->
     <g style="fill: #1c2833" transform="translate(863.886554 505.623215) scale(0.09 -0.09)">
      <use xlink:href="#DejaVuSans-Bold-41"/>
      <use xlink:href="#DejaVuSans-Bold-38" transform="translate(77.392578 0)"/>
      <use xlink:href="#DejaVuSans-Bold-39" transform="translate(146.972656 0)"/>
      <use xlink:href="#DejaVuSans-Bold-38" transform="translate(216.552734 0)"/>
     </g>
    </g>
    <g clip-path="url(#p791613fe99)">
     <!-- (125 sedes) -->
     <g style="fill: #1c2833" transform="translate(847.007335 515.701247) scale(0.09 -0.09)">
      <defs>
       <path id="DejaVuSans-Bold-31" d="M 750 831 
L 1813 831 
L 1813 3847 
L 722 3622 
L 722 4441 
L 1806 4666 
L 2950 4666 
L 2950 831 
L 4013 831 
L 4013 0 
L 750 0 
L 750 831 
z
" transform="scale(0.015625)"/>
       <path id="DejaVuSans-Bold-35" d="M 678 4666 
L 3669 4666 
L 3669 3781 
L 1638 3781 
L 1638 3059 
Q 1775 3097 1914 3117 
Q 2053 3138 2203 3138 
Q 3056 3138 3531 2711 
Q 4006 2284 4006 1522 
Q 4006 766 3489 337 
Q 2972 -91 2053 -91 
Q 1656 -91 1267 -14 
Q 878 63 494 219 
L 494 1166 
Q 875 947 1217 837 
Q 1559 728 1863 728 
Q 2300 728 2551 942 
Q 2803 1156 2803 1522 
Q 2803 1891 2551 2103 
Q 2300 2316 1863 2316 
Q 1603 2316 1309 2248 
Q 1016 2181 678 2041 
L 678 4666 
z
" transform="scale(0.015625)"/>
      </defs>
      <use xlink:href="#DejaVuSans-Bold-28"/>
      <use xlink:href="#DejaVuSans-Bold-31" transform="translate(45.703125 0)"/>
      <use xlink:href="#DejaVuSans-Bold-32" transform="translate(115.283203 0)"/>
      <use xlink:href="#DejaVuSans-Bold-35" transform="translate(184.863281 0)"/>
      <use xlink:href="#DejaVuSans-Bold-20" transform="translate(254.443359 0)"/>
      <use xlink:href="#DejaVuSans-Bold-73" transform="translate(289.257812 0)"/>
      <use xlink:href="#DejaVuSans-Bold-65" transform="translate(348.779297 0)"/>
      <use xlink:href="#DejaVuSans-Bold-64" transform="translate(416.601562 0)"/>
      <use xlink:href="#DejaVuSans-Bold-65" transform="translate(488.183594 0)"/>
      <use xlink:href="#DejaVuSans-Bold-73" transform="translate(556.005859 0)"/>
      <use xlink:href="#DejaVuSans-Bold-29" transform="translate(615.527344 0)"/>
     </g>
    </g>
   </g>
   <g id="text_5">
    <g clip-path="url(#p791613fe99)">
     <!-- A891 -->
     <g style="fill: #1c2833" transform="translate(222.896475 752.220896) scale(0.09 -0.09)">
      <use xlink:href="#DejaVuSans-Bold-41"/>
      <use xlink:href="#DejaVuSans-Bold-38" transform="translate(77.392578 0)"/>
      <use xlink:href="#DejaVuSans-Bold-39" transform="translate(146.972656 0)"/>
      <use xlink:href="#DejaVuSans-Bold-31" transform="translate(216.552734 0)"/>
     </g>
    </g>
    <g clip-path="url(#p791613fe99)">
     <!-- (30 sedes) -->
     <g style="fill: #1c2833" transform="translate(209.148272 762.298927) scale(0.09 -0.09)">
      <use xlink:href="#DejaVuSans-Bold-28"/>
      <use xlink:href="#DejaVuSans-Bold-33" transform="translate(45.703125 0)"/>
      <use xlink:href="#DejaVuSans-Bold-30" transform="translate(115.283203 0)"/>
      <use xlink:href="#DejaVuSans-Bold-20" transform="translate(184.863281 0)"/>
      <use xlink:href="#DejaVuSans-Bold-73" transform="translate(219.677734 0)"/>
      <use xlink:href="#DejaVuSans-Bold-65" transform="translate(279.199219 0)"/>
      <use xlink:href="#DejaVuSans-Bold-64" transform="translate(347.021484 0)"/>
      <use xlink:href="#DejaVuSans-Bold-65" transform="translate(418.603516 0)"/>
      <use xlink:href="#DejaVuSans-Bold-73" transform="translate(486.425781 0)"/>
      <use xlink:href="#DejaVuSans-Bold-29" transform="translate(545.947266 0)"/>
     </g>
    </g>
   </g>
   <g id="text_6">
    <g clip-path="url(#p791613fe99)">
     <!-- A896 -->
     <g style="fill: #1c2833" transform="translate(637.177331 153.951973) scale(0.09 -0.09)">
      <defs>
       <path id="DejaVuSans-Bold-36" d="M 2316 2303 
Q 2000 2303 1842 2098 
Q 1684 1894 1684 1484 
Q 1684 1075 1842 870 
Q 2000 666 2316 666 
Q 2634 666 2792 870 
Q 2950 1075 2950 1484 
Q 2950 1894 2792 2098 
Q 2634 2303 2316 2303 
z
M 3803 4544 
L 3803 3681 
Q 3506 3822 3243 3889 
Q 2981 3956 2731 3956 
Q 2194 3956 1894 3657 
Q 1594 3359 1544 2772 
Q 1750 2925 1990 3001 
Q 2231 3078 2516 3078 
Q 3231 3078 3670 2659 
Q 4109 2241 4109 1563 
Q 4109 813 3618 361 
Q 3128 -91 2303 -91 
Q 1394 -91 895 523 
Q 397 1138 397 2266 
Q 397 3422 980 4083 
Q 1563 4744 2578 4744 
Q 2900 4744 3203 4694 
Q 3506 4644 3803 4544 
z
" transform="scale(0.015625)"/>
      </defs>
      <use xlink:href="#DejaVuSans-Bold-41"/>
      <use xlink:href="#DejaVuSans-Bold-38" transform="translate(77.392578 0)"/>
      <use xlink:href="#DejaVuSans-Bold-39" transform="translate(146.972656 0)"/>
      <use xlink:href="#DejaVuSans-Bold-36" transform="translate(216.552734 0)"/>
     </g>
    </g>
    <g clip-path="url(#p791613fe99)">
     <!-- (50 sedes) -->
     <g style="fill: #1c2833" transform="translate(623.429128 164.030004) scale(0.09 -0.09)">
      <use xlink:href="#DejaVuSans-Bold-28"/>
      <use xlink:href="#DejaVuSans-Bold-35" transform="translate(45.703125 0)"/>
      <use xlink:href="#DejaVuSans-Bold-30" transform="translate(115.283203 0)"/>
      <use xlink:href="#DejaVuSans-Bold-20" transform="translate(184.863281 0)"/>
      <use xlink:href="#DejaVuSans-Bold-73" transform="translate(219.677734 0)"/>
      <use xlink:href="#DejaVuSans-Bold-65" transform="translate(279.199219 0)"/>
      <use xlink:href="#DejaVuSans-Bold-64" transform="translate(347.021484 0)"/>
      <use xlink:href="#DejaVuSans-Bold-65" transform="translate(418.603516 0)"/>
      <use xlink:href="#DejaVuSans-Bold-73" transform="translate(486.425781 0)"/>
      <use xlink:href="#DejaVuSans-Bold-29" transform="translate(545.947266 0)"/>
     </g>
    </g>
   </g>
   <g id="text_7">
    <g clip-path="url(#p791613fe99)">
     <!-- A899 -->
     <g style="fill: #1c2833" transform="translate(802.754046 714.916612) scale(0.09 -0.09)">
      <use xlink:href="#DejaVuSans-Bold-41"/>
      <use xlink:href="#DejaVuSans-Bold-38" transform="translate(77.392578 0)"/>
      <use xlink:href="#DejaVuSans-Bold-39" transform="translate(146.972656 0)"/>
      <use xlink:href="#DejaVuSans-Bold-39" transform="translate(216.552734 0)"/>
     </g>
    </g>
    <g clip-path="url(#p791613fe99)">
     <!-- (250 sedes) -->
     <g style="fill: #1c2833" transform="translate(785.874827 724.994643) scale(0.09 -0.09)">
      <use xlink:href="#DejaVuSans-Bold-28"/>
      <use xlink:href="#DejaVuSans-Bold-32" transform="translate(45.703125 0)"/>
      <use xlink:href="#DejaVuSans-Bold-35" transform="translate(115.283203 0)"/>
      <use xlink:href="#DejaVuSans-Bold-30" transform="translate(184.863281 0)"/>
      <use xlink:href="#DejaVuSans-Bold-20" transform="translate(254.443359 0)"/>
      <use xlink:href="#DejaVuSans-Bold-73" transform="translate(289.257812 0)"/>
      <use xlink:href="#DejaVuSans-Bold-65" transform="translate(348.779297 0)"/>
      <use xlink:href="#DejaVuSans-Bold-64" transform="translate(416.601562 0)"/>
      <use xlink:href="#DejaVuSans-Bold-65" transform="translate(488.183594 0)"/>
      <use xlink:href="#DejaVuSans-Bold-73" transform="translate(556.005859 0)"/>
      <use xlink:href="#DejaVuSans-Bold-29" transform="translate(615.527344 0)"/>
     </g>
    </g>
   </g>
   <g id="text_8">
    <g clip-path="url(#p791613fe99)">
     <!-- A895 -->
     <g style="fill: #1c2833" transform="translate(421.314176 123.227262) scale(0.09 -0.09)">
      <use xlink:href="#DejaVuSans-Bold-41"/>
      <use xlink:href="#DejaVuSans-Bold-38" transform="translate(77.392578 0)"/>
      <use xlink:href="#DejaVuSans-Bold-39" transform="translate(146.972656 0)"/>
      <use xlink:href="#DejaVuSans-Bold-35" transform="translate(216.552734 0)"/>
     </g>
    </g>
    <g clip-path="url(#p791613fe99)">
     <!-- (40 sedes) -->
     <g style="fill: #1c2833" transform="translate(407.565973 133.305293) scale(0.09 -0.09)">
      <use xlink:href="#DejaVuSans-Bold-28"/>
      <use xlink:href="#DejaVuSans-Bold-34" transform="translate(45.703125 0)"/>
      <use xlink:href="#DejaVuSans-Bold-30" transform="translate(115.283203 0)"/>
      <use xlink:href="#DejaVuSans-Bold-20" transform="translate(184.863281 0)"/>
      <use xlink:href="#DejaVuSans-Bold-73" transform="translate(219.677734 0)"/>
      <use xlink:href="#DejaVuSans-Bold-65" transform="translate(279.199219 0)"/>
      <use xlink:href="#DejaVuSans-Bold-64" transform="translate(347.021484 0)"/>
      <use xlink:href="#DejaVuSans-Bold-65" transform="translate(418.603516 0)"/>
      <use xlink:href="#DejaVuSans-Bold-73" transform="translate(486.425781 0)"/>
      <use xlink:href="#DejaVuSans-Bold-29" transform="translate(545.947266 0)"/>
     </g>
    </g>
   </g>
   <g id="text_9">
    <g clip-path="url(#p791613fe99)">
     <!-- A897 -->
     <g style="fill: #1c2833" transform="translate(802.161939 296.503677) scale(0.09 -0.09)">
      <defs>
       <path id="DejaVuSans-Bold-37" d="M 428 4666 
L 3944 4666 
L 3944 3988 
L 2125 0 
L 953 0 
L 2675 3781 
L 428 3781 
L 428 4666 
z
" transform="scale(0.015625)"/>
      </defs>
      <use xlink:href="#DejaVuSans-Bold-41"/>
      <use xlink:href="#DejaVuSans-Bold-38" transform="translate(77.392578 0)"/>
      <use xlink:href="#DejaVuSans-Bold-39" transform="translate(146.972656 0)"/>
      <use xlink:href="#DejaVuSans-Bold-37" transform="translate(216.552734 0)"/>
     </g>
    </g>
    <g clip-path="url(#p791613fe99)">
     <!-- (100 sedes) -->
     <g style="fill: #1c2833" transform="translate(785.28272 306.581708) scale(0.09 -0.09)">
      <use xlink:href="#DejaVuSans-Bold-28"/>
      <use xlink:href="#DejaVuSans-Bold-31" transform="translate(45.703125 0)"/>
      <use xlink:href="#DejaVuSans-Bold-30" transform="translate(115.283203 0)"/>
      <use xlink:href="#DejaVuSans-Bold-30" transform="translate(184.863281 0)"/>
      <use xlink:href="#DejaVuSans-Bold-20" transform="translate(254.443359 0)"/>
      <use xlink:href="#DejaVuSans-Bold-73" transform="translate(289.257812 0)"/>
      <use xlink:href="#DejaVuSans-Bold-65" transform="translate(348.779297 0)"/>
      <use xlink:href="#DejaVuSans-Bold-64" transform="translate(416.601562 0)"/>
      <use xlink:href="#DejaVuSans-Bold-65" transform="translate(488.183594 0)"/>
      <use xlink:href="#DejaVuSans-Bold-73" transform="translate(556.005859 0)"/>
      <use xlink:href="#DejaVuSans-Bold-29" transform="translate(615.527344 0)"/>
     </g>
    </g>
   </g>
   <g id="text_10">
    <g clip-path="url(#p791613fe99)">
     <!-- A900 -->
     <g style="fill: #1c2833" transform="translate(476.926375 506.170813) scale(0.09 -0.09)">
      <use xlink:href="#DejaVuSans-Bold-41"/>
      <use xlink:href="#DejaVuSans-Bold-39" transform="translate(77.392578 0)"/>
      <use xlink:href="#DejaVuSans-Bold-30" transform="translate(146.972656 0)"/>
      <use xlink:href="#DejaVuSans-Bold-30" transform="translate(216.552734 0)"/>
     </g>
    </g>
    <g clip-path="url(#p791613fe99)">
     <!-- (Datacenter) -->
     <g style="fill: #1c2833" transform="translate(457.383016 516.248844) scale(0.09 -0.09)">
      <defs>
       <path id="DejaVuSans-Bold-44" d="M 1791 3756 
L 1791 909 
L 2222 909 
Q 2959 909 3348 1275 
Q 3738 1641 3738 2338 
Q 3738 3031 3350 3393 
Q 2963 3756 2222 3756 
L 1791 3756 
z
M 588 4666 
L 1856 4666 
Q 2919 4666 3439 4514 
Q 3959 4363 4331 4000 
Q 4659 3684 4818 3271 
Q 4978 2859 4978 2338 
Q 4978 1809 4818 1395 
Q 4659 981 4331 666 
Q 3956 303 3431 151 
Q 2906 0 1856 0 
L 588 0 
L 588 4666 
z
" transform="scale(0.015625)"/>
       <path id="DejaVuSans-Bold-61" d="M 2106 1575 
Q 1756 1575 1579 1456 
Q 1403 1338 1403 1106 
Q 1403 894 1545 773 
Q 1688 653 1941 653 
Q 2256 653 2472 879 
Q 2688 1106 2688 1447 
L 2688 1575 
L 2106 1575 
z
M 3816 1997 
L 3816 0 
L 2688 0 
L 2688 519 
Q 2463 200 2181 54 
Q 1900 -91 1497 -91 
Q 953 -91 614 226 
Q 275 544 275 1050 
Q 275 1666 698 1953 
Q 1122 2241 2028 2241 
L 2688 2241 
L 2688 2328 
Q 2688 2594 2478 2717 
Q 2269 2841 1825 2841 
Q 1466 2841 1156 2769 
Q 847 2697 581 2553 
L 581 3406 
Q 941 3494 1303 3539 
Q 1666 3584 2028 3584 
Q 2975 3584 3395 3211 
Q 3816 2838 3816 1997 
z
" transform="scale(0.015625)"/>
       <path id="DejaVuSans-Bold-74" d="M 1759 4494 
L 1759 3500 
L 2913 3500 
L 2913 2700 
L 1759 2700 
L 1759 1216 
Q 1759 972 1856 886 
Q 1953 800 2241 800 
L 2816 800 
L 2816 0 
L 1856 0 
Q 1194 0 917 276 
Q 641 553 641 1216 
L 641 2700 
L 84 2700 
L 84 3500 
L 641 3500 
L 641 4494 
L 1759 4494 
z
" transform="scale(0.015625)"/>
       <path id="DejaVuSans-Bold-63" d="M 3366 3391 
L 3366 2478 
Q 3138 2634 2908 2709 
Q 2678 2784 2431 2784 
Q 1963 2784 1702 2511 
Q 1441 2238 1441 1747 
Q 1441 1256 1702 982 
Q 1963 709 2431 709 
Q 2694 709 2930 787 
Q 3166 866 3366 1019 
L 3366 103 
Q 3103 6 2833 -42 
Q 2563 -91 2291 -91 
Q 1344 -91 809 395 
Q 275 881 275 1747 
Q 275 2613 809 3098 
Q 1344 3584 2291 3584 
Q 2566 3584 2833 3536 
Q 3100 3488 3366 3391 
z
" transform="scale(0.015625)"/>
       <path id="DejaVuSans-Bold-6e" d="M 4056 2131 
L 4056 0 
L 2931 0 
L 2931 347 
L 2931 1631 
Q 2931 2084 2911 2256 
Q 2891 2428 2841 2509 
Q 2775 2619 2662 2680 
Q 2550 2741 2406 2741 
Q 2056 2741 1856 2470 
Q 1656 2200 1656 1722 
L 1656 0 
L 538 0 
L 538 3500 
L 1656 3500 
L 1656 2988 
Q 1909 3294 2193 3439 
Q 2478 3584 2822 3584 
Q 3428 3584 3742 3212 
Q 4056 2841 4056 2131 
z
" transform="scale(0.015625)"/>
       <path id="DejaVuSans-Bold-72" d="M 3138 2547 
Q 2991 2616 2845 2648 
Q 2700 2681 2553 2681 
Q 2122 2681 1889 2404 
Q 1656 2128 1656 1613 
L 1656 0 
L 538 0 
L 538 3500 
L 1656 3500 
L 1656 2925 
Q 1872 3269 2151 3426 
Q 2431 3584 2822 3584 
Q 2878 3584 2943 3579 
Q 3009 3575 3134 3559 
L 3138 2547 
z
" transform="scale(0.015625)"/>
      </defs>
      <use xlink:href="#DejaVuSans-Bold-28"/>
      <use xlink:href="#DejaVuSans-Bold-44" transform="translate(45.703125 0)"/>
      <use xlink:href="#DejaVuSans-Bold-61" transform="translate(128.710938 0)"/>
      <use xlink:href="#DejaVuSans-Bold-74" transform="translate(196.191406 0)"/>
      <use xlink:href="#DejaVuSans-Bold-61" transform="translate(243.994141 0)"/>
      <use xlink:href="#DejaVuSans-Bold-63" transform="translate(311.474609 0)"/>
      <use xlink:href="#DejaVuSans-Bold-65" transform="translate(370.751953 0)"/>
      <use xlink:href="#DejaVuSans-Bold-6e" transform="translate(438.574219 0)"/>
      <use xlink:href="#DejaVuSans-Bold-74" transform="translate(509.765625 0)"/>
      <use xlink:href="#DejaVuSans-Bold-65" transform="translate(557.568359 0)"/>
      <use xlink:href="#DejaVuSans-Bold-72" transform="translate(625.390625 0)"/>
      <use xlink:href="#DejaVuSans-Bold-29" transform="translate(674.707031 0)"/>
     </g>
    </g>
   </g>
   <g id="text_11">
    <!-- Topología ABAST — Anillos troncales + agregación (sin acceso) -->
    <g style="fill: #1c2833" transform="translate(253.343406 19.197656) scale(0.15 -0.15)">
     <defs>
      <path id="DejaVuSans-54" d="M -19 4666 
L 3928 4666 
L 3928 4134 
L 2272 4134 
L 2272 0 
L 1638 0 
L 1638 4134 
L -19 4134 
L -19 4666 
z
" transform="scale(0.015625)"/>
      <path id="DejaVuSans-6f" d="M 1959 3097 
Q 1497 3097 1228 2736 
Q 959 2375 959 1747 
Q 959 1119 1226 758 
Q 1494 397 1959 397 
Q 2419 397 2687 759 
Q 2956 1122 2956 1747 
Q 2956 2369 2687 2733 
Q 2419 3097 1959 3097 
z
M 1959 3584 
Q 2709 3584 3137 3096 
Q 3566 2609 3566 1747 
Q 3566 888 3137 398 
Q 2709 -91 1959 -91 
Q 1206 -91 779 398 
Q 353 888 353 1747 
Q 353 2609 779 3096 
Q 1206 3584 1959 3584 
z
" transform="scale(0.015625)"/>
      <path id="DejaVuSans-70" d="M 1159 525 
L 1159 -1331 
L 581 -1331 
L 581 3500 
L 1159 3500 
L 1159 2969 
Q 1341 3281 1617 3432 
Q 1894 3584 2278 3584 
Q 2916 3584 3314 3078 
Q 3713 2572 3713 1747 
Q 3713 922 3314 415 
Q 2916 -91 2278 -91 
Q 1894 -91 1617 61 
Q 1341 213 1159 525 
z
M 3116 1747 
Q 3116 2381 2855 2742 
Q 2594 3103 2138 3103 
Q 1681 3103 1420 2742 
Q 1159 2381 1159 1747 
Q 1159 1113 1420 752 
Q 1681 391 2138 391 
Q 2594 391 2855 752 
Q 3116 1113 3116 1747 
z
" transform="scale(0.015625)"/>
      <path id="DejaVuSans-6c" d="M 603 4863 
L 1178 4863 
L 1178 0 
L 603 0 
L 603 4863 
z
" transform="scale(0.015625)"/>
      <path id="DejaVuSans-67" d="M 2906 1791 
Q 2906 2416 2648 2759 
Q 2391 3103 1925 3103 
Q 1463 3103 1205 2759 
Q 947 2416 947 1791 
Q 947 1169 1205 825 
Q 1463 481 1925 481 
Q 2391 481 2648 825 
Q 2906 1169 2906 1791 
z
M 3481 434 
Q 3481 -459 3084 -895 
Q 2688 -1331 1869 -1331 
Q 1566 -1331 1297 -1286 
Q 1028 -1241 775 -1147 
L 775 -588 
Q 1028 -725 1275 -790 
Q 1522 -856 1778 -856 
Q 2344 -856 2625 -561 
Q 2906 -266 2906 331 
L 2906 616 
Q 2728 306 2450 153 
Q 2172 0 1784 0 
Q 1141 0 747 490 
Q 353 981 353 1791 
Q 353 2603 747 3093 
Q 1141 3584 1784 3584 
Q 2172 3584 2450 3431 
Q 2728 3278 2906 2969 
L 2906 3500 
L 3481 3500 
L 3481 434 
z
" transform="scale(0.015625)"/>
      <path id="DejaVuSans-ed" d="M 1322 5119 
L 1944 5119 
L 926 3944 
L 447 3944 
L 1322 5119 
z
M 603 3500 
L 1178 3500 
L 1178 0 
L 603 0 
L 603 3500 
z
M 891 3584 
L 891 3584 
z
" transform="scale(0.015625)"/>
      <path id="DejaVuSans-61" d="M 2194 1759 
Q 1497 1759 1228 1600 
Q 959 1441 959 1056 
Q 959 750 1161 570 
Q 1363 391 1709 391 
Q 2188 391 2477 730 
Q 2766 1069 2766 1631 
L 2766 1759 
L 2194 1759 
z
M 3341 1997 
L 3341 0 
L 2766 0 
L 2766 531 
Q 2569 213 2275 61 
Q 1981 -91 1556 -91 
Q 1019 -91 701 211 
Q 384 513 384 1019 
Q 384 1609 779 1909 
Q 1175 2209 1959 2209 
L 2766 2209 
L 2766 2266 
Q 2766 2663 2505 2880 
Q 2244 3097 1772 3097 
Q 1472 3097 1187 3025 
Q 903 2953 641 2809 
L 641 3341 
Q 956 3463 1253 3523 
Q 1550 3584 1831 3584 
Q 2591 3584 2966 3190 
Q 3341 2797 3341 1997 
z
" transform="scale(0.015625)"/>
      <path id="DejaVuSans-20" transform="scale(0.015625)"/>
      <path id="DejaVuSans-41" d="M 2188 4044 
L 1331 1722 
L 3047 1722 
L 2188 4044 
z
M 1831 4666 
L 2547 4666 
L 4325 0 
L 3669 0 
L 3244 1197 
L 1141 1197 
L 716 0 
L 50 0 
L 1831 4666 
z
" transform="scale(0.015625)"/>
      <path id="DejaVuSans-42" d="M 1259 2228 
L 1259 519 
L 2272 519 
Q 2781 519 3026 730 
Q 3272 941 3272 1375 
Q 3272 1813 3026 2020 
Q 2781 2228 2272 2228 
L 1259 2228 
z
M 1259 4147 
L 1259 2741 
L 2194 2741 
Q 2656 2741 2882 2914 
Q 3109 3088 3109 3444 
Q 3109 3797 2882 3972 
Q 2656 4147 2194 4147 
L 1259 4147 
z
M 628 4666 
L 2241 4666 
Q 2963 4666 3353 4366 
Q 3744 4066 3744 3513 
Q 3744 3084 3544 2831 
Q 3344 2578 2956 2516 
Q 3422 2416 3680 2098 
Q 3938 1781 3938 1306 
Q 3938 681 3513 340 
Q 3088 0 2303 0 
L 628 0 
L 628 4666 
z
" transform="scale(0.015625)"/>
      <path id="DejaVuSans-53" d="M 3425 4513 
L 3425 3897 
Q 3066 4069 2747 4153 
Q 2428 4238 2131 4238 
Q 1616 4238 1336 4038 
Q 1056 3838 1056 3469 
Q 1056 3159 1242 3001 
Q 1428 2844 1947 2747 
L 2328 2669 
Q 3034 2534 3370 2195 
Q 3706 1856 3706 1288 
Q 3706 609 3251 259 
Q 2797 -91 1919 -91 
Q 1588 -91 1214 -16 
Q 841 59 441 206 
L 441 856 
Q 825 641 1194 531 
Q 1563 422 1919 422 
Q 2459 422 2753 634 
Q 3047 847 3047 1241 
Q 3047 1584 2836 1778 
Q 2625 1972 2144 2069 
L 1759 2144 
Q 1053 2284 737 2584 
Q 422 2884 422 3419 
Q 422 4038 858 4394 
Q 1294 4750 2059 4750 
Q 2388 4750 2728 4690 
Q 3069 4631 3425 4513 
z
" transform="scale(0.015625)"/>
      <path id="DejaVuSans-2014" d="M 313 1978 
L 6088 1978 
L 6088 1528 
L 313 1528 
L 313 1978 
z
" transform="scale(0.015625)"/>
      <path id="DejaVuSans-6e" d="M 3513 2113 
L 3513 0 
L 2938 0 
L 2938 2094 
Q 2938 2591 2744 2837 
Q 2550 3084 2163 3084 
Q 1697 3084 1428 2787 
Q 1159 2491 1159 1978 
L 1159 0 
L 581 0 
L 581 3500 
L 1159 3500 
L 1159 2956 
Q 1366 3272 1645 3428 
Q 1925 3584 2291 3584 
Q 2894 3584 3203 3211 
Q 3513 2838 3513 2113 
z
" transform="scale(0.015625)"/>
      <path id="DejaVuSans-69" d="M 603 3500 
L 1178 3500 
L 1178 0 
L 603 0 
L 603 3500 
z
M 603 4863 
L 1178 4863 
L 1178 4134 
L 603 4134 
L 603 4863 
z
" transform="scale(0.015625)"/>
      <path id="DejaVuSans-73" d="M 2834 3397 
L 2834 2853 
Q 2591 2978 2328 3040 
Q 2066 3103 1784 3103 
Q 1356 3103 1142 2972 
Q 928 2841 928 2578 
Q 928 2378 1081 2264 
Q 1234 2150 1697 2047 
L 1894 2003 
Q 2506 1872 2764 1633 
Q 3022 1394 3022 966 
Q 3022 478 2636 193 
Q 2250 -91 1575 -91 
Q 1294 -91 989 -36 
Q 684 19 347 128 
L 347 722 
Q 666 556 975 473 
Q 1284 391 1588 391 
Q 1994 391 2212 530 
Q 2431 669 2431 922 
Q 2431 1156 2273 1281 
Q 2116 1406 1581 1522 
L 1381 1569 
Q 847 1681 609 1914 
Q 372 2147 372 2553 
Q 372 3047 722 3315 
Q 1072 3584 1716 3584 
Q 2034 3584 2315 3537 
Q 2597 3491 2834 3397 
z
" transform="scale(0.015625)"/>
      <path id="DejaVuSans-74" d="M 1172 4494 
L 1172 3500 
L 2356 3500 
L 2356 3053 
L 1172 3053 
L 1172 1153 
Q 1172 725 1289 603 
Q 1406 481 1766 481 
L 2356 481 
L 2356 0 
L 1766 0 
Q 1100 0 847 248 
Q 594 497 594 1153 
L 594 3053 
L 172 3053 
L 172 3500 
L 594 3500 
L 594 4494 
L 1172 4494 
z
" transform="scale(0.015625)"/>
      <path id="DejaVuSans-72" d="M 2631 2963 
Q 2534 3019 2420 3045 
Q 2306 3072 2169 3072 
Q 1681 3072 1420 2755 
Q 1159 2438 1159 1844 
L 1159 0 
L 581 0 
L 581 3500 
L 1159 3500 
L 1159 2956 
Q 1341 3275 1631 3429 
Q 1922 3584 2338 3584 
Q 2397 3584 2469 3576 
Q 2541 3569 2628 3553 
L 2631 2963 
z
" transform="scale(0.015625)"/>
      <path id="DejaVuSans-63" d="M 3122 3366 
L 3122 2828 
Q 2878 2963 2633 3030 
Q 2388 3097 2138 3097 
Q 1578 3097 1268 2742 
Q 959 2388 959 1747 
Q 959 1106 1268 751 
Q 1578 397 2138 397 
Q 2388 397 2633 464 
Q 2878 531 3122 666 
L 3122 134 
Q 2881 22 2623 -34 
Q 2366 -91 2075 -91 
Q 1284 -91 818 406 
Q 353 903 353 1747 
Q 353 2603 823 3093 
Q 1294 3584 2113 3584 
Q 2378 3584 2631 3529 
Q 2884 3475 3122 3366 
z
" transform="scale(0.015625)"/>
      <path id="DejaVuSans-65" d="M 3597 1894 
L 3597 1613 
L 953 1613 
Q 991 1019 1311 708 
Q 1631 397 2203 397 
Q 2534 397 2845 478 
Q 3156 559 3463 722 
L 3463 178 
Q 3153 47 2828 -22 
Q 2503 -91 2169 -91 
Q 1331 -91 842 396 
Q 353 884 353 1716 
Q 353 2575 817 3079 
Q 1281 3584 2069 3584 
Q 2775 3584 3186 3129 
Q 3597 2675 3597 1894 
z
M 3022 2063 
Q 3016 2534 2758 2815 
Q 2500 3097 2075 3097 
Q 1594 3097 1305 2825 
Q 1016 2553 972 2059 
L 3022 2063 
z
" transform="scale(0.015625)"/>
      <path id="DejaVuSans-2b" d="M 2944 4013 
L 2944 2272 
L 4684 2272 
L 4684 1741 
L 2944 1741 
L 2944 0 
L 2419 0 
L 2419 1741 
L 678 1741 
L 678 2272 
L 2419 2272 
L 2419 4013 
L 2944 4013 
z
" transform="scale(0.015625)"/>
      <path id="DejaVuSans-f3" d="M 1959 3097 
Q 1497 3097 1228 2736 
Q 959 2375 959 1747 
Q 959 1119 1226 758 
Q 1494 397 1959 397 
Q 2419 397 2687 759 
Q 2956 1122 2956 1747 
Q 2956 2369 2687 2733 
Q 2419 3097 1959 3097 
z
M 1959 3584 
Q 2709 3584 3137 3096 
Q 3566 2609 3566 1747 
Q 3566 888 3137 398 
Q 2709 -91 1959 -91 
Q 1206 -91 779 398 
Q 353 888 353 1747 
Q 353 2609 779 3096 
Q 1206 3584 1959 3584 
z
M 2394 5119 
L 3016 5119 
L 1998 3944 
L 1519 3944 
L 2394 5119 
z
" transform="scale(0.015625)"/>
      <path id="DejaVuSans-28" d="M 1984 4856 
Q 1566 4138 1362 3434 
Q 1159 2731 1159 2009 
Q 1159 1288 1364 580 
Q 1569 -128 1984 -844 
L 1484 -844 
Q 1016 -109 783 600 
Q 550 1309 550 2009 
Q 550 2706 781 3412 
Q 1013 4119 1484 4856 
L 1984 4856 
z
" transform="scale(0.015625)"/>
      <path id="DejaVuSans-29" d="M 513 4856 
L 1013 4856 
Q 1481 4119 1714 3412 
Q 1947 2706 1947 2009 
Q 1947 1309 1714 600 
Q 1481 -109 1013 -844 
L 513 -844 
Q 928 -128 1133 580 
Q 1338 1288 1338 2009 
Q 1338 2731 1133 3434 
Q 928 4138 513 4856 
z
" transform="scale(0.015625)"/>
     </defs>
     <use xlink:href="#DejaVuSans-54"/>
     <use xlink:href="#DejaVuSans-6f" transform="translate(44.083984 0)"/>
     <use xlink:href="#DejaVuSans-70" transform="translate(105.265625 0)"/>
     <use xlink:href="#DejaVuSans-6f" transform="translate(168.742188 0)"/>
     <use xlink:href="#DejaVuSans-6c" transform="translate(229.923828 0)"/>
     <use xlink:href="#DejaVuSans-6f" transform="translate(257.707031 0)"/>
     <use xlink:href="#DejaVuSans-67" transform="translate(318.888672 0)"/>
     <use xlink:href="#DejaVuSans-ed" transform="translate(382.365234 0)"/>
     <use xlink:href="#DejaVuSans-61" transform="translate(410.148438 0)"/>
     <use xlink:href="#DejaVuSans-20" transform="translate(471.427734 0)"/>
     <use xlink:href="#DejaVuSans-41" transform="translate(503.214844 0)"/>
     <use xlink:href="#DejaVuSans-42" transform="translate(571.623047 0)"/>
     <use xlink:href="#DejaVuSans-41" transform="translate(640.226562 0)"/>
     <use xlink:href="#DejaVuSans-53" transform="translate(708.634766 0)"/>
     <use xlink:href="#DejaVuSans-54" transform="translate(772.111328 0)"/>
     <use xlink:href="#DejaVuSans-20" transform="translate(833.195312 0)"/>
     <use xlink:href="#DejaVuSans-2014" transform="translate(864.982422 0)"/>
     <use xlink:href="#DejaVuSans-20" transform="translate(964.982422 0)"/>
     <use xlink:href="#DejaVuSans-41" transform="translate(996.769531 0)"/>
     <use xlink:href="#DejaVuSans-6e" transform="translate(1065.177734 0)"/>
     <use xlink:href="#DejaVuSans-69" transform="translate(1128.556641 0)"/>
     <use xlink:href="#DejaVuSans-6c" transform="translate(1156.339844 0)"/>
     <use xlink:href="#DejaVuSans-6c" transform="translate(1184.123047 0)"/>
     <use xlink:href="#DejaVuSans-6f" transform="translate(1211.90625 0)"/>
     <use xlink:href="#DejaVuSans-73" transform="translate(1273.087891 0)"/>
     <use xlink:href="#DejaVuSans-20" transform="translate(1325.1875 0)"/>
     <use xlink:href="#DejaVuSans-74" transform="translate(1356.974609 0)"/>
     <use xlink:href="#DejaVuSans-72" transform="translate(1396.183594 0)"/>
     <use xlink:href="#DejaVuSans-6f" transform="translate(1435.046875 0)"/>
     <use xlink:href="#DejaVuSans-6e" transform="translate(1496.228516 0)"/>
     <use xlink:href="#DejaVuSans-63" transform="translate(1559.607422 0)"/>
     <use xlink:href="#DejaVuSans-61" transform="translate(1614.587891 0)"/>
     <use xlink:href="#DejaVuSans-6c" transform="translate(1675.867188 0)"/>
     <use xlink:href="#DejaVuSans-65" transform="translate(1703.650391 0)"/>
     <use xlink:href="#DejaVuSans-73" transform="translate(1765.173828 0)"/>
     <use xlink:href="#DejaVuSans-20" transform="translate(1817.273438 0)"/>
     <use xlink:href="#DejaVuSans-2b" transform="translate(1849.060547 0)"/>
     <use xlink:href="#DejaVuSans-20" transform="translate(1932.849609 0)"/>
     <use xlink:href="#DejaVuSans-61" transform="translate(1964.636719 0)"/>
     <use xlink:href="#DejaVuSans-67" transform="translate(2025.916016 0)"/>
     <use xlink:href="#DejaVuSans-72" transform="translate(2089.392578 0)"/>
     <use xlink:href="#DejaVuSans-65" transform="translate(2128.255859 0)"/>
     <use xlink:href="#DejaVuSans-67" transform="translate(2189.779297 0)"/>
     <use xlink:href="#DejaVuSans-61" transform="translate(2253.255859 0)"/>
     <use xlink:href="#DejaVuSans-63" transform="translate(2314.535156 0)"/>
     <use xlink:href="#DejaVuSans-69" transform="translate(2369.515625 0)"/>
     <use xlink:href="#DejaVuSans-f3" transform="translate(2397.298828 0)"/>
     <use xlink:href="#DejaVuSans-6e" transform="translate(2458.480469 0)"/>
     <use xlink:href="#DejaVuSans-20" transform="translate(2521.859375 0)"/>
     <use xlink:href="#DejaVuSans-28" transform="translate(2553.646484 0)"/>
     <use xlink:href="#DejaVuSans-73" transform="translate(2592.660156 0)"/>
     <use xlink:href="#DejaVuSans-69" transform="translate(2644.759766 0)"/>
     <use xlink:href="#DejaVuSans-6e" transform="translate(2672.542969 0)"/>
     <use xlink:href="#DejaVuSans-20" transform="translate(2735.921875 0)"/>
     <use xlink:href="#DejaVuSans-61" transform="translate(2767.708984 0)"/>
     <use xlink:href="#DejaVuSans-63" transform="translate(2828.988281 0)"/>
     <use xlink:href="#DejaVuSans-63" transform="translate(2883.96875 0)"/>
     <use xlink:href="#DejaVuSans-65" transform="translate(2938.949219 0)"/>
     <use xlink:href="#DejaVuSans-73" transform="translate(3000.472656 0)"/>
     <use xlink:href="#DejaVuSans-6f" transform="translate(3052.572266 0)"/>
     <use xlink:href="#DejaVuSans-29" transform="translate(3113.753906 0)"/>
    </g>
   </g>
   <g id="legend_1">
    <g id="line2d_1">
     <path d="M 1001.60808 53.605938 
L 1012.60808 53.605938 
L 1023.60808 53.605938 
" style="fill: none; stroke: #ffffff; stroke-width: 1.5; stroke-linecap: square"/>
     <defs>
      <path id="m83196b3bc6" d="M 0 7.5 
C 1.989023 7.5 3.896849 6.709753 5.303301 5.303301 
C 6.709753 3.896849 7.5 1.989023 7.5 0 
C 7.5 -1.989023 6.709753 -3.896849 5.303301 -5.303301 
C 3.896849 -6.709753 1.989023 -7.5 0 -7.5 
C -1.989023 -7.5 -3.896849 -6.709753 -5.303301 -5.303301 
C -6.709753 -3.896849 -7.5 -1.989023 -7.5 0 
C -7.5 1.989023 -6.709753 3.896849 -5.303301 5.303301 
C -3.896849 6.709753 -1.989023 7.5 0 7.5 
z
" style="stroke: #ffffff"/>
     </defs>
     <g>
      <use xlink:href="#m83196b3bc6" x="1012.60808" y="53.605938" style="fill: #d35400; stroke: #ffffff"/>
     </g>
    </g>
    <g id="text_12">
     <!-- A900 (Datacenter) -->
     <g transform="translate(1032.40808 57.455938) scale(0.11 -0.11)">
      <defs>
       <path id="DejaVuSans-39" d="M 703 97 
L 703 672 
Q 941 559 1184 500 
Q 1428 441 1663 441 
Q 2288 441 2617 861 
Q 2947 1281 2994 2138 
Q 2813 1869 2534 1725 
Q 2256 1581 1919 1581 
Q 1219 1581 811 2004 
Q 403 2428 403 3163 
Q 403 3881 828 4315 
Q 1253 4750 1959 4750 
Q 2769 4750 3195 4129 
Q 3622 3509 3622 2328 
Q 3622 1225 3098 567 
Q 2575 -91 1691 -91 
Q 1453 -91 1209 -44 
Q 966 3 703 97 
z
M 1959 2075 
Q 2384 2075 2632 2365 
Q 2881 2656 2881 3163 
Q 2881 3666 2632 3958 
Q 2384 4250 1959 4250 
Q 1534 4250 1286 3958 
Q 1038 3666 1038 3163 
Q 1038 2656 1286 2365 
Q 1534 2075 1959 2075 
z
" transform="scale(0.015625)"/>
       <path id="DejaVuSans-30" d="M 2034 4250 
Q 1547 4250 1301 3770 
Q 1056 3291 1056 2328 
Q 1056 1369 1301 889 
Q 1547 409 2034 409 
Q 2525 409 2770 889 
Q 3016 1369 3016 2328 
Q 3016 3291 2770 3770 
Q 2525 4250 2034 4250 
z
M 2034 4750 
Q 2819 4750 3233 4129 
Q 3647 3509 3647 2328 
Q 3647 1150 3233 529 
Q 2819 -91 2034 -91 
Q 1250 -91 836 529 
Q 422 1150 422 2328 
Q 422 3509 836 4129 
Q 1250 4750 2034 4750 
z
" transform="scale(0.015625)"/>
       <path id="DejaVuSans-44" d="M 1259 4147 
L 1259 519 
L 2022 519 
Q 2988 519 3436 956 
Q 3884 1394 3884 2338 
Q 3884 3275 3436 3711 
Q 2988 4147 2022 4147 
L 1259 4147 
z
M 628 4666 
L 1925 4666 
Q 3281 4666 3915 4102 
Q 4550 3538 4550 2338 
Q 4550 1131 3912 565 
Q 3275 0 1925 0 
L 628 0 
L 628 4666 
z
" transform="scale(0.015625)"/>
      </defs>
      <use xlink:href="#DejaVuSans-41"/>
      <use xlink:href="#DejaVuSans-39" transform="translate(68.408203 0)"/>
      <use xlink:href="#DejaVuSans-30" transform="translate(132.03125 0)"/>
      <use xlink:href="#DejaVuSans-30" transform="translate(195.654297 0)"/>
      <use xlink:href="#DejaVuSans-20" transform="translate(259.277344 0)"/>
      <use xlink:href="#DejaVuSans-28" transform="translate(291.064453 0)"/>
      <use xlink:href="#DejaVuSans-44" transform="translate(330.078125 0)"/>
      <use xlink:href="#DejaVuSans-61" transform="translate(407.080078 0)"/>
      <use xlink:href="#DejaVuSans-74" transform="translate(468.359375 0)"/>
      <use xlink:href="#DejaVuSans-61" transform="translate(507.568359 0)"/>
      <use xlink:href="#DejaVuSans-63" transform="translate(568.847656 0)"/>
      <use xlink:href="#DejaVuSans-65" transform="translate(623.828125 0)"/>
      <use xlink:href="#DejaVuSans-6e" transform="translate(685.351562 0)"/>
      <use xlink:href="#DejaVuSans-74" transform="translate(748.730469 0)"/>
      <use xlink:href="#DejaVuSans-65" transform="translate(787.939453 0)"/>
      <use xlink:href="#DejaVuSans-72" transform="translate(849.462891 0)"/>
      <use xlink:href="#DejaVuSans-29" transform="translate(890.576172 0)"/>
     </g>
    </g>
    <g id="line2d_2">
     <path d="M 1001.60808 69.751875 
L 1012.60808 69.751875 
L 1023.60808 69.751875 
" style="fill: none; stroke: #ffffff; stroke-width: 1.5; stroke-linecap: square"/>
     <defs>
      <path id="ma237ed9aba" d="M 0 6 
C 1.591219 6 3.117479 5.367802 4.242641 4.242641 
C 5.367802 3.117479 6 1.591219 6 0 
C 6 -1.591219 5.367802 -3.117479 4.242641 -4.242641 
C 3.117479 -5.367802 1.591219 -6 0 -6 
C -1.591219 -6 -3.117479 -5.367802 -4.242641 -4.242641 
C -5.367802 -3.117479 -6 -1.591219 -6 0 
C -6 1.591219 -5.367802 3.117479 -4.242641 4.242641 
C -3.117479 5.367802 -1.591219 6 0 6 
z
" style="stroke: #ffffff"/>
     </defs>
     <g>
      <use xlink:href="#ma237ed9aba" x="1012.60808" y="69.751875" style="fill: #c0392b; stroke: #ffffff"/>
     </g>
    </g>
    <g id="text_13">
     <!-- Troncal (gateway) -->
     <g transform="translate(1032.40808 73.601875) scale(0.11 -0.11)">
      <defs>
       <path id="DejaVuSans-77" d="M 269 3500 
L 844 3500 
L 1563 769 
L 2278 3500 
L 2956 3500 
L 3675 769 
L 4391 3500 
L 4966 3500 
L 4050 0 
L 3372 0 
L 2619 2869 
L 1863 0 
L 1184 0 
L 269 3500 
z
" transform="scale(0.015625)"/>
       <path id="DejaVuSans-79" d="M 2059 -325 
Q 1816 -950 1584 -1140 
Q 1353 -1331 966 -1331 
L 506 -1331 
L 506 -850 
L 844 -850 
Q 1081 -850 1212 -737 
Q 1344 -625 1503 -206 
L 1606 56 
L 191 3500 
L 800 3500 
L 1894 763 
L 2988 3500 
L 3597 3500 
L 2059 -325 
z
" transform="scale(0.015625)"/>
      </defs>
      <use xlink:href="#DejaVuSans-54"/>
      <use xlink:href="#DejaVuSans-72" transform="translate(46.333984 0)"/>
      <use xlink:href="#DejaVuSans-6f" transform="translate(85.197266 0)"/>
      <use xlink:href="#DejaVuSans-6e" transform="translate(146.378906 0)"/>
      <use xlink:href="#DejaVuSans-63" transform="translate(209.757812 0)"/>
      <use xlink:href="#DejaVuSans-61" transform="translate(264.738281 0)"/>
      <use xlink:href="#DejaVuSans-6c" transform="translate(326.017578 0)"/>
      <use xlink:href="#DejaVuSans-20" transform="translate(353.800781 0)"/>
      <use xlink:href="#DejaVuSans-28" transform="translate(385.587891 0)"/>
      <use xlink:href="#DejaVuSans-67" transform="translate(424.601562 0)"/>
      <use xlink:href="#DejaVuSans-61" transform="translate(488.078125 0)"/>
      <use xlink:href="#DejaVuSans-74" transform="translate(549.357422 0)"/>
      <use xlink:href="#DejaVuSans-65" transform="translate(588.566406 0)"/>
      <use xlink:href="#DejaVuSans-77" transform="translate(650.089844 0)"/>
      <use xlink:href="#DejaVuSans-61" transform="translate(731.876953 0)"/>
      <use xlink:href="#DejaVuSans-79" transform="translate(793.15625 0)"/>
      <use xlink:href="#DejaVuSans-29" transform="translate(852.335938 0)"/>
     </g>
    </g>
    <g id="line2d_3">
     <path d="M 1001.60808 86.337812 
L 1012.60808 86.337812 
L 1023.60808 86.337812 
" style="fill: none; stroke: #ffffff; stroke-width: 1.5; stroke-linecap: square"/>
     <defs>
      <path id="m2e3228886d" d="M 0 4.5 
C 1.193414 4.5 2.338109 4.025852 3.181981 3.181981 
C 4.025852 2.338109 4.5 1.193414 4.5 0 
C 4.5 -1.193414 4.025852 -2.338109 3.181981 -3.181981 
C 2.338109 -4.025852 1.193414 -4.5 0 -4.5 
C -1.193414 -4.5 -2.338109 -4.025852 -3.181981 -3.181981 
C -4.025852 -2.338109 -4.5 -1.193414 -4.5 0 
C -4.5 1.193414 -4.025852 2.338109 -3.181981 3.181981 
C -2.338109 4.025852 -1.193414 4.5 0 4.5 
z
" style="stroke: #ffffff"/>
     </defs>
     <g>
      <use xlink:href="#m2e3228886d" x="1012.60808" y="86.337812" style="fill: #1a5276; stroke: #ffffff"/>
     </g>
    </g>
    <g id="text_14">
     <!-- Agregación -->
     <g transform="translate(1032.40808 90.187812) scale(0.11 -0.11)">
      <use xlink:href="#DejaVuSans-41"/>
      <use xlink:href="#DejaVuSans-67" transform="translate(68.408203 0)"/>
      <use xlink:href="#DejaVuSans-72" transform="translate(131.884766 0)"/>
      <use xlink:href="#DejaVuSans-65" transform="translate(170.748047 0)"/>
      <use xlink:href="#DejaVuSans-67" transform="translate(232.271484 0)"/>
      <use xlink:href="#DejaVuSans-61" transform="translate(295.748047 0)"/>
      <use xlink:href="#DejaVuSans-63" transform="translate(357.027344 0)"/>
      <use xlink:href="#DejaVuSans-69" transform="translate(412.007812 0)"/>
      <use xlink:href="#DejaVuSans-f3" transform="translate(439.791016 0)"/>
      <use xlink:href="#DejaVuSans-6e" transform="translate(500.972656 0)"/>
     </g>
    </g>
    <g id="line2d_4">
     <path d="M 1001.60808 102.48375 
L 1012.60808 102.48375 
L 1023.60808 102.48375 
" style="fill: none; stroke: #c0392b; stroke-width: 2.6; stroke-linecap: square"/>
    </g>
    <g id="text_15">
     <!-- Anillo troncal -->
     <g transform="translate(1032.40808 106.33375) scale(0.11 -0.11)">
      <use xlink:href="#DejaVuSans-41"/>
      <use xlink:href="#DejaVuSans-6e" transform="translate(68.408203 0)"/>
      <use xlink:href="#DejaVuSans-69" transform="translate(131.787109 0)"/>
      <use xlink:href="#DejaVuSans-6c" transform="translate(159.570312 0)"/>
      <use xlink:href="#DejaVuSans-6c" transform="translate(187.353516 0)"/>
      <use xlink:href="#DejaVuSans-6f" transform="translate(215.136719 0)"/>
      <use xlink:href="#DejaVuSans-20" transform="translate(276.318359 0)"/>
      <use xlink:href="#DejaVuSans-74" transform="translate(308.105469 0)"/>
      <use xlink:href="#DejaVuSans-72" transform="translate(347.314453 0)"/>
      <use xlink:href="#DejaVuSans-6f" transform="translate(386.177734 0)"/>
      <use xlink:href="#DejaVuSans-6e" transform="translate(447.359375 0)"/>
      <use xlink:href="#DejaVuSans-63" transform="translate(510.738281 0)"/>
      <use xlink:href="#DejaVuSans-61" transform="translate(565.71875 0)"/>
      <use xlink:href="#DejaVuSans-6c" transform="translate(626.998047 0)"/>
     </g>
    </g>
    <g id="line2d_5">
     <path d="M 1001.60808 119.069688 
L 1012.60808 119.069688 
L 1023.60808 119.069688 
" style="fill: none; stroke: #5d6d7e; stroke-width: 1.4; stroke-linecap: square"/>
    </g>
    <g id="text_16">
     <!-- Anillo agregación -->
     <g transform="translate(1032.40808 122.919688) scale(0.11 -0.11)">
      <use xlink:href="#DejaVuSans-41"/>
      <use xlink:href="#DejaVuSans-6e" transform="translate(68.408203 0)"/>
      <use xlink:href="#DejaVuSans-69" transform="translate(131.787109 0)"/>
      <use xlink:href="#DejaVuSans-6c" transform="translate(159.570312 0)"/>
      <use xlink:href="#DejaVuSans-6c" transform="translate(187.353516 0)"/>
      <use xlink:href="#DejaVuSans-6f" transform="translate(215.136719 0)"/>
      <use xlink:href="#DejaVuSans-20" transform="translate(276.318359 0)"/>
      <use xlink:href="#DejaVuSans-61" transform="translate(308.105469 0)"/>
      <use xlink:href="#DejaVuSans-67" transform="translate(369.384766 0)"/>
      <use xlink:href="#DejaVuSans-72" transform="translate(432.861328 0)"/>
      <use xlink:href="#DejaVuSans-65" transform="translate(471.724609 0)"/>
      <use xlink:href="#DejaVuSans-67" transform="translate(533.248047 0)"/>
      <use xlink:href="#DejaVuSans-61" transform="translate(596.724609 0)"/>
      <use xlink:href="#DejaVuSans-63" transform="translate(658.003906 0)"/>
      <use xlink:href="#DejaVuSans-69" transform="translate(712.984375 0)"/>
      <use xlink:href="#DejaVuSans-f3" transform="translate(740.767578 0)"/>
      <use xlink:href="#DejaVuSans-6e" transform="translate(801.949219 0)"/>
     </g>
    </g>
   </g>
  </g>
 </g>
 <defs>
  <clipPath id="p791613fe99">
   <rect x="7.2" y="39.197656" width="965.204" height="955.379615"/>
  </clipPath>
 </defs>
</svg>
