<?xml version="1.0" encoding="utf-8" standalone="no"?>
<!DOCTYPE svg PUBLIC "-//W3C//DTD SVG 1.1//EN"
  "http://www.w3.org/Graphics/SVG/1.1/DTD/svg11.dtd">
<svg xmlns:xlink="http://www.w3.org/1999/xlink" width="1110.396294pt" height="1145.5075pt" viewBox="0 0 1110.396294 1145.5075" xmlns="http://www.w3.org/2000/svg" version="1.1">
 <metadata>
  <rdf:RDF xmlns:dc="http://purl.org/dc/elements/1.1/" xmlns:cc="http://creativecommons.org/ns#" xmlns:rdf="http://www.w3.org/1999/02/22-rdf-syntax-ns#">
   <cc:Work>
    <dc:type rdf:resource="http://purl.org/dc/dcmitype/StillImage"/>
    <dc:date>2026-05-12T21:31:19.663180</dc:date>
    <dc:format>image/svg+xml</dc:format>
    <dc:creator>
     <cc:Agent>
      <dc:title>Matplotlib v3.10.9, https://matplotlib.org/</dc:title>
     </cc:Agent>
    </dc:creator>
   </cc:Work>
  </rdf:RDF>
 </metadata>
 <defs>
  <style type="text/css">*{stroke-linejoin: round; stroke-linecap: butt}</style>
 </defs>
 <g id="figure_1">
  <g id="patch_1">
   <path d="M 0 1145.5075 
L 1110.396294 1145.5075 
L 1110.396294 0 
L 0 0 
z
" style="fill: #ffffff"/>
  </g>
  <g id="axes_1">
   <g id="text_1">
    <!-- A6 -->
    <g style="fill: #1a5276; opacity: 0.18" transform="translate(476.373749 525.938325) scale(0.36 -0.36)">
     <defs>
      <path id="DejaVuSans-Bold-41" d="M 3419 850 
L 1538 850 
L 1241 0 
L 31 0 
L 1759 4666 
L 3194 4666 
L 4922 0 
L 3713 0 
L 3419 850 
z
M 1838 1716 
L 3116 1716 
L 2478 3572 
L 1838 1716 
z
" transform="scale(0.015625)"/>
      <path id="DejaVuSans-Bold-36" d="M 2316 2303 
Q 2000 2303 1842 2098 
Q 1684 1894 1684 1484 
Q 1684 1075 1842 870 
Q 2000 666 2316 666 
Q 2634 666 2792 870 
Q 2950 1075 2950 1484 
Q 2950 1894 2792 2098 
Q 2634 2303 2316 2303 
z
M 3803 4544 
L 3803 3681 
Q 3506 3822 3243 3889 
Q 2981 3956 2731 3956 
Q 2194 3956 1894 3657 
Q 1594 3359 1544 2772 
Q 1750 2925 1990 3001 
Q 2231 3078 2516 3078 
Q 3231 3078 3670 2659 
Q 4109 2241 4109 1563 
Q 4109 813 3618 361 
Q 3128 -91 2303 -91 
Q 1394 -91 895 523 
Q 397 1138 397 2266 
Q 397 3422 980 4083 
Q 1563 4744 2578 4744 
Q 2900 4744 3203 4694 
Q 3506 4644 3803 4544 
z
" transform="scale(0.015625)"/>
     </defs>
     <use xlink:href="#DejaVuSans-Bold-41"/>
     <use xlink:href="#DejaVuSans-Bold-36" transform="translate(77.392578 0)"/>
    </g>
   </g>
   <g id="LineCollection_1">
    <path d="M 1027.161607 608.458714 
L 908.110043 587.466712 
" clip-path="url(#pdeaea1d762)" style="fill: none; stroke: #bdc3c7; stroke-opacity: 0.65; stroke-width: 0.7"/>
    <path d="M 845.062499 923.863621 
L 767.35711 831.257943 
" clip-path="url(#pdeaea1d762)" style="fill: none; stroke: #bdc3c7; stroke-opacity: 0.65; stroke-width: 0.7"/>
    <path d="M 502.828124 1048.426746 
L 502.828124 927.53862 
" clip-path="url(#pdeaea1d762)" style="fill: none; stroke: #bdc3c7; stroke-opacity: 0.65; stroke-width: 0.7"/>
    <path d="M 963.91925 249.793489 
L 859.227062 310.237552 
" clip-path="url(#pdeaea1d762)" style="fill: none; stroke: #bdc3c7; stroke-opacity: 0.65; stroke-width: 0.7"/>
   </g>
   <g id="LineCollection_2">
    <path d="M 362.075191 129.289068 
L 146.429186 310.237552 
" clip-path="url(#pdeaea1d762)" style="fill: none; stroke: #c0392b; stroke-opacity: 0.9; stroke-width: 2.8"/>
    <path d="M 97.546205 587.466712 
L 238.299139 831.257943 
" clip-path="url(#pdeaea1d762)" style="fill: none; stroke: #c0392b; stroke-opacity: 0.9; stroke-width: 2.8"/>
    <path d="M 767.35711 831.257943 
L 908.110043 587.466712 
" clip-path="url(#pdeaea1d762)" style="fill: none; stroke: #c0392b; stroke-opacity: 0.9; stroke-width: 2.8"/>
    <path d="M 502.828124 927.53862 
L 767.35711 831.257943 
" clip-path="url(#pdeaea1d762)" style="fill: none; stroke: #c0392b; stroke-opacity: 0.9; stroke-width: 2.8"/>
    <path d="M 238.299139 831.257943 
L 502.828124 927.53862 
" clip-path="url(#pdeaea1d762)" style="fill: none; stroke: #c0392b; stroke-opacity: 0.9; stroke-width: 2.8"/>
    <path d="M 908.110043 587.466712 
L 859.227062 310.237552 
" clip-path="url(#pdeaea1d762)" style="fill: none; stroke: #c0392b; stroke-opacity: 0.9; stroke-width: 2.8"/>
    <path d="M 643.581057 129.289068 
L 362.075191 129.289068 
" clip-path="url(#pdeaea1d762)" style="fill: none; stroke: #c0392b; stroke-opacity: 0.9; stroke-width: 2.8"/>
    <path d="M 859.227062 310.237552 
L 643.581057 129.289068 
" clip-path="url(#pdeaea1d762)" style="fill: none; stroke: #c0392b; stroke-opacity: 0.9; stroke-width: 2.8"/>
    <path d="M 146.429186 310.237552 
L 97.546205 587.466712 
" clip-path="url(#pdeaea1d762)" style="fill: none; stroke: #c0392b; stroke-opacity: 0.9; stroke-width: 2.8"/>
   </g>
   <g id="PathCollection_1">
    <defs>
     <path id="m35f774c493" d="M 0 2.645751 
C 0.701661 2.645751 1.374679 2.366978 1.870829 1.870829 
C 2.366978 1.374679 2.645751 0.701661 2.645751 0 
C 2.645751 -0.701661 2.366978 -1.374679 1.870829 -1.870829 
C 1.374679 -2.366978 0.701661 -2.645751 0 -2.645751 
C -0.701661 -2.645751 -1.374679 -2.366978 -1.870829 -1.870829 
C -2.366978 -1.374679 -2.645751 -0.701661 -2.645751 0 
C -2.645751 0.701661 -2.366978 1.374679 -1.870829 1.870829 
C -1.374679 2.366978 -0.701661 2.645751 0 2.645751 
z
"/>
    </defs>
    <g clip-path="url(#pdeaea1d762)">
     <use xlink:href="#m35f774c493" x="502.828124" y="1048.426746" style="fill: #76b39d; fill-opacity: 0.9"/>
     <use xlink:href="#m35f774c493" x="845.062499" y="923.863621" style="fill: #76b39d; fill-opacity: 0.9"/>
     <use xlink:href="#m35f774c493" x="1027.161607" y="608.458714" style="fill: #76b39d; fill-opacity: 0.9"/>
     <use xlink:href="#m35f774c493" x="963.91925" y="249.793489" style="fill: #76b39d; fill-opacity: 0.9"/>
    </g>
   </g>
   <g id="PathCollection_2">
    <defs>
     <path id="mf8c4417c5d" d="M 0 11.61895 
C 3.081382 11.61895 6.036973 10.394704 8.215838 8.215838 
C 10.394704 6.036973 11.61895 3.081382 11.61895 0 
C 11.61895 -3.081382 10.394704 -6.036973 8.215838 -8.215838 
C 6.036973 -10.394704 3.081382 -11.61895 0 -11.61895 
C -3.081382 -11.61895 -6.036973 -10.394704 -8.215838 -8.215838 
C -10.394704 -6.036973 -11.61895 -3.081382 -11.61895 0 
C -11.61895 3.081382 -10.394704 6.036973 -8.215838 8.215838 
C -6.036973 10.394704 -3.081382 11.61895 0 11.61895 
z
" style="stroke: #000000; stroke-width: 0.9"/>
    </defs>
    <g clip-path="url(#pdeaea1d762)">
     <use xlink:href="#mf8c4417c5d" x="502.828124" y="927.53862" style="fill: #1a5276; stroke: #000000; stroke-width: 0.9"/>
     <use xlink:href="#mf8c4417c5d" x="767.35711" y="831.257943" style="fill: #1a5276; stroke: #000000; stroke-width: 0.9"/>
     <use xlink:href="#mf8c4417c5d" x="908.110043" y="587.466712" style="fill: #1a5276; stroke: #000000; stroke-width: 0.9"/>
     <use xlink:href="#mf8c4417c5d" x="859.227062" y="310.237552" style="fill: #1a5276; stroke: #000000; stroke-width: 0.9"/>
     <use xlink:href="#mf8c4417c5d" x="643.581057" y="129.289068" style="fill: #1a5276; stroke: #000000; stroke-width: 0.9"/>
     <use xlink:href="#mf8c4417c5d" x="362.075191" y="129.289068" style="fill: #1a5276; stroke: #000000; stroke-width: 0.9"/>
     <use xlink:href="#mf8c4417c5d" x="146.429186" y="310.237552" style="fill: #1a5276; stroke: #000000; stroke-width: 0.9"/>
     <use xlink:href="#mf8c4417c5d" x="97.546205" y="587.466712" style="fill: #1a5276; stroke: #000000; stroke-width: 0.9"/>
    </g>
   </g>
   <g id="PathCollection_3">
    <defs>
     <path id="m582207f5c7" d="M 0 14.317821 
C 3.797131 14.317821 7.439252 12.809205 10.124228 10.124228 
C 12.809205 7.439252 14.317821 3.797131 14.317821 0 
C 14.317821 -3.797131 12.809205 -7.439252 10.124228 -10.124228 
C 7.439252 -12.809205 3.797131 -14.317821 0 -14.317821 
C -3.797131 -14.317821 -7.439252 -12.809205 -10.124228 -10.124228 
C -12.809205 -7.439252 -14.317821 -3.797131 -14.317821 0 
C -14.317821 3.797131 -12.809205 7.439252 -10.124228 10.124228 
C -7.439252 12.809205 -3.797131 14.317821 0 14.317821 
z
" style="stroke: #000000; stroke-width: 1.4"/>
    </defs>
    <g clip-path="url(#pdeaea1d762)">
     <use xlink:href="#m582207f5c7" x="238.299139" y="831.257943" style="fill: #c0392b; stroke: #000000; stroke-width: 1.4"/>
    </g>
   </g>
   <g id="text_2">
    <g id="patch_2">
     <path d="M 487.091249 861.535461 
L 518.564999 861.535461 
Q 521.314999 861.535461 521.314999 858.785461 
L 521.314999 848.139523 
Q 521.314999 845.389523 518.564999 845.389523 
L 487.091249 845.389523 
Q 484.341249 845.389523 484.341249 848.139523 
L 484.341249 858.785461 
Q 484.341249 861.535461 487.091249 861.535461 
z
" clip-path="url(#pdeaea1d762)" style="fill: #ffffff; opacity: 0.92; stroke: #1a5276; stroke-linejoin: miter"/>
    </g>
    <g clip-path="url(#pdeaea1d762)">
     <!-- A820 -->
     <g style="fill: #1c2833" transform="translate(487.091249 856.497805) scale(0.11 -0.11)">
      <defs>
       <path id="DejaVuSans-Bold-38" d="M 2228 2088 
Q 1891 2088 1709 1903 
Q 1528 1719 1528 1375 
Q 1528 1031 1709 848 
Q 1891 666 2228 666 
Q 2563 666 2741 848 
Q 2919 1031 2919 1375 
Q 2919 1722 2741 1905 
Q 2563 2088 2228 2088 
z
M 1350 2484 
Q 925 2613 709 2878 
Q 494 3144 494 3541 
Q 494 4131 934 4440 
Q 1375 4750 2228 4750 
Q 3075 4750 3515 4442 
Q 3956 4134 3956 3541 
Q 3956 3144 3739 2878 
Q 3522 2613 3097 2484 
Q 3572 2353 3814 2058 
Q 4056 1763 4056 1313 
Q 4056 619 3595 264 
Q 3134 -91 2228 -91 
Q 1319 -91 855 264 
Q 391 619 391 1313 
Q 391 1763 633 2058 
Q 875 2353 1350 2484 
z
M 1631 3419 
Q 1631 3141 1786 2991 
Q 1941 2841 2228 2841 
Q 2509 2841 2662 2991 
Q 2816 3141 2816 3419 
Q 2816 3697 2662 3845 
Q 2509 3994 2228 3994 
Q 1941 3994 1786 3844 
Q 1631 3694 1631 3419 
z
" transform="scale(0.015625)"/>
       <path id="DejaVuSans-Bold-32" d="M 1844 884 
L 3897 884 
L 3897 0 
L 506 0 
L 506 884 
L 2209 2388 
Q 2438 2594 2547 2791 
Q 2656 2988 2656 3200 
Q 2656 3528 2436 3728 
Q 2216 3928 1850 3928 
Q 1569 3928 1234 3808 
Q 900 3688 519 3450 
L 519 4475 
Q 925 4609 1322 4679 
Q 1719 4750 2100 4750 
Q 2938 4750 3402 4381 
Q 3866 4013 3866 3353 
Q 3866 2972 3669 2642 
Q 3472 2313 2841 1759 
L 1844 884 
z
" transform="scale(0.015625)"/>
       <path id="DejaVuSans-Bold-30" d="M 2944 2338 
Q 2944 3213 2780 3570 
Q 2616 3928 2228 3928 
Q 1841 3928 1675 3570 
Q 1509 3213 1509 2338 
Q 1509 1453 1675 1090 
Q 1841 728 2228 728 
Q 2613 728 2778 1090 
Q 2944 1453 2944 2338 
z
M 4147 2328 
Q 4147 1169 3647 539 
Q 3147 -91 2228 -91 
Q 1306 -91 806 539 
Q 306 1169 306 2328 
Q 306 3491 806 4120 
Q 1306 4750 2228 4750 
Q 3147 4750 3647 4120 
Q 4147 3491 4147 2328 
z
" transform="scale(0.015625)"/>
      </defs>
      <use xlink:href="#DejaVuSans-Bold-41"/>
      <use xlink:href="#DejaVuSans-Bold-38" transform="translate(77.392578 0)"/>
      <use xlink:href="#DejaVuSans-Bold-32" transform="translate(146.972656 0)"/>
      <use xlink:href="#DejaVuSans-Bold-30" transform="translate(216.552734 0)"/>
     </g>
    </g>
   </g>
   <g id="text_3">
    <g id="patch_3">
     <path d="M 704.005017 782.585306 
L 735.478767 782.585306 
Q 738.228767 782.585306 738.228767 779.835306 
L 738.228767 769.189368 
Q 738.228767 766.439368 735.478767 766.439368 
L 704.005017 766.439368 
Q 701.255017 766.439368 701.255017 769.189368 
L 701.255017 779.835306 
Q 701.255017 782.585306 704.005017 782.585306 
z
" clip-path="url(#pdeaea1d762)" style="fill: #ffffff; opacity: 0.92; stroke: #1a5276; stroke-linejoin: miter"/>
    </g>
    <g clip-path="url(#pdeaea1d762)">
     <!-- A821 -->
     <g style="fill: #1c2833" transform="translate(704.005017 777.54765) scale(0.11 -0.11)">
      <defs>
       <path id="DejaVuSans-Bold-31" d="M 750 831 
L 1813 831 
L 1813 3847 
L 722 3622 
L 722 4441 
L 1806 4666 
L 2950 4666 
L 2950 831 
L 4013 831 
L 4013 0 
L 750 0 
L 750 831 
z
" transform="scale(0.015625)"/>
      </defs>
      <use xlink:href="#DejaVuSans-Bold-41"/>
      <use xlink:href="#DejaVuSans-Bold-38" transform="translate(77.392578 0)"/>
      <use xlink:href="#DejaVuSans-Bold-32" transform="translate(146.972656 0)"/>
      <use xlink:href="#DejaVuSans-Bold-31" transform="translate(216.552734 0)"/>
     </g>
    </g>
   </g>
   <g id="text_4">
    <g id="patch_4">
     <path d="M 819.422423 582.676496 
L 850.896173 582.676496 
Q 853.646173 582.676496 853.646173 579.926496 
L 853.646173 569.280558 
Q 853.646173 566.530558 850.896173 566.530558 
L 819.422423 566.530558 
Q 816.672423 566.530558 816.672423 569.280558 
L 816.672423 579.926496 
Q 816.672423 582.676496 819.422423 582.676496 
z
" clip-path="url(#pdeaea1d762)" style="fill: #ffffff; opacity: 0.92; stroke: #1a5276; stroke-linejoin: miter"/>
    </g>
    <g clip-path="url(#pdeaea1d762)">
     <!-- A822 -->
     <g style="fill: #1c2833" transform="translate(819.422423 577.638839) scale(0.11 -0.11)">
      <use xlink:href="#DejaVuSans-Bold-41"/>
      <use xlink:href="#DejaVuSans-Bold-38" transform="translate(77.392578 0)"/>
      <use xlink:href="#DejaVuSans-Bold-32" transform="translate(146.972656 0)"/>
      <use xlink:href="#DejaVuSans-Bold-32" transform="translate(216.552734 0)"/>
     </g>
    </g>
   </g>
   <g id="text_5">
    <g id="patch_5">
     <path d="M 779.338378 355.348584 
L 810.812128 355.348584 
Q 813.562128 355.348584 813.562128 352.598584 
L 813.562128 341.952647 
Q 813.562128 339.202647 810.812128 339.202647 
L 779.338378 339.202647 
Q 776.588378 339.202647 776.588378 341.952647 
L 776.588378 352.598584 
Q 776.588378 355.348584 779.338378 355.348584 
z
" clip-path="url(#pdeaea1d762)" style="fill: #ffffff; opacity: 0.92; stroke: #1a5276; stroke-linejoin: miter"/>
    </g>
    <g clip-path="url(#pdeaea1d762)">
     <!-- A823 -->
     <g style="fill: #1c2833" transform="translate(779.338378 350.310928) scale(0.11 -0.11)">
      <defs>
       <path id="DejaVuSans-Bold-33" d="M 2981 2516 
Q 3453 2394 3698 2092 
Q 3944 1791 3944 1325 
Q 3944 631 3412 270 
Q 2881 -91 1863 -91 
Q 1503 -91 1142 -33 
Q 781 25 428 141 
L 428 1069 
Q 766 900 1098 814 
Q 1431 728 1753 728 
Q 2231 728 2486 893 
Q 2741 1059 2741 1369 
Q 2741 1688 2480 1852 
Q 2219 2016 1709 2016 
L 1228 2016 
L 1228 2791 
L 1734 2791 
Q 2188 2791 2409 2933 
Q 2631 3075 2631 3366 
Q 2631 3634 2415 3781 
Q 2200 3928 1806 3928 
Q 1516 3928 1219 3862 
Q 922 3797 628 3669 
L 628 4550 
Q 984 4650 1334 4700 
Q 1684 4750 2022 4750 
Q 2931 4750 3382 4451 
Q 3834 4153 3834 3553 
Q 3834 3144 3618 2883 
Q 3403 2622 2981 2516 
z
" transform="scale(0.015625)"/>
      </defs>
      <use xlink:href="#DejaVuSans-Bold-41"/>
      <use xlink:href="#DejaVuSans-Bold-38" transform="translate(77.392578 0)"/>
      <use xlink:href="#DejaVuSans-Bold-32" transform="translate(146.972656 0)"/>
      <use xlink:href="#DejaVuSans-Bold-33" transform="translate(216.552734 0)"/>
     </g>
    </g>
   </g>
   <g id="text_6">
    <g id="patch_6">
     <path d="M 602.508654 206.970828 
L 633.982404 206.970828 
Q 636.732404 206.970828 636.732404 204.220828 
L 636.732404 193.574891 
Q 636.732404 190.824891 633.982404 190.824891 
L 602.508654 190.824891 
Q 599.758654 190.824891 599.758654 193.574891 
L 599.758654 204.220828 
Q 599.758654 206.970828 602.508654 206.970828 
z
" clip-path="url(#pdeaea1d762)" style="fill: #ffffff; opacity: 0.92; stroke: #1a5276; stroke-linejoin: miter"/>
    </g>
    <g clip-path="url(#pdeaea1d762)">
     <!-- A860 -->
     <g style="fill: #1c2833" transform="translate(602.508654 201.933172) scale(0.11 -0.11)">
      <use xlink:href="#DejaVuSans-Bold-41"/>
      <use xlink:href="#DejaVuSans-Bold-38" transform="translate(77.392578 0)"/>
      <use xlink:href="#DejaVuSans-Bold-36" transform="translate(146.972656 0)"/>
      <use xlink:href="#DejaVuSans-Bold-30" transform="translate(216.552734 0)"/>
     </g>
    </g>
   </g>
   <g id="text_7">
    <g id="patch_7">
     <path d="M 371.673844 206.970828 
L 403.147594 206.970828 
Q 405.897594 206.970828 405.897594 204.220828 
L 405.897594 193.574891 
Q 405.897594 190.824891 403.147594 190.824891 
L 371.673844 190.824891 
Q 368.923844 190.824891 368.923844 193.574891 
L 368.923844 204.220828 
Q 368.923844 206.970828 371.673844 206.970828 
z
" clip-path="url(#pdeaea1d762)" style="fill: #ffffff; opacity: 0.92; stroke: #1a5276; stroke-linejoin: miter"/>
    </g>
    <g clip-path="url(#pdeaea1d762)">
     <!-- A861 -->
     <g style="fill: #1c2833" transform="translate(371.673844 201.933172) scale(0.11 -0.11)">
      <use xlink:href="#DejaVuSans-Bold-41"/>
      <use xlink:href="#DejaVuSans-Bold-38" transform="translate(77.392578 0)"/>
      <use xlink:href="#DejaVuSans-Bold-36" transform="translate(146.972656 0)"/>
      <use xlink:href="#DejaVuSans-Bold-31" transform="translate(216.552734 0)"/>
     </g>
    </g>
   </g>
   <g id="text_8">
    <g id="patch_8">
     <path d="M 194.84412 355.348584 
L 226.31787 355.348584 
Q 229.06787 355.348584 229.06787 352.598584 
L 229.06787 341.952647 
Q 229.06787 339.202647 226.31787 339.202647 
L 194.84412 339.202647 
Q 192.09412 339.202647 192.09412 341.952647 
L 192.09412 352.598584 
Q 192.09412 355.348584 194.84412 355.348584 
z
" clip-path="url(#pdeaea1d762)" style="fill: #ffffff; opacity: 0.92; stroke: #1a5276; stroke-linejoin: miter"/>
    </g>
    <g clip-path="url(#pdeaea1d762)">
     <!-- A862 -->
     <g style="fill: #1c2833" transform="translate(194.84412 350.310928) scale(0.11 -0.11)">
      <use xlink:href="#DejaVuSans-Bold-41"/>
      <use xlink:href="#DejaVuSans-Bold-38" transform="translate(77.392578 0)"/>
      <use xlink:href="#DejaVuSans-Bold-36" transform="translate(146.972656 0)"/>
      <use xlink:href="#DejaVuSans-Bold-32" transform="translate(216.552734 0)"/>
     </g>
    </g>
   </g>
   <g id="text_9">
    <g id="patch_9">
     <path d="M 154.760076 582.676496 
L 186.233826 582.676496 
Q 188.983826 582.676496 188.983826 579.926496 
L 188.983826 569.280558 
Q 188.983826 566.530558 186.233826 566.530558 
L 154.760076 566.530558 
Q 152.010076 566.530558 152.010076 569.280558 
L 152.010076 579.926496 
Q 152.010076 582.676496 154.760076 582.676496 
z
" clip-path="url(#pdeaea1d762)" style="fill: #ffffff; opacity: 0.92; stroke: #1a5276; stroke-linejoin: miter"/>
    </g>
    <g clip-path="url(#pdeaea1d762)">
     <!-- A863 -->
     <g style="fill: #1c2833" transform="translate(154.760076 577.638839) scale(0.11 -0.11)">
      <use xlink:href="#DejaVuSans-Bold-41"/>
      <use xlink:href="#DejaVuSans-Bold-38" transform="translate(77.392578 0)"/>
      <use xlink:href="#DejaVuSans-Bold-36" transform="translate(146.972656 0)"/>
      <use xlink:href="#DejaVuSans-Bold-33" transform="translate(216.552734 0)"/>
     </g>
    </g>
   </g>
   <g id="text_10">
    <g id="patch_10">
     <path d="M 271.608106 787.750306 
L 300.220606 787.750306 
Q 303.020606 787.750306 303.020606 784.950306 
L 303.020606 764.074368 
Q 303.020606 761.274368 300.220606 761.274368 
L 271.608106 761.274368 
Q 268.808106 761.274368 268.808106 764.074368 
L 268.808106 784.950306 
Q 268.808106 787.750306 271.608106 787.750306 
z
" clip-path="url(#pdeaea1d762)" style="fill: #c0392b; opacity: 0.95; stroke: #000000; stroke-linejoin: miter"/>
    </g>
    <g clip-path="url(#pdeaea1d762)">
     <!-- A896 -->
     <g style="fill: #ffffff" transform="translate(271.608106 771.672806) scale(0.1 -0.1)">
      <defs>
       <path id="DejaVuSans-Bold-39" d="M 641 103 
L 641 966 
Q 928 831 1190 764 
Q 1453 697 1709 697 
Q 2247 697 2547 995 
Q 2847 1294 2900 1881 
Q 2688 1725 2447 1647 
Q 2206 1569 1925 1569 
Q 1209 1569 770 1986 
Q 331 2403 331 3084 
Q 331 3838 820 4291 
Q 1309 4744 2131 4744 
Q 3044 4744 3544 4128 
Q 4044 3513 4044 2388 
Q 4044 1231 3459 570 
Q 2875 -91 1856 -91 
Q 1528 -91 1228 -42 
Q 928 6 641 103 
z
M 2125 2350 
Q 2441 2350 2600 2554 
Q 2759 2759 2759 3169 
Q 2759 3575 2600 3781 
Q 2441 3988 2125 3988 
Q 1809 3988 1650 3781 
Q 1491 3575 1491 3169 
Q 1491 2759 1650 2554 
Q 1809 2350 2125 2350 
z
" transform="scale(0.015625)"/>
      </defs>
      <use xlink:href="#DejaVuSans-Bold-41"/>
      <use xlink:href="#DejaVuSans-Bold-38" transform="translate(77.392578 0)"/>
      <use xlink:href="#DejaVuSans-Bold-39" transform="translate(146.972656 0)"/>
      <use xlink:href="#DejaVuSans-Bold-36" transform="translate(216.552734 0)"/>
     </g>
    </g>
    <g clip-path="url(#pdeaea1d762)">
     <!-- ● T3 -->
     <g style="fill: #ffffff" transform="translate(272.921387 782.870618) scale(0.1 -0.1)">
      <defs>
       <path id="DejaVuSans-Bold-25cf" d="M 676 436 
Q 350 1003 350 1656 
Q 350 2309 676 2876 
Q 1003 3444 1570 3772 
Q 2138 4100 2792 4100 
Q 3447 4100 4014 3772 
Q 4581 3444 4907 2876 
Q 5234 2309 5234 1656 
Q 5234 1003 4907 436 
Q 4581 -131 4014 -459 
Q 3447 -788 2792 -788 
Q 2138 -788 1570 -459 
Q 1003 -131 676 436 
z
" transform="scale(0.015625)"/>
       <path id="DejaVuSans-Bold-20" transform="scale(0.015625)"/>
       <path id="DejaVuSans-Bold-54" d="M 31 4666 
L 4331 4666 
L 4331 3756 
L 2784 3756 
L 2784 0 
L 1581 0 
L 1581 3756 
L 31 3756 
L 31 4666 
z
" transform="scale(0.015625)"/>
      </defs>
      <use xlink:href="#DejaVuSans-Bold-25cf"/>
      <use xlink:href="#DejaVuSans-Bold-20" transform="translate(87.255859 0)"/>
      <use xlink:href="#DejaVuSans-Bold-54" transform="translate(122.070312 0)"/>
      <use xlink:href="#DejaVuSans-Bold-33" transform="translate(190.283203 0)"/>
     </g>
    </g>
   </g>
   <g id="text_11">
    <!-- Anillo A6 — 9 nodos backbone, 4 accesos | sedes ABAST: 182 · habitantes: 350,000 -->
    <g style="fill: #1c2833" transform="translate(181.289397 19.4275) scale(0.16 -0.16)">
     <defs>
      <path id="DejaVuSans-Bold-6e" d="M 4056 2131 
L 4056 0 
L 2931 0 
L 2931 347 
L 2931 1631 
Q 2931 2084 2911 2256 
Q 2891 2428 2841 2509 
Q 2775 2619 2662 2680 
Q 2550 2741 2406 2741 
Q 2056 2741 1856 2470 
Q 1656 2200 1656 1722 
L 1656 0 
L 538 0 
L 538 3500 
L 1656 3500 
L 1656 2988 
Q 1909 3294 2193 3439 
Q 2478 3584 2822 3584 
Q 3428 3584 3742 3212 
Q 4056 2841 4056 2131 
z
" transform="scale(0.015625)"/>
      <path id="DejaVuSans-Bold-69" d="M 538 3500 
L 1656 3500 
L 1656 0 
L 538 0 
L 538 3500 
z
M 538 4863 
L 1656 4863 
L 1656 3950 
L 538 3950 
L 538 4863 
z
" transform="scale(0.015625)"/>
      <path id="DejaVuSans-Bold-6c" d="M 538 4863 
L 1656 4863 
L 1656 0 
L 538 0 
L 538 4863 
z
" transform="scale(0.015625)"/>
      <path id="DejaVuSans-Bold-6f" d="M 2203 2784 
Q 1831 2784 1636 2517 
Q 1441 2250 1441 1747 
Q 1441 1244 1636 976 
Q 1831 709 2203 709 
Q 2569 709 2762 976 
Q 2956 1244 2956 1747 
Q 2956 2250 2762 2517 
Q 2569 2784 2203 2784 
z
M 2203 3584 
Q 3106 3584 3614 3096 
Q 4122 2609 4122 1747 
Q 4122 884 3614 396 
Q 3106 -91 2203 -91 
Q 1297 -91 786 396 
Q 275 884 275 1747 
Q 275 2609 786 3096 
Q 1297 3584 2203 3584 
z
" transform="scale(0.015625)"/>
      <path id="DejaVuSans-Bold-2014" d="M 344 2156 
L 6056 2156 
L 6056 1350 
L 344 1350 
L 344 2156 
z
" transform="scale(0.015625)"/>
      <path id="DejaVuSans-Bold-64" d="M 2919 2988 
L 2919 4863 
L 4044 4863 
L 4044 0 
L 2919 0 
L 2919 506 
Q 2688 197 2409 53 
Q 2131 -91 1766 -91 
Q 1119 -91 703 423 
Q 288 938 288 1747 
Q 288 2556 703 3070 
Q 1119 3584 1766 3584 
Q 2128 3584 2408 3439 
Q 2688 3294 2919 2988 
z
M 2181 722 
Q 2541 722 2730 984 
Q 2919 1247 2919 1747 
Q 2919 2247 2730 2509 
Q 2541 2772 2181 2772 
Q 1825 2772 1636 2509 
Q 1447 2247 1447 1747 
Q 1447 1247 1636 984 
Q 1825 722 2181 722 
z
" transform="scale(0.015625)"/>
      <path id="DejaVuSans-Bold-73" d="M 3272 3391 
L 3272 2541 
Q 2913 2691 2578 2766 
Q 2244 2841 1947 2841 
Q 1628 2841 1473 2761 
Q 1319 2681 1319 2516 
Q 1319 2381 1436 2309 
Q 1553 2238 1856 2203 
L 2053 2175 
Q 2913 2066 3209 1816 
Q 3506 1566 3506 1031 
Q 3506 472 3093 190 
Q 2681 -91 1863 -91 
Q 1516 -91 1145 -36 
Q 775 19 384 128 
L 384 978 
Q 719 816 1070 734 
Q 1422 653 1784 653 
Q 2113 653 2278 743 
Q 2444 834 2444 1013 
Q 2444 1163 2330 1236 
Q 2216 1309 1875 1350 
L 1678 1375 
Q 931 1469 631 1722 
Q 331 1975 331 2491 
Q 331 3047 712 3315 
Q 1094 3584 1881 3584 
Q 2191 3584 2531 3537 
Q 2872 3491 3272 3391 
z
" transform="scale(0.015625)"/>
      <path id="DejaVuSans-Bold-62" d="M 2400 722 
Q 2759 722 2948 984 
Q 3138 1247 3138 1747 
Q 3138 2247 2948 2509 
Q 2759 2772 2400 2772 
Q 2041 2772 1848 2508 
Q 1656 2244 1656 1747 
Q 1656 1250 1848 986 
Q 2041 722 2400 722 
z
M 1656 2988 
Q 1888 3294 2169 3439 
Q 2450 3584 2816 3584 
Q 3463 3584 3878 3070 
Q 4294 2556 4294 1747 
Q 4294 938 3878 423 
Q 3463 -91 2816 -91 
Q 2450 -91 2169 54 
Q 1888 200 1656 506 
L 1656 0 
L 538 0 
L 538 4863 
L 1656 4863 
L 1656 2988 
z
" transform="scale(0.015625)"/>
      <path id="DejaVuSans-Bold-61" d="M 2106 1575 
Q 1756 1575 1579 1456 
Q 1403 1338 1403 1106 
Q 1403 894 1545 773 
Q 1688 653 1941 653 
Q 2256 653 2472 879 
Q 2688 1106 2688 1447 
L 2688 1575 
L 2106 1575 
z
M 3816 1997 
L 3816 0 
L 2688 0 
L 2688 519 
Q 2463 200 2181 54 
Q 1900 -91 1497 -91 
Q 953 -91 614 226 
Q 275 544 275 1050 
Q 275 1666 698 1953 
Q 1122 2241 2028 2241 
L 2688 2241 
L 2688 2328 
Q 2688 2594 2478 2717 
Q 2269 2841 1825 2841 
Q 1466 2841 1156 2769 
Q 847 2697 581 2553 
L 581 3406 
Q 941 3494 1303 3539 
Q 1666 3584 2028 3584 
Q 2975 3584 3395 3211 
Q 3816 2838 3816 1997 
z
" transform="scale(0.015625)"/>
      <path id="DejaVuSans-Bold-63" d="M 3366 3391 
L 3366 2478 
Q 3138 2634 2908 2709 
Q 2678 2784 2431 2784 
Q 1963 2784 1702 2511 
Q 1441 2238 1441 1747 
Q 1441 1256 1702 982 
Q 1963 709 2431 709 
Q 2694 709 2930 787 
Q 3166 866 3366 1019 
L 3366 103 
Q 3103 6 2833 -42 
Q 2563 -91 2291 -91 
Q 1344 -91 809 395 
Q 275 881 275 1747 
Q 275 2613 809 3098 
Q 1344 3584 2291 3584 
Q 2566 3584 2833 3536 
Q 3100 3488 3366 3391 
z
" transform="scale(0.015625)"/>
      <path id="DejaVuSans-Bold-6b" d="M 538 4863 
L 1656 4863 
L 1656 2216 
L 2944 3500 
L 4244 3500 
L 2534 1894 
L 4378 0 
L 3022 0 
L 1656 1459 
L 1656 0 
L 538 0 
L 538 4863 
z
" transform="scale(0.015625)"/>
      <path id="DejaVuSans-Bold-65" d="M 4031 1759 
L 4031 1441 
L 1416 1441 
Q 1456 1047 1700 850 
Q 1944 653 2381 653 
Q 2734 653 3104 758 
Q 3475 863 3866 1075 
L 3866 213 
Q 3469 63 3072 -14 
Q 2675 -91 2278 -91 
Q 1328 -91 801 392 
Q 275 875 275 1747 
Q 275 2603 792 3093 
Q 1309 3584 2216 3584 
Q 3041 3584 3536 3087 
Q 4031 2591 4031 1759 
z
M 2881 2131 
Q 2881 2450 2695 2645 
Q 2509 2841 2209 2841 
Q 1884 2841 1681 2658 
Q 1478 2475 1428 2131 
L 2881 2131 
z
" transform="scale(0.015625)"/>
      <path id="DejaVuSans-Bold-2c" d="M 653 1209 
L 1778 1209 
L 1778 256 
L 1006 -909 
L 341 -909 
L 653 256 
L 653 1209 
z
" transform="scale(0.015625)"/>
      <path id="DejaVuSans-Bold-34" d="M 2356 3675 
L 1038 1722 
L 2356 1722 
L 2356 3675 
z
M 2156 4666 
L 3494 4666 
L 3494 1722 
L 4159 1722 
L 4159 850 
L 3494 850 
L 3494 0 
L 2356 0 
L 2356 850 
L 288 850 
L 288 1881 
L 2156 4666 
z
" transform="scale(0.015625)"/>
      <path id="DejaVuSans-Bold-7c" d="M 1522 4891 
L 1522 -1509 
L 813 -1509 
L 813 4891 
L 1522 4891 
z
" transform="scale(0.015625)"/>
      <path id="DejaVuSans-Bold-42" d="M 2456 2859 
Q 2741 2859 2887 2984 
Q 3034 3109 3034 3353 
Q 3034 3594 2887 3720 
Q 2741 3847 2456 3847 
L 1791 3847 
L 1791 2859 
L 2456 2859 
z
M 2497 819 
Q 2859 819 3042 972 
Q 3225 1125 3225 1434 
Q 3225 1738 3044 1889 
Q 2863 2041 2497 2041 
L 1791 2041 
L 1791 819 
L 2497 819 
z
M 3616 2497 
Q 4003 2384 4215 2081 
Q 4428 1778 4428 1338 
Q 4428 663 3972 331 
Q 3516 0 2584 0 
L 588 0 
L 588 4666 
L 2394 4666 
Q 3366 4666 3802 4372 
Q 4238 4078 4238 3431 
Q 4238 3091 4078 2852 
Q 3919 2613 3616 2497 
z
" transform="scale(0.015625)"/>
      <path id="DejaVuSans-Bold-53" d="M 3834 4519 
L 3834 3531 
Q 3450 3703 3084 3790 
Q 2719 3878 2394 3878 
Q 1963 3878 1756 3759 
Q 1550 3641 1550 3391 
Q 1550 3203 1689 3098 
Q 1828 2994 2194 2919 
L 2706 2816 
Q 3484 2659 3812 2340 
Q 4141 2022 4141 1434 
Q 4141 663 3683 286 
Q 3225 -91 2284 -91 
Q 1841 -91 1394 -6 
Q 947 78 500 244 
L 500 1259 
Q 947 1022 1364 901 
Q 1781 781 2169 781 
Q 2563 781 2772 912 
Q 2981 1044 2981 1288 
Q 2981 1506 2839 1625 
Q 2697 1744 2272 1838 
L 1806 1941 
Q 1106 2091 782 2419 
Q 459 2747 459 3303 
Q 459 4000 909 4375 
Q 1359 4750 2203 4750 
Q 2588 4750 2994 4692 
Q 3400 4634 3834 4519 
z
" transform="scale(0.015625)"/>
      <path id="DejaVuSans-Bold-3a" d="M 716 3500 
L 1844 3500 
L 1844 2291 
L 716 2291 
L 716 3500 
z
M 716 1209 
L 1844 1209 
L 1844 0 
L 716 0 
L 716 1209 
z
" transform="scale(0.015625)"/>
      <path id="DejaVuSans-Bold-b7" d="M 653 2828 
L 1778 2828 
L 1778 1619 
L 653 1619 
L 653 2828 
z
" transform="scale(0.015625)"/>
      <path id="DejaVuSans-Bold-68" d="M 4056 2131 
L 4056 0 
L 2931 0 
L 2931 347 
L 2931 1625 
Q 2931 2084 2911 2256 
Q 2891 2428 2841 2509 
Q 2775 2619 2662 2680 
Q 2550 2741 2406 2741 
Q 2056 2741 1856 2470 
Q 1656 2200 1656 1722 
L 1656 0 
L 538 0 
L 538 4863 
L 1656 4863 
L 1656 2988 
Q 1909 3294 2193 3439 
Q 2478 3584 2822 3584 
Q 3428 3584 3742 3212 
Q 4056 2841 4056 2131 
z
" transform="scale(0.015625)"/>
      <path id="DejaVuSans-Bold-74" d="M 1759 4494 
L 1759 3500 
L 2913 3500 
L 2913 2700 
L 1759 2700 
L 1759 1216 
Q 1759 972 1856 886 
Q 1953 800 2241 800 
L 2816 800 
L 2816 0 
L 1856 0 
Q 1194 0 917 276 
Q 641 553 641 1216 
L 641 2700 
L 84 2700 
L 84 3500 
L 641 3500 
L 641 4494 
L 1759 4494 
z
" transform="scale(0.015625)"/>
      <path id="DejaVuSans-Bold-35" d="M 678 4666 
L 3669 4666 
L 3669 3781 
L 1638 3781 
L 1638 3059 
Q 1775 3097 1914 3117 
Q 2053 3138 2203 3138 
Q 3056 3138 3531 2711 
Q 4006 2284 4006 1522 
Q 4006 766 3489 337 
Q 2972 -91 2053 -91 
Q 1656 -91 1267 -14 
Q 878 63 494 219 
L 494 1166 
Q 875 947 1217 837 
Q 1559 728 1863 728 
Q 2300 728 2551 942 
Q 2803 1156 2803 1522 
Q 2803 1891 2551 2103 
Q 2300 2316 1863 2316 
Q 1603 2316 1309 2248 
Q 1016 2181 678 2041 
L 678 4666 
z
" transform="scale(0.015625)"/>
     </defs>
     <use xlink:href="#DejaVuSans-Bold-41"/>
     <use xlink:href="#DejaVuSans-Bold-6e" transform="translate(77.392578 0)"/>
     <use xlink:href="#DejaVuSans-Bold-69" transform="translate(148.583984 0)"/>
     <use xlink:href="#DejaVuSans-Bold-6c" transform="translate(182.861328 0)"/>
     <use xlink:href="#DejaVuSans-Bold-6c" transform="translate(217.138672 0)"/>
     <use xlink:href="#DejaVuSans-Bold-6f" transform="translate(251.416016 0)"/>
     <use xlink:href="#DejaVuSans-Bold-20" transform="translate(320.117188 0)"/>
     <use xlink:href="#DejaVuSans-Bold-41" transform="translate(354.931641 0)"/>
     <use xlink:href="#DejaVuSans-Bold-36" transform="translate(432.324219 0)"/>
     <use xlink:href="#DejaVuSans-Bold-20" transform="translate(501.904297 0)"/>
     <use xlink:href="#DejaVuSans-Bold-2014" transform="translate(536.71875 0)"/>
     <use xlink:href="#DejaVuSans-Bold-20" transform="translate(636.71875 0)"/>
     <use xlink:href="#DejaVuSans-Bold-39" transform="translate(671.533203 0)"/>
     <use xlink:href="#DejaVuSans-Bold-20" transform="translate(741.113281 0)"/>
     <use xlink:href="#DejaVuSans-Bold-6e" transform="translate(775.927734 0)"/>
     <use xlink:href="#DejaVuSans-Bold-6f" transform="translate(847.119141 0)"/>
     <use xlink:href="#DejaVuSans-Bold-64" transform="translate(915.820312 0)"/>
     <use xlink:href="#DejaVuSans-Bold-6f" transform="translate(987.402344 0)"/>
     <use xlink:href="#DejaVuSans-Bold-73" transform="translate(1056.103516 0)"/>
     <use xlink:href="#DejaVuSans-Bold-20" transform="translate(1115.625 0)"/>
     <use xlink:href="#DejaVuSans-Bold-62" transform="translate(1150.439453 0)"/>
     <use xlink:href="#DejaVuSans-Bold-61" transform="translate(1222.021484 0)"/>
     <use xlink:href="#DejaVuSans-Bold-63" transform="translate(1289.501953 0)"/>
     <use xlink:href="#DejaVuSans-Bold-6b" transform="translate(1348.779297 0)"/>
     <use xlink:href="#DejaVuSans-Bold-62" transform="translate(1415.283203 0)"/>
     <use xlink:href="#DejaVuSans-Bold-6f" transform="translate(1486.865234 0)"/>
     <use xlink:href="#DejaVuSans-Bold-6e" transform="translate(1555.566406 0)"/>
     <use xlink:href="#DejaVuSans-Bold-65" transform="translate(1626.757812 0)"/>
     <use xlink:href="#DejaVuSans-Bold-2c" transform="translate(1694.580078 0)"/>
     <use xlink:href="#DejaVuSans-Bold-20" transform="translate(1732.568359 0)"/>
     <use xlink:href="#DejaVuSans-Bold-34" transform="translate(1767.382812 0)"/>
     <use xlink:href="#DejaVuSans-Bold-20" transform="translate(1836.962891 0)"/>
     <use xlink:href="#DejaVuSans-Bold-61" transform="translate(1871.777344 0)"/>
     <use xlink:href="#DejaVuSans-Bold-63" transform="translate(1939.257812 0)"/>
     <use xlink:href="#DejaVuSans-Bold-63" transform="translate(1998.535156 0)"/>
     <use xlink:href="#DejaVuSans-Bold-65" transform="translate(2057.8125 0)"/>
     <use xlink:href="#DejaVuSans-Bold-73" transform="translate(2125.634766 0)"/>
     <use xlink:href="#DejaVuSans-Bold-6f" transform="translate(2185.15625 0)"/>
     <use xlink:href="#DejaVuSans-Bold-73" transform="translate(2253.857422 0)"/>
     <use xlink:href="#DejaVuSans-Bold-20" transform="translate(2313.378906 0)"/>
     <use xlink:href="#DejaVuSans-Bold-7c" transform="translate(2348.193359 0)"/>
     <use xlink:href="#DejaVuSans-Bold-20" transform="translate(2384.716797 0)"/>
     <use xlink:href="#DejaVuSans-Bold-73" transform="translate(2419.53125 0)"/>
     <use xlink:href="#DejaVuSans-Bold-65" transform="translate(2479.052734 0)"/>
     <use xlink:href="#DejaVuSans-Bold-64" transform="translate(2546.875 0)"/>
     <use xlink:href="#DejaVuSans-Bold-65" transform="translate(2618.457031 0)"/>
     <use xlink:href="#DejaVuSans-Bold-73" transform="translate(2686.279297 0)"/>
     <use xlink:href="#DejaVuSans-Bold-20" transform="translate(2745.800781 0)"/>
     <use xlink:href="#DejaVuSans-Bold-41" transform="translate(2780.615234 0)"/>
     <use xlink:href="#DejaVuSans-Bold-42" transform="translate(2858.007812 0)"/>
     <use xlink:href="#DejaVuSans-Bold-41" transform="translate(2934.228516 0)"/>
     <use xlink:href="#DejaVuSans-Bold-53" transform="translate(3011.621094 0)"/>
     <use xlink:href="#DejaVuSans-Bold-54" transform="translate(3083.642578 0)"/>
     <use xlink:href="#DejaVuSans-Bold-3a" transform="translate(3146.355469 0)"/>
     <use xlink:href="#DejaVuSans-Bold-20" transform="translate(3186.345703 0)"/>
     <use xlink:href="#DejaVuSans-Bold-31" transform="translate(3221.160156 0)"/>
     <use xlink:href="#DejaVuSans-Bold-38" transform="translate(3290.740234 0)"/>
     <use xlink:href="#DejaVuSans-Bold-32" transform="translate(3360.320312 0)"/>
     <use xlink:href="#DejaVuSans-Bold-20" transform="translate(3429.900391 0)"/>
     <use xlink:href="#DejaVuSans-Bold-b7" transform="translate(3464.714844 0)"/>
     <use xlink:href="#DejaVuSans-Bold-20" transform="translate(3502.703125 0)"/>
     <use xlink:href="#DejaVuSans-Bold-68" transform="translate(3537.517578 0)"/>
     <use xlink:href="#DejaVuSans-Bold-61" transform="translate(3608.708984 0)"/>
     <use xlink:href="#DejaVuSans-Bold-62" transform="translate(3676.189453 0)"/>
     <use xlink:href="#DejaVuSans-Bold-69" transform="translate(3747.771484 0)"/>
     <use xlink:href="#DejaVuSans-Bold-74" transform="translate(3782.048828 0)"/>
     <use xlink:href="#DejaVuSans-Bold-61" transform="translate(3829.851562 0)"/>
     <use xlink:href="#DejaVuSans-Bold-6e" transform="translate(3897.332031 0)"/>
     <use xlink:href="#DejaVuSans-Bold-74" transform="translate(3968.523438 0)"/>
     <use xlink:href="#DejaVuSans-Bold-65" transform="translate(4016.326172 0)"/>
     <use xlink:href="#DejaVuSans-Bold-73" transform="translate(4084.148438 0)"/>
     <use xlink:href="#DejaVuSans-Bold-3a" transform="translate(4143.669922 0)"/>
     <use xlink:href="#DejaVuSans-Bold-20" transform="translate(4183.660156 0)"/>
     <use xlink:href="#DejaVuSans-Bold-33" transform="translate(4218.474609 0)"/>
     <use xlink:href="#DejaVuSans-Bold-35" transform="translate(4288.054688 0)"/>
     <use xlink:href="#DejaVuSans-Bold-30" transform="translate(4357.634766 0)"/>
     <use xlink:href="#DejaVuSans-Bold-2c" transform="translate(4427.214844 0)"/>
     <use xlink:href="#DejaVuSans-Bold-30" transform="translate(4465.203125 0)"/>
     <use xlink:href="#DejaVuSans-Bold-30" transform="translate(4534.783203 0)"/>
     <use xlink:href="#DejaVuSans-Bold-30" transform="translate(4604.363281 0)"/>
    </g>
   </g>
  </g>
 </g>
 <defs>
  <clipPath id="pdeaea1d762">
   <rect x="7.2" y="39.4275" width="1095.996294" height="1098.88"/>
  </clipPath>
 </defs>
</svg>
